<svg width="595" height="842" viewBox="0 0 595 842" fill="none" xmlns="http://www.w3.org/2000/svg">
<rect width="595" height="842" fill="white"/>
<path d="M35.5776 80H33.2339V62.2266H35.5776V80ZM42.2183 73.042V80H39.8745V62.2266H46.4297C48.3747 62.2266 49.8965 62.723 50.9951 63.7158C52.1019 64.7087 52.6553 66.0229 52.6553 67.6587C52.6553 69.384 52.1141 70.7145 51.0317 71.6504C49.9575 72.5781 48.4154 73.042 46.4053 73.042H42.2183ZM42.2183 71.1255H46.4297C47.6829 71.1255 48.6432 70.8325 49.3105 70.2466C49.9779 69.6525 50.3115 68.798 50.3115 67.6831C50.3115 66.6252 49.9779 65.7788 49.3105 65.144C48.6432 64.5093 47.7277 64.1797 46.564 64.1553H42.2183V71.1255ZM57.5503 68.3911C58.5513 67.1623 59.8534 66.5479 61.4565 66.5479C64.2479 66.5479 65.6558 68.1226 65.6802 71.272V80H63.4219V71.2598C63.4137 70.3076 63.194 69.6037 62.7627 69.1479C62.3395 68.6922 61.6763 68.4644 60.7729 68.4644C60.0405 68.4644 59.3976 68.6597 58.8442 69.0503C58.2909 69.4409 57.8595 69.9536 57.5503 70.5884V80H55.292V61.25H57.5503V68.3911ZM68.4634 73.2739C68.4634 71.98 68.7157 70.8162 69.2202 69.7827C69.7329 68.7492 70.4409 67.9517 71.3442 67.3901C72.2557 66.8286 73.2933 66.5479 74.457 66.5479C76.2555 66.5479 77.7082 67.1704 78.8149 68.4155C79.9299 69.6606 80.4873 71.3167 80.4873 73.3838V73.5425C80.4873 74.8283 80.2391 75.9839 79.7427 77.0093C79.2544 78.0265 78.5505 78.82 77.6309 79.3896C76.7194 79.9593 75.6696 80.2441 74.4814 80.2441C72.6911 80.2441 71.2384 79.6216 70.1235 78.3765C69.0168 77.1313 68.4634 75.4834 68.4634 73.4326V73.2739ZM70.7339 73.5425C70.7339 75.0073 71.0716 76.1833 71.7471 77.0703C72.4307 77.9574 73.3421 78.4009 74.4814 78.4009C75.6289 78.4009 76.5404 77.9533 77.2158 77.0581C77.8913 76.1548 78.229 74.8934 78.229 73.2739C78.229 71.8254 77.8831 70.6535 77.1914 69.7583C76.5078 68.855 75.5964 68.4033 74.457 68.4033C73.3421 68.4033 72.4429 68.8468 71.7593 69.7339C71.0757 70.6209 70.7339 71.8905 70.7339 73.5425ZM85.4556 66.792L85.5288 68.4521C86.5379 67.1826 87.8563 66.5479 89.4839 66.5479C92.2752 66.5479 93.6831 68.1226 93.7075 71.272V80H91.4492V71.2598C91.4411 70.3076 91.2214 69.6037 90.79 69.1479C90.3669 68.6922 89.7036 68.4644 88.8003 68.4644C88.0679 68.4644 87.425 68.6597 86.8716 69.0503C86.3182 69.4409 85.8869 69.9536 85.5776 70.5884V80H83.3193V66.792H85.4556ZM102.594 80.2441C100.804 80.2441 99.3472 79.6582 98.2241 78.4863C97.1011 77.3063 96.5396 75.7316 96.5396 73.7622V73.3472C96.5396 72.0369 96.7878 70.8691 97.2842 69.8438C97.7887 68.8102 98.4886 68.0046 99.3838 67.4268C100.287 66.8408 101.264 66.5479 102.313 66.5479C104.031 66.5479 105.365 67.1134 106.317 68.2446C107.27 69.3758 107.746 70.9953 107.746 73.103V74.043H98.7979C98.8304 75.3451 99.2088 76.3989 99.9331 77.2046C100.666 78.0021 101.593 78.4009 102.716 78.4009C103.514 78.4009 104.189 78.2381 104.743 77.9126C105.296 77.5871 105.78 77.1558 106.195 76.6187L107.575 77.6929C106.468 79.3937 104.808 80.2441 102.594 80.2441ZM102.313 68.4033C101.402 68.4033 100.637 68.737 100.019 69.4043C99.4001 70.0635 99.0176 70.9912 98.8711 72.1875H105.487V72.0166C105.422 70.8691 105.113 69.9821 104.56 69.3555C104.006 68.7207 103.257 68.4033 102.313 68.4033ZM116.486 72.7856C116.486 70.9465 116.73 69.1805 117.218 67.4878C117.715 65.7951 118.451 64.257 119.428 62.8735C120.404 61.4901 121.417 60.5135 122.467 59.9438L122.931 61.4331C121.743 62.3446 120.766 63.7362 120.001 65.6079C119.245 67.4797 118.83 69.5752 118.756 71.8945L118.744 72.9321C118.744 76.0734 119.318 78.7996 120.465 81.1108C121.157 82.4943 121.979 83.5767 122.931 84.3579L122.467 85.7373C121.385 85.1351 120.351 84.126 119.367 82.71C117.446 79.943 116.486 76.6349 116.486 72.7856ZM125.47 80V62.2266H130.487C132.034 62.2266 133.401 62.5684 134.589 63.252C135.777 63.9355 136.693 64.908 137.335 66.1694C137.986 67.4308 138.316 68.8794 138.324 70.5151V71.6504C138.324 73.3268 137.999 74.7957 137.348 76.0571C136.705 77.3185 135.781 78.2869 134.577 78.9624C133.38 79.6379 131.985 79.9837 130.39 80H125.47ZM127.814 64.1553V78.0835H130.28C132.086 78.0835 133.49 77.522 134.491 76.3989C135.5 75.2759 136.005 73.6768 136.005 71.6016V70.564C136.005 68.5457 135.529 66.9792 134.577 65.8643C133.633 64.7412 132.29 64.1715 130.548 64.1553H127.814ZM149.677 78.6938C148.798 79.7274 147.508 80.2441 145.807 80.2441C144.399 80.2441 143.325 79.8372 142.584 79.0234C141.852 78.2015 141.482 76.9889 141.474 75.3857V66.792H143.732V75.3247C143.732 77.3267 144.546 78.3276 146.173 78.3276C147.899 78.3276 149.046 77.6847 149.616 76.3989V66.792H151.874V80H149.726L149.677 78.6938ZM157.453 66.792L157.526 68.4521C158.535 67.1826 159.853 66.5479 161.481 66.5479C164.272 66.5479 165.68 68.1226 165.705 71.272V80H163.446V71.2598C163.438 70.3076 163.218 69.6037 162.787 69.1479C162.364 68.6922 161.701 68.4644 160.797 68.4644C160.065 68.4644 159.422 68.6597 158.869 69.0503C158.315 69.4409 157.884 69.9536 157.575 70.5884V80H155.316V66.792H157.453ZM172.797 73.8843L171.381 75.3613V80H169.123V61.25H171.381V72.5903L172.589 71.1377L176.703 66.792H179.45L174.311 72.3096L180.048 80H177.399L172.797 73.8843ZM187.018 80.2441C185.228 80.2441 183.771 79.6582 182.648 78.4863C181.525 77.3063 180.963 75.7316 180.963 73.7622V73.3472C180.963 72.0369 181.212 70.8691 181.708 69.8438C182.213 68.8102 182.912 68.0046 183.808 67.4268C184.711 66.8408 185.688 66.5479 186.737 66.5479C188.454 66.5479 189.789 67.1134 190.741 68.2446C191.693 69.3758 192.169 70.9953 192.169 73.103V74.043H183.222C183.254 75.3451 183.633 76.3989 184.357 77.2046C185.089 78.0021 186.017 78.4009 187.14 78.4009C187.938 78.4009 188.613 78.2381 189.167 77.9126C189.72 77.5871 190.204 77.1558 190.619 76.6187L191.999 77.6929C190.892 79.3937 189.232 80.2441 187.018 80.2441ZM186.737 68.4033C185.826 68.4033 185.061 68.737 184.442 69.4043C183.824 70.0635 183.441 70.9912 183.295 72.1875H189.911V72.0166C189.846 70.8691 189.537 69.9821 188.983 69.3555C188.43 68.7207 187.681 68.4033 186.737 68.4033ZM197.248 80H194.989V61.25H197.248V80ZM206.085 72.9077C206.085 74.7225 205.845 76.464 205.365 78.1323C204.893 79.7925 204.165 81.3265 203.18 82.7344C202.204 84.1423 201.178 85.1432 200.104 85.7373L199.628 84.3579C200.881 83.3976 201.886 81.9084 202.643 79.8901C203.408 77.8638 203.799 75.6177 203.815 73.1519V72.7612C203.815 71.0522 203.636 69.4653 203.278 68.0005C202.92 66.5275 202.419 65.2091 201.776 64.0454C201.142 62.8817 200.425 61.9743 199.628 61.3232L200.104 59.9438C201.178 60.5379 202.2 61.5308 203.168 62.9224C204.145 64.314 204.873 65.848 205.353 67.5244C205.841 69.2008 206.085 70.9953 206.085 72.9077Z" fill="black"/>
<path d="M42.0962 35.4224C42.0962 34.6411 41.8195 34.0389 41.2661 33.6157C40.7209 33.1925 39.7321 32.7653 38.2998 32.334C36.8675 31.9027 35.7282 31.4225 34.8818 30.8936C33.2624 29.8763 32.4526 28.5498 32.4526 26.9141C32.4526 25.4818 33.0345 24.3018 34.1982 23.374C35.3701 22.4463 36.8879 21.9824 38.7515 21.9824C39.9884 21.9824 41.0911 22.2103 42.0596 22.666C43.028 23.1217 43.7889 23.7728 44.3423 24.6191C44.8957 25.4574 45.1724 26.3892 45.1724 27.4146H42.0962C42.0962 26.4868 41.8032 25.7625 41.2173 25.2417C40.6395 24.7127 39.8094 24.4482 38.7271 24.4482C37.7179 24.4482 36.9326 24.6639 36.3711 25.0952C35.8177 25.5265 35.541 26.1287 35.541 26.9019C35.541 27.5529 35.8421 28.0981 36.4443 28.5376C37.0465 28.9689 38.0394 29.3921 39.4229 29.8071C40.8063 30.214 41.9172 30.682 42.7554 31.2109C43.5936 31.7318 44.208 32.334 44.5986 33.0176C44.9893 33.693 45.1846 34.4865 45.1846 35.3979C45.1846 36.8791 44.6149 38.0591 43.4756 38.938C42.3444 39.8088 40.8063 40.2441 38.8613 40.2441C37.5755 40.2441 36.3914 40.0081 35.3091 39.5361C34.2349 39.056 33.3966 38.3968 32.7944 37.5586C32.2004 36.7204 31.9033 35.7438 31.9033 34.6289H34.9917C34.9917 35.638 35.3254 36.4193 35.9927 36.9727C36.66 37.526 37.6162 37.8027 38.8613 37.8027C39.9355 37.8027 40.7412 37.5871 41.2783 37.1558C41.8236 36.7163 42.0962 36.1385 42.0962 35.4224ZM51.3247 23.5815V26.792H53.6562V28.9893H51.3247V36.3623C51.3247 36.8669 51.4224 37.2331 51.6177 37.4609C51.8211 37.6807 52.1792 37.7905 52.6919 37.7905C53.0337 37.7905 53.3796 37.7498 53.7295 37.6685V39.9634C53.054 40.1506 52.403 40.2441 51.7764 40.2441C49.4977 40.2441 48.3584 38.9868 48.3584 36.4722V28.9893H46.1855V26.792H48.3584V23.5815H51.3247ZM60.5532 35.752L63.2388 26.792H66.4004L61.1514 42.002C60.3457 44.2236 58.9785 45.3345 57.0498 45.3345C56.6185 45.3345 56.1424 45.2612 55.6216 45.1147V42.8198L56.1831 42.8564C56.9318 42.8564 57.4933 42.7181 57.8677 42.4414C58.2502 42.1729 58.5513 41.7171 58.771 41.0742L59.1982 39.939L54.5596 26.792H57.7578L60.5532 35.752ZM71.271 40H68.3047V21.25H71.271V40ZM80.3286 40.2441C78.4487 40.2441 76.9229 39.6541 75.751 38.4741C74.5872 37.286 74.0054 35.7072 74.0054 33.7378V33.3716C74.0054 32.0532 74.2576 30.8773 74.7622 29.8438C75.2749 28.8021 75.991 27.9924 76.9106 27.4146C77.8302 26.8368 78.8556 26.5479 79.9868 26.5479C81.7853 26.5479 83.1729 27.1216 84.1494 28.269C85.1341 29.4165 85.6265 31.04 85.6265 33.1396V34.3359H76.9961C77.0856 35.4264 77.4478 36.2891 78.0825 36.9238C78.7254 37.5586 79.5311 37.876 80.4995 37.876C81.8586 37.876 82.9653 37.3267 83.8198 36.228L85.4189 37.7539C84.89 38.5433 84.182 39.1577 83.2949 39.5972C82.416 40.0285 81.4272 40.2441 80.3286 40.2441ZM79.9746 28.9282C79.1608 28.9282 78.5016 29.2131 77.9971 29.7827C77.5007 30.3524 77.1833 31.1458 77.0449 32.1631H82.6968V31.9434C82.6317 30.9505 82.3672 30.2018 81.9033 29.6973C81.4395 29.1846 80.7965 28.9282 79.9746 28.9282ZM87.4209 33.2983C87.4209 31.2476 87.901 29.6118 88.8613 28.3911C89.8298 27.1623 91.1115 26.5479 92.7065 26.5479C94.2121 26.5479 95.3962 27.0728 96.2588 28.1226L96.3931 26.792H99.0664V39.5972C99.0664 41.3306 98.5252 42.6978 97.4429 43.6987C96.3687 44.6997 94.916 45.2002 93.085 45.2002C92.1165 45.2002 91.1685 44.9967 90.2407 44.5898C89.3211 44.1911 88.6213 43.6662 88.1411 43.0151L89.5449 41.2329C90.4564 42.3153 91.5794 42.8564 92.9141 42.8564C93.8988 42.8564 94.6759 42.5879 95.2456 42.0508C95.8153 41.5218 96.1001 40.7406 96.1001 39.707V38.8159C95.2456 39.7681 94.1063 40.2441 92.6821 40.2441C91.1359 40.2441 89.8704 39.6297 88.8857 38.4009C87.9092 37.172 87.4209 35.4712 87.4209 33.2983ZM90.375 33.5547C90.375 34.8812 90.6436 35.9269 91.1807 36.6919C91.7259 37.4487 92.4787 37.8271 93.439 37.8271C94.6353 37.8271 95.5223 37.3145 96.1001 36.2891V30.4785C95.5386 29.4775 94.6597 28.9771 93.4634 28.9771C92.4868 28.9771 91.7259 29.3636 91.1807 30.1367C90.6436 30.9098 90.375 32.0492 90.375 33.5547ZM110.126 38.7061C109.255 39.7314 108.018 40.2441 106.415 40.2441C104.983 40.2441 103.896 39.825 103.156 38.9868C102.423 38.1486 102.057 36.936 102.057 35.3491V26.792H105.023V35.3125C105.023 36.9889 105.719 37.8271 107.111 37.8271C108.551 37.8271 109.524 37.3104 110.028 36.2769V26.792H112.995V40H110.199L110.126 38.7061ZM119.171 40H116.205V26.792H119.171V40ZM116.022 23.3618C116.022 22.9061 116.164 22.5277 116.449 22.2266C116.742 21.9255 117.157 21.7749 117.694 21.7749C118.231 21.7749 118.646 21.9255 118.939 22.2266C119.232 22.5277 119.379 22.9061 119.379 23.3618C119.379 23.8094 119.232 24.1838 118.939 24.4849C118.646 24.7778 118.231 24.9243 117.694 24.9243C117.157 24.9243 116.742 24.7778 116.449 24.4849C116.164 24.1838 116.022 23.8094 116.022 23.3618ZM121.857 33.2983C121.857 31.2638 122.329 29.6322 123.273 28.4033C124.217 27.1663 125.482 26.5479 127.069 26.5479C128.469 26.5479 129.6 27.0361 130.463 28.0127V21.25H133.429V40H130.744L130.597 38.6328C129.71 39.707 128.526 40.2441 127.045 40.2441C125.499 40.2441 124.245 39.6216 123.285 38.3765C122.333 37.1313 121.857 35.4386 121.857 33.2983ZM124.823 33.5547C124.823 34.8975 125.08 35.9473 125.592 36.7041C126.113 37.4528 126.85 37.8271 127.802 37.8271C129.014 37.8271 129.901 37.286 130.463 36.2036V30.564C129.918 29.506 129.039 28.9771 127.826 28.9771C126.866 28.9771 126.125 29.3595 125.604 30.1245C125.084 30.8813 124.823 32.0247 124.823 33.5547ZM142.34 40.2441C140.46 40.2441 138.935 39.6541 137.763 38.4741C136.599 37.286 136.017 35.7072 136.017 33.7378V33.3716C136.017 32.0532 136.269 30.8773 136.774 29.8438C137.287 28.8021 138.003 27.9924 138.922 27.4146C139.842 26.8368 140.867 26.5479 141.999 26.5479C143.797 26.5479 145.185 27.1216 146.161 28.269C147.146 29.4165 147.638 31.04 147.638 33.1396V34.3359H139.008C139.097 35.4264 139.459 36.2891 140.094 36.9238C140.737 37.5586 141.543 37.876 142.511 37.876C143.87 37.876 144.977 37.3267 145.832 36.228L147.431 37.7539C146.902 38.5433 146.194 39.1577 145.307 39.5972C144.428 40.0285 143.439 40.2441 142.34 40.2441ZM141.986 28.9282C141.173 28.9282 140.513 29.2131 140.009 29.7827C139.512 30.3524 139.195 31.1458 139.057 32.1631H144.708V31.9434C144.643 30.9505 144.379 30.2018 143.915 29.6973C143.451 29.1846 142.808 28.9282 141.986 28.9282Z" fill="black"/>
<path d="M41.2871 109.721H35.5059L34.4121 116H32.5762L35.0469 101.781H43.6016L43.3281 103.324H36.6094L35.7695 108.188H41.5605L41.2871 109.721ZM49.2559 116C49.2103 115.811 49.1875 115.626 49.1875 115.443L49.2168 114.887C48.2467 115.785 47.2181 116.221 46.1309 116.195C45.1999 116.182 44.4414 115.889 43.8555 115.316C43.276 114.737 43.0124 114.014 43.0645 113.148C43.1296 112.029 43.6178 111.156 44.5293 110.531C45.4473 109.9 46.6517 109.584 48.1426 109.584L49.9883 109.594L50.1055 108.754C50.1706 108.122 50.0469 107.624 49.7344 107.26C49.4284 106.889 48.9661 106.697 48.3477 106.684C47.7422 106.671 47.2051 106.82 46.7363 107.133C46.2741 107.439 45.9909 107.846 45.8867 108.354L44.1094 108.363C44.168 107.745 44.4089 107.198 44.832 106.723C45.2552 106.241 45.7988 105.87 46.4629 105.609C47.127 105.342 47.8138 105.215 48.5234 105.229C49.6237 105.255 50.4798 105.59 51.0918 106.234C51.7038 106.872 51.9609 107.722 51.8633 108.783L51.0039 114.018L50.9551 114.77C50.9421 115.128 50.9811 115.482 51.0723 115.834L51.0527 116H49.2559ZM46.4824 114.633C47.0488 114.646 47.5827 114.512 48.084 114.232C48.5918 113.946 49.028 113.552 49.3926 113.051L49.7734 110.873L48.4355 110.863C47.3223 110.863 46.4694 111.039 45.877 111.391C45.2845 111.742 44.9492 112.24 44.8711 112.885C44.8125 113.38 44.9264 113.793 45.2129 114.125C45.5059 114.451 45.929 114.62 46.4824 114.633ZM60.0273 107.045L59.1973 106.957C58.0645 106.957 57.1725 107.468 56.5215 108.49L55.2227 116H53.4551L55.291 105.434L57 105.424L56.7363 106.654C57.485 105.671 58.3672 105.193 59.3828 105.219C59.5977 105.219 59.8776 105.268 60.2227 105.365L60.0273 107.045ZM69.7051 110.766C69.5749 111.846 69.2786 112.82 68.8164 113.686C68.3542 114.551 67.7943 115.193 67.1367 115.609C66.4792 116.026 65.75 116.225 64.9492 116.205C63.6732 116.179 62.7259 115.701 62.1074 114.77L61.7461 116H60.1152L62.7227 101H64.4902L63.4258 106.605C64.2721 105.668 65.3008 105.212 66.5117 105.238C67.5273 105.264 68.3184 105.639 68.8848 106.361C69.4512 107.084 69.7507 108.08 69.7832 109.35C69.7897 109.766 69.7702 110.17 69.7246 110.561L69.7051 110.766ZM68.0254 109.74C68.0449 108.79 67.8854 108.064 67.5469 107.562C67.2083 107.055 66.6908 106.788 65.9941 106.762C64.8939 106.736 63.9629 107.289 63.2012 108.422L62.4102 113.021C62.8008 114.096 63.5332 114.646 64.6074 114.672C65.2975 114.698 65.8997 114.493 66.4141 114.057C66.9349 113.62 67.3288 113.012 67.5957 112.23C67.8626 111.443 68.0059 110.613 68.0254 109.74ZM75.6816 116.195C74.3665 116.169 73.3379 115.684 72.5957 114.74C71.8535 113.796 71.541 112.589 71.6582 111.117L71.707 110.697C71.8177 109.649 72.127 108.692 72.6348 107.826C73.1491 106.96 73.7741 106.309 74.5098 105.873C75.2454 105.43 76.0397 105.219 76.8926 105.238C77.9798 105.264 78.8327 105.626 79.4512 106.322C80.0697 107.019 80.4082 107.963 80.4668 109.154C80.4863 109.577 80.4733 110.001 80.4277 110.424L80.3203 111.234H73.416C73.2988 112.191 73.4551 113.005 73.8848 113.676C74.321 114.346 74.9688 114.695 75.8281 114.721C76.8698 114.747 77.8333 114.278 78.7188 113.314L79.7344 114.174C79.2917 114.812 78.7188 115.313 78.0156 115.678C77.319 116.036 76.541 116.208 75.6816 116.195ZM76.8047 106.713C76.0755 106.693 75.4375 106.941 74.8906 107.455C74.3503 107.969 73.9206 108.734 73.6016 109.75L78.7383 109.76L78.7773 109.604C78.8815 108.783 78.748 108.103 78.377 107.562C78.0124 107.016 77.4883 106.732 76.8047 106.713ZM82.6836 113.949C83.0026 113.943 83.2663 114.04 83.4746 114.242C83.6829 114.444 83.7839 114.704 83.7773 115.023C83.7708 115.342 83.6634 115.603 83.4551 115.805C83.2467 116 82.9863 116.104 82.6738 116.117C82.3613 116.13 82.1042 116.042 81.9023 115.854C81.7005 115.658 81.5996 115.401 81.5996 115.082C81.5996 114.763 81.7005 114.499 81.9023 114.291C82.1042 114.076 82.3646 113.962 82.6836 113.949ZM84.1777 105.326C84.4967 105.32 84.7604 105.417 84.9688 105.619C85.1771 105.821 85.278 106.081 85.2715 106.4C85.265 106.719 85.1576 106.98 84.9492 107.182C84.7409 107.377 84.4805 107.481 84.168 107.494C83.8555 107.507 83.5983 107.419 83.3965 107.23C83.1947 107.035 83.0938 106.778 83.0938 106.459C83.0938 106.14 83.1947 105.876 83.3965 105.668C83.5983 105.453 83.8587 105.339 84.1777 105.326Z" fill="black"/>
<path d="M35.2578 138.625L38.9766 147.906L42.6953 138.625H44.6406V150H43.1406V145.57L43.2812 140.789L39.5469 150H38.3984L34.6719 140.812L34.8203 145.57V150H33.3203V138.625H35.2578ZM50.5703 150.156C49.4245 150.156 48.4922 149.781 47.7734 149.031C47.0547 148.276 46.6953 147.268 46.6953 146.008V145.742C46.6953 144.904 46.8542 144.156 47.1719 143.5C47.4948 142.839 47.9427 142.323 48.5156 141.953C49.0938 141.578 49.7188 141.391 50.3906 141.391C51.4896 141.391 52.3438 141.753 52.9531 142.477C53.5625 143.201 53.8672 144.237 53.8672 145.586V146.188H48.1406C48.1615 147.021 48.4036 147.695 48.8672 148.211C49.3359 148.721 49.9297 148.977 50.6484 148.977C51.1589 148.977 51.5911 148.872 51.9453 148.664C52.2995 148.456 52.6094 148.18 52.875 147.836L53.7578 148.523C53.0495 149.612 51.987 150.156 50.5703 150.156ZM50.3906 142.578C49.8073 142.578 49.3177 142.792 48.9219 143.219C48.526 143.641 48.2812 144.234 48.1875 145H52.4219V144.891C52.3802 144.156 52.1823 143.589 51.8281 143.188C51.474 142.781 50.9948 142.578 50.3906 142.578ZM56.9141 141.547L56.9609 142.609C57.6068 141.797 58.4505 141.391 59.4922 141.391C61.2786 141.391 62.1797 142.398 62.1953 144.414V150H60.75V144.406C60.7448 143.797 60.6042 143.346 60.3281 143.055C60.0573 142.763 59.6328 142.617 59.0547 142.617C58.5859 142.617 58.1745 142.742 57.8203 142.992C57.4661 143.242 57.1901 143.57 56.9922 143.977V150H55.5469V141.547H56.9141ZM69.5938 149.164C69.0312 149.826 68.2057 150.156 67.1172 150.156C66.2161 150.156 65.5286 149.896 65.0547 149.375C64.5859 148.849 64.349 148.073 64.3438 147.047V141.547H65.7891V147.008C65.7891 148.289 66.3099 148.93 67.3516 148.93C68.4557 148.93 69.1901 148.518 69.5547 147.695V141.547H71V150H69.625L69.5938 149.164ZM65.1953 139.289C65.1953 139.055 65.2656 138.859 65.4062 138.703C65.5521 138.542 65.7656 138.461 66.0469 138.461C66.3281 138.461 66.5417 138.542 66.6875 138.703C66.8333 138.859 66.9062 139.055 66.9062 139.289C66.9062 139.523 66.8333 139.719 66.6875 139.875C66.5417 140.031 66.3281 140.109 66.0469 140.109C65.7656 140.109 65.5521 140.031 65.4062 139.875C65.2656 139.719 65.1953 139.523 65.1953 139.289ZM68.5547 139.305C68.5547 139.07 68.625 138.872 68.7656 138.711C68.9115 138.549 69.125 138.469 69.4062 138.469C69.6875 138.469 69.901 138.549 70.0469 138.711C70.1927 138.872 70.2656 139.07 70.2656 139.305C70.2656 139.539 70.1927 139.734 70.0469 139.891C69.901 140.047 69.6875 140.125 69.4062 140.125C69.125 140.125 68.9115 140.047 68.7656 139.891C68.625 139.734 68.5547 139.539 68.5547 139.305ZM78.25 137.852L79.0781 138.414C78.5938 139.076 78.3438 139.789 78.3281 140.555V141.617H76.8906V140.711C76.8906 140.18 77.0156 139.654 77.2656 139.133C77.5208 138.612 77.849 138.185 78.25 137.852ZM80.7109 137.852L81.5391 138.414C81.0547 139.076 80.8047 139.789 80.7891 140.555V141.617H79.3516V140.711C79.3516 140.18 79.4766 139.654 79.7266 139.133C79.9818 138.612 80.3099 138.185 80.7109 137.852ZM91.7969 150H90.2891V144.742H84.5547V150H83.0547V138.625H84.5547V143.516H90.2891V138.625H91.7969V150ZM93.8516 145.695C93.8516 144.867 94.013 144.122 94.3359 143.461C94.6641 142.799 95.1172 142.289 95.6953 141.93C96.2786 141.57 96.9427 141.391 97.6875 141.391C98.8385 141.391 99.7682 141.789 100.477 142.586C101.19 143.383 101.547 144.443 101.547 145.766V145.867C101.547 146.69 101.388 147.43 101.07 148.086C100.758 148.737 100.307 149.245 99.7188 149.609C99.1354 149.974 98.4635 150.156 97.7031 150.156C96.5573 150.156 95.6276 149.758 94.9141 148.961C94.2057 148.164 93.8516 147.109 93.8516 145.797V145.695ZM95.3047 145.867C95.3047 146.805 95.5208 147.557 95.9531 148.125C96.3906 148.693 96.974 148.977 97.7031 148.977C98.4375 148.977 99.0208 148.69 99.4531 148.117C99.8854 147.539 100.102 146.732 100.102 145.695C100.102 144.768 99.8802 144.018 99.4375 143.445C99 142.867 98.4167 142.578 97.6875 142.578C96.974 142.578 96.3984 142.862 95.9609 143.43C95.5234 143.997 95.3047 144.81 95.3047 145.867ZM104.719 141.547L104.758 142.484C105.378 141.755 106.214 141.391 107.266 141.391C108.448 141.391 109.253 141.844 109.68 142.75C109.961 142.344 110.326 142.016 110.773 141.766C111.227 141.516 111.76 141.391 112.375 141.391C114.229 141.391 115.172 142.372 115.203 144.336V150H113.758V144.422C113.758 143.818 113.62 143.367 113.344 143.07C113.068 142.768 112.604 142.617 111.953 142.617C111.417 142.617 110.971 142.779 110.617 143.102C110.263 143.419 110.057 143.849 110 144.391V150H108.547V144.461C108.547 143.232 107.945 142.617 106.742 142.617C105.794 142.617 105.146 143.021 104.797 143.828V150H103.352V141.547H104.719ZM120.898 150.156C119.753 150.156 118.82 149.781 118.102 149.031C117.383 148.276 117.023 147.268 117.023 146.008V145.742C117.023 144.904 117.182 144.156 117.5 143.5C117.823 142.839 118.271 142.323 118.844 141.953C119.422 141.578 120.047 141.391 120.719 141.391C121.818 141.391 122.672 141.753 123.281 142.477C123.891 143.201 124.195 144.237 124.195 145.586V146.188H118.469C118.49 147.021 118.732 147.695 119.195 148.211C119.664 148.721 120.258 148.977 120.977 148.977C121.487 148.977 121.919 148.872 122.273 148.664C122.628 148.456 122.938 148.18 123.203 147.836L124.086 148.523C123.378 149.612 122.315 150.156 120.898 150.156ZM120.719 142.578C120.135 142.578 119.646 142.792 119.25 143.219C118.854 143.641 118.609 144.234 118.516 145H122.75V144.891C122.708 144.156 122.51 143.589 122.156 143.188C121.802 142.781 121.323 142.578 120.719 142.578ZM125.961 141.828L125.141 141.266C125.625 140.589 125.875 139.875 125.891 139.125V138H127.32V139.016C127.315 139.536 127.185 140.057 126.93 140.578C126.68 141.094 126.357 141.51 125.961 141.828ZM128.359 141.828L127.539 141.266C128.023 140.589 128.273 139.875 128.289 139.125V138H129.719V139.016C129.714 139.536 129.583 140.057 129.328 140.578C129.078 141.094 128.755 141.51 128.359 141.828ZM131.438 149.242C131.438 148.992 131.51 148.784 131.656 148.617C131.807 148.451 132.031 148.367 132.328 148.367C132.625 148.367 132.849 148.451 133 148.617C133.156 148.784 133.234 148.992 133.234 149.242C133.234 149.482 133.156 149.682 133 149.844C132.849 150.005 132.625 150.086 132.328 150.086C132.031 150.086 131.807 150.005 131.656 149.844C131.51 149.682 131.438 149.482 131.438 149.242ZM131.445 142.344C131.445 142.094 131.518 141.885 131.664 141.719C131.815 141.552 132.039 141.469 132.336 141.469C132.633 141.469 132.857 141.552 133.008 141.719C133.164 141.885 133.242 142.094 133.242 142.344C133.242 142.583 133.164 142.784 133.008 142.945C132.857 143.107 132.633 143.188 132.336 143.188C132.039 143.188 131.815 143.107 131.664 142.945C131.518 142.784 131.445 142.583 131.445 142.344Z" fill="black"/>
<rect x="253" y="141" width="53" height="52" fill="#FFCC00"/>
<path d="M253 141V140H252V141H253ZM306 141H307V140H306V141ZM306 193V194H307V193H306ZM253 193H252V194H253V193ZM253 142H306V140H253V142ZM305 141V193H307V141H305ZM306 192H253V194H306V192ZM254 193V141H252V193H254Z" fill="black"/>
<path d="M262.849 167.95H261.309L260.949 170H260.309L260.669 167.95H259.389V167.35H260.769L261.049 165.67H259.779V165.07H261.159L261.509 163.02H262.149L261.799 165.07H263.339L263.689 163.02H264.329L263.979 165.07H265.259V165.67H263.869L263.589 167.35H264.869V167.95H263.489L263.129 170H262.489L262.849 167.95ZM262.949 167.35L263.229 165.67H261.689L261.409 167.35H262.949ZM266.848 170V163.02H271.008V163.76H267.688V166.1H270.718V166.84H267.688V170H266.848ZM272.434 170V163.02H276.594V163.76H273.274V166.1H276.304V166.84H273.274V170H272.434ZM280.314 170.12C279.427 170.12 278.737 169.82 278.244 169.22C277.75 168.613 277.504 167.723 277.504 166.55C277.504 165.377 277.75 164.477 278.244 163.85C278.737 163.217 279.427 162.9 280.314 162.9C280.9 162.9 281.39 163.033 281.784 163.3C282.184 163.567 282.494 163.943 282.714 164.43L282.034 164.84C281.894 164.48 281.68 164.193 281.394 163.98C281.107 163.76 280.747 163.65 280.314 163.65C280.014 163.65 279.744 163.707 279.504 163.82C279.27 163.933 279.07 164.097 278.904 164.31C278.744 164.517 278.62 164.767 278.534 165.06C278.447 165.347 278.404 165.67 278.404 166.03V167.07C278.404 167.79 278.57 168.353 278.904 168.76C279.237 169.167 279.707 169.37 280.314 169.37C280.76 169.37 281.134 169.257 281.434 169.03C281.734 168.797 281.954 168.49 282.094 168.11L282.764 168.53C282.544 169.023 282.227 169.413 281.814 169.7C281.4 169.98 280.9 170.12 280.314 170.12ZM286.398 170.12C285.511 170.12 284.821 169.82 284.328 169.22C283.834 168.613 283.588 167.723 283.588 166.55C283.588 165.377 283.834 164.477 284.328 163.85C284.821 163.217 285.511 162.9 286.398 162.9C286.984 162.9 287.474 163.033 287.868 163.3C288.268 163.567 288.578 163.943 288.798 164.43L288.118 164.84C287.978 164.48 287.764 164.193 287.478 163.98C287.191 163.76 286.831 163.65 286.398 163.65C286.098 163.65 285.828 163.707 285.588 163.82C285.354 163.933 285.154 164.097 284.988 164.31C284.828 164.517 284.704 164.767 284.618 165.06C284.531 165.347 284.488 165.67 284.488 166.03V167.07C284.488 167.79 284.654 168.353 284.988 168.76C285.321 169.167 285.791 169.37 286.398 169.37C286.844 169.37 287.218 169.257 287.518 169.03C287.818 168.797 288.038 168.49 288.178 168.11L288.848 168.53C288.628 169.023 288.311 169.413 287.898 169.7C287.484 169.98 286.984 170.12 286.398 170.12ZM292.219 170.12C291.385 170.12 290.775 169.803 290.389 169.17C290.009 168.537 289.819 167.65 289.819 166.51C289.819 165.37 290.009 164.483 290.389 163.85C290.775 163.217 291.385 162.9 292.219 162.9C293.052 162.9 293.659 163.217 294.039 163.85C294.425 164.483 294.619 165.37 294.619 166.51C294.619 167.65 294.425 168.537 294.039 169.17C293.659 169.803 293.052 170.12 292.219 170.12ZM292.219 169.39C292.492 169.39 292.725 169.333 292.919 169.22C293.112 169.107 293.269 168.947 293.389 168.74C293.509 168.533 293.595 168.29 293.649 168.01C293.709 167.73 293.739 167.42 293.739 167.08V165.94C293.739 165.6 293.709 165.29 293.649 165.01C293.595 164.73 293.509 164.487 293.389 164.28C293.269 164.073 293.112 163.913 292.919 163.8C292.725 163.687 292.492 163.63 292.219 163.63C291.945 163.63 291.712 163.687 291.519 163.8C291.325 163.913 291.169 164.073 291.049 164.28C290.929 164.487 290.839 164.73 290.779 165.01C290.725 165.29 290.699 165.6 290.699 165.94V167.08C290.699 167.42 290.725 167.73 290.779 168.01C290.839 168.29 290.929 168.533 291.049 168.74C291.169 168.947 291.325 169.107 291.519 169.22C291.712 169.333 291.945 169.39 292.219 169.39ZM298.215 170.12C297.382 170.12 296.772 169.803 296.385 169.17C296.005 168.537 295.815 167.65 295.815 166.51C295.815 165.37 296.005 164.483 296.385 163.85C296.772 163.217 297.382 162.9 298.215 162.9C299.048 162.9 299.655 163.217 300.035 163.85C300.422 164.483 300.615 165.37 300.615 166.51C300.615 167.65 300.422 168.537 300.035 169.17C299.655 169.803 299.048 170.12 298.215 170.12ZM298.215 169.39C298.488 169.39 298.722 169.333 298.915 169.22C299.108 169.107 299.265 168.947 299.385 168.74C299.505 168.533 299.592 168.29 299.645 168.01C299.705 167.73 299.735 167.42 299.735 167.08V165.94C299.735 165.6 299.705 165.29 299.645 165.01C299.592 164.73 299.505 164.487 299.385 164.28C299.265 164.073 299.108 163.913 298.915 163.8C298.722 163.687 298.488 163.63 298.215 163.63C297.942 163.63 297.708 163.687 297.515 163.8C297.322 163.913 297.165 164.073 297.045 164.28C296.925 164.487 296.835 164.73 296.775 165.01C296.722 165.29 296.695 165.6 296.695 165.94V167.08C296.695 167.42 296.722 167.73 296.775 168.01C296.835 168.29 296.925 168.533 297.045 168.74C297.165 168.947 297.322 169.107 297.515 169.22C297.708 169.333 297.942 169.39 298.215 169.39Z" fill="black"/>
<path d="M35.2578 228.625L38.9766 237.906L42.6953 228.625H44.6406V240H43.1406V235.57L43.2812 230.789L39.5469 240H38.3984L34.6719 230.812L34.8203 235.57V240H33.3203V228.625H35.2578ZM50.5703 240.156C49.4245 240.156 48.4922 239.781 47.7734 239.031C47.0547 238.276 46.6953 237.268 46.6953 236.008V235.742C46.6953 234.904 46.8542 234.156 47.1719 233.5C47.4948 232.839 47.9427 232.323 48.5156 231.953C49.0938 231.578 49.7188 231.391 50.3906 231.391C51.4896 231.391 52.3438 231.753 52.9531 232.477C53.5625 233.201 53.8672 234.237 53.8672 235.586V236.188H48.1406C48.1615 237.021 48.4036 237.695 48.8672 238.211C49.3359 238.721 49.9297 238.977 50.6484 238.977C51.1589 238.977 51.5911 238.872 51.9453 238.664C52.2995 238.456 52.6094 238.18 52.875 237.836L53.7578 238.523C53.0495 239.612 51.987 240.156 50.5703 240.156ZM50.3906 232.578C49.8073 232.578 49.3177 232.792 48.9219 233.219C48.526 233.641 48.2812 234.234 48.1875 235H52.4219V234.891C52.3802 234.156 52.1823 233.589 51.8281 233.188C51.474 232.781 50.9948 232.578 50.3906 232.578ZM56.9141 231.547L56.9609 232.609C57.6068 231.797 58.4505 231.391 59.4922 231.391C61.2786 231.391 62.1797 232.398 62.1953 234.414V240H60.75V234.406C60.7448 233.797 60.6042 233.346 60.3281 233.055C60.0573 232.763 59.6328 232.617 59.0547 232.617C58.5859 232.617 58.1745 232.742 57.8203 232.992C57.4661 233.242 57.1901 233.57 56.9922 233.977V240H55.5469V231.547H56.9141ZM69.5938 239.164C69.0312 239.826 68.2057 240.156 67.1172 240.156C66.2161 240.156 65.5286 239.896 65.0547 239.375C64.5859 238.849 64.349 238.073 64.3438 237.047V231.547H65.7891V237.008C65.7891 238.289 66.3099 238.93 67.3516 238.93C68.4557 238.93 69.1901 238.518 69.5547 237.695V231.547H71V240H69.625L69.5938 239.164ZM65.1953 229.289C65.1953 229.055 65.2656 228.859 65.4062 228.703C65.5521 228.542 65.7656 228.461 66.0469 228.461C66.3281 228.461 66.5417 228.542 66.6875 228.703C66.8333 228.859 66.9062 229.055 66.9062 229.289C66.9062 229.523 66.8333 229.719 66.6875 229.875C66.5417 230.031 66.3281 230.109 66.0469 230.109C65.7656 230.109 65.5521 230.031 65.4062 229.875C65.2656 229.719 65.1953 229.523 65.1953 229.289ZM68.5547 229.305C68.5547 229.07 68.625 228.872 68.7656 228.711C68.9115 228.549 69.125 228.469 69.4062 228.469C69.6875 228.469 69.901 228.549 70.0469 228.711C70.1927 228.872 70.2656 229.07 70.2656 229.305C70.2656 229.539 70.1927 229.734 70.0469 229.891C69.901 230.047 69.6875 230.125 69.4062 230.125C69.125 230.125 68.9115 230.047 68.7656 229.891C68.625 229.734 68.5547 229.539 68.5547 229.305ZM73.1562 239.242C73.1562 238.992 73.2292 238.784 73.375 238.617C73.526 238.451 73.75 238.367 74.0469 238.367C74.3438 238.367 74.5677 238.451 74.7188 238.617C74.875 238.784 74.9531 238.992 74.9531 239.242C74.9531 239.482 74.875 239.682 74.7188 239.844C74.5677 240.005 74.3438 240.086 74.0469 240.086C73.75 240.086 73.526 240.005 73.375 239.844C73.2292 239.682 73.1562 239.482 73.1562 239.242ZM73.1641 232.344C73.1641 232.094 73.237 231.885 73.3828 231.719C73.5339 231.552 73.7578 231.469 74.0547 231.469C74.3516 231.469 74.5755 231.552 74.7266 231.719C74.8828 231.885 74.9609 232.094 74.9609 232.344C74.9609 232.583 74.8828 232.784 74.7266 232.945C74.5755 233.107 74.3516 233.188 74.0547 233.188C73.7578 233.188 73.5339 233.107 73.3828 232.945C73.237 232.784 73.1641 232.583 73.1641 232.344Z" fill="black"/>
<rect x="253" y="231" width="53" height="52" fill="white"/>
<path d="M253 231V230H252V231H253ZM306 231H307V230H306V231ZM306 283V284H307V283H306ZM253 283H252V284H253V283ZM253 232H306V230H253V232ZM305 231V283H307V231H305ZM306 282H253V284H306V282ZM254 283V231H252V283H254Z" fill="black"/>
<path d="M263.738 257.95H262.198L261.838 260H261.198L261.558 257.95H260.278V257.35H261.658L261.938 255.67H260.668V255.07H262.048L262.398 253.02H263.038L262.688 255.07H264.228L264.578 253.02H265.218L264.868 255.07H266.148V255.67H264.758L264.478 257.35H265.758V257.95H264.378L264.018 260H263.378L263.738 257.95ZM263.838 257.35L264.118 255.67H262.578L262.298 257.35H263.838ZM267.737 260V253.02H271.897V253.76H268.577V256.1H271.607V256.84H268.577V260H267.737ZM273.323 260V253.02H277.483V253.76H274.163V256.1H277.193V256.84H274.163V260H273.323ZM278.909 260V253.02H283.069V253.76H279.749V256.1H282.779V256.84H279.749V260H278.909ZM284.494 260V253.02H288.654V253.76H285.334V256.1H288.364V256.84H285.334V260H284.494ZM290.08 260V253.02H294.24V253.76H290.92V256.1H293.95V256.84H290.92V260H290.08ZM295.666 260V253.02H299.826V253.76H296.506V256.1H299.536V256.84H296.506V260H295.666Z" fill="black"/>
<path d="M35.2578 318.625L38.9766 327.906L42.6953 318.625H44.6406V330H43.1406V325.57L43.2812 320.789L39.5469 330H38.3984L34.6719 320.812L34.8203 325.57V330H33.3203V318.625H35.2578ZM50.5703 330.156C49.4245 330.156 48.4922 329.781 47.7734 329.031C47.0547 328.276 46.6953 327.268 46.6953 326.008V325.742C46.6953 324.904 46.8542 324.156 47.1719 323.5C47.4948 322.839 47.9427 322.323 48.5156 321.953C49.0938 321.578 49.7188 321.391 50.3906 321.391C51.4896 321.391 52.3438 321.753 52.9531 322.477C53.5625 323.201 53.8672 324.237 53.8672 325.586V326.188H48.1406C48.1615 327.021 48.4036 327.695 48.8672 328.211C49.3359 328.721 49.9297 328.977 50.6484 328.977C51.1589 328.977 51.5911 328.872 51.9453 328.664C52.2995 328.456 52.6094 328.18 52.875 327.836L53.7578 328.523C53.0495 329.612 51.987 330.156 50.5703 330.156ZM50.3906 322.578C49.8073 322.578 49.3177 322.792 48.9219 323.219C48.526 323.641 48.2812 324.234 48.1875 325H52.4219V324.891C52.3802 324.156 52.1823 323.589 51.8281 323.188C51.474 322.781 50.9948 322.578 50.3906 322.578ZM56.9141 321.547L56.9609 322.609C57.6068 321.797 58.4505 321.391 59.4922 321.391C61.2786 321.391 62.1797 322.398 62.1953 324.414V330H60.75V324.406C60.7448 323.797 60.6042 323.346 60.3281 323.055C60.0573 322.763 59.6328 322.617 59.0547 322.617C58.5859 322.617 58.1745 322.742 57.8203 322.992C57.4661 323.242 57.1901 323.57 56.9922 323.977V330H55.5469V321.547H56.9141ZM69.5938 329.164C69.0312 329.826 68.2057 330.156 67.1172 330.156C66.2161 330.156 65.5286 329.896 65.0547 329.375C64.5859 328.849 64.349 328.073 64.3438 327.047V321.547H65.7891V327.008C65.7891 328.289 66.3099 328.93 67.3516 328.93C68.4557 328.93 69.1901 328.518 69.5547 327.695V321.547H71V330H69.625L69.5938 329.164ZM65.1953 319.289C65.1953 319.055 65.2656 318.859 65.4062 318.703C65.5521 318.542 65.7656 318.461 66.0469 318.461C66.3281 318.461 66.5417 318.542 66.6875 318.703C66.8333 318.859 66.9062 319.055 66.9062 319.289C66.9062 319.523 66.8333 319.719 66.6875 319.875C66.5417 320.031 66.3281 320.109 66.0469 320.109C65.7656 320.109 65.5521 320.031 65.4062 319.875C65.2656 319.719 65.1953 319.523 65.1953 319.289ZM68.5547 319.305C68.5547 319.07 68.625 318.872 68.7656 318.711C68.9115 318.549 69.125 318.469 69.4062 318.469C69.6875 318.469 69.901 318.549 70.0469 318.711C70.1927 318.872 70.2656 319.07 70.2656 319.305C70.2656 319.539 70.1927 319.734 70.0469 319.891C69.901 320.047 69.6875 320.125 69.4062 320.125C69.125 320.125 68.9115 320.047 68.7656 319.891C68.625 319.734 68.5547 319.539 68.5547 319.305ZM73.1562 329.242C73.1562 328.992 73.2292 328.784 73.375 328.617C73.526 328.451 73.75 328.367 74.0469 328.367C74.3438 328.367 74.5677 328.451 74.7188 328.617C74.875 328.784 74.9531 328.992 74.9531 329.242C74.9531 329.482 74.875 329.682 74.7188 329.844C74.5677 330.005 74.3438 330.086 74.0469 330.086C73.75 330.086 73.526 330.005 73.375 329.844C73.2292 329.682 73.1562 329.482 73.1562 329.242ZM73.1641 322.344C73.1641 322.094 73.237 321.885 73.3828 321.719C73.5339 321.552 73.7578 321.469 74.0547 321.469C74.3516 321.469 74.5755 321.552 74.7266 321.719C74.8828 321.885 74.9609 322.094 74.9609 322.344C74.9609 322.583 74.8828 322.784 74.7266 322.945C74.5755 323.107 74.3516 323.188 74.0547 323.188C73.7578 323.188 73.5339 323.107 73.3828 322.945C73.237 322.784 73.1641 322.583 73.1641 322.344Z" fill="black"/>
<rect x="253" y="321" width="53" height="52" fill="#FFCC00"/>
<path d="M253 321V320H252V321H253ZM306 321H307V320H306V321ZM306 373V374H307V373H306ZM253 373H252V374H253V373ZM253 322H306V320H253V322ZM305 321V373H307V321H305ZM306 372H253V374H306V372ZM254 373V321H252V373H254Z" fill="black"/>
<path d="M262.849 347.95H261.309L260.949 350H260.309L260.669 347.95H259.389V347.35H260.769L261.049 345.67H259.779V345.07H261.159L261.509 343.02H262.149L261.799 345.07H263.339L263.689 343.02H264.329L263.979 345.07H265.259V345.67H263.869L263.589 347.35H264.869V347.95H263.489L263.129 350H262.489L262.849 347.95ZM262.949 347.35L263.229 345.67H261.689L261.409 347.35H262.949ZM266.848 350V343.02H271.008V343.76H267.688V346.1H270.718V346.84H267.688V350H266.848ZM272.434 350V343.02H276.594V343.76H273.274V346.1H276.304V346.84H273.274V350H272.434ZM280.314 350.12C279.427 350.12 278.737 349.82 278.244 349.22C277.75 348.613 277.504 347.723 277.504 346.55C277.504 345.377 277.75 344.477 278.244 343.85C278.737 343.217 279.427 342.9 280.314 342.9C280.9 342.9 281.39 343.033 281.784 343.3C282.184 343.567 282.494 343.943 282.714 344.43L282.034 344.84C281.894 344.48 281.68 344.193 281.394 343.98C281.107 343.76 280.747 343.65 280.314 343.65C280.014 343.65 279.744 343.707 279.504 343.82C279.27 343.933 279.07 344.097 278.904 344.31C278.744 344.517 278.62 344.767 278.534 345.06C278.447 345.347 278.404 345.67 278.404 346.03V347.07C278.404 347.79 278.57 348.353 278.904 348.76C279.237 349.167 279.707 349.37 280.314 349.37C280.76 349.37 281.134 349.257 281.434 349.03C281.734 348.797 281.954 348.49 282.094 348.11L282.764 348.53C282.544 349.023 282.227 349.413 281.814 349.7C281.4 349.98 280.9 350.12 280.314 350.12ZM286.398 350.12C285.511 350.12 284.821 349.82 284.328 349.22C283.834 348.613 283.588 347.723 283.588 346.55C283.588 345.377 283.834 344.477 284.328 343.85C284.821 343.217 285.511 342.9 286.398 342.9C286.984 342.9 287.474 343.033 287.868 343.3C288.268 343.567 288.578 343.943 288.798 344.43L288.118 344.84C287.978 344.48 287.764 344.193 287.478 343.98C287.191 343.76 286.831 343.65 286.398 343.65C286.098 343.65 285.828 343.707 285.588 343.82C285.354 343.933 285.154 344.097 284.988 344.31C284.828 344.517 284.704 344.767 284.618 345.06C284.531 345.347 284.488 345.67 284.488 346.03V347.07C284.488 347.79 284.654 348.353 284.988 348.76C285.321 349.167 285.791 349.37 286.398 349.37C286.844 349.37 287.218 349.257 287.518 349.03C287.818 348.797 288.038 348.49 288.178 348.11L288.848 348.53C288.628 349.023 288.311 349.413 287.898 349.7C287.484 349.98 286.984 350.12 286.398 350.12ZM292.219 350.12C291.385 350.12 290.775 349.803 290.389 349.17C290.009 348.537 289.819 347.65 289.819 346.51C289.819 345.37 290.009 344.483 290.389 343.85C290.775 343.217 291.385 342.9 292.219 342.9C293.052 342.9 293.659 343.217 294.039 343.85C294.425 344.483 294.619 345.37 294.619 346.51C294.619 347.65 294.425 348.537 294.039 349.17C293.659 349.803 293.052 350.12 292.219 350.12ZM292.219 349.39C292.492 349.39 292.725 349.333 292.919 349.22C293.112 349.107 293.269 348.947 293.389 348.74C293.509 348.533 293.595 348.29 293.649 348.01C293.709 347.73 293.739 347.42 293.739 347.08V345.94C293.739 345.6 293.709 345.29 293.649 345.01C293.595 344.73 293.509 344.487 293.389 344.28C293.269 344.073 293.112 343.913 292.919 343.8C292.725 343.687 292.492 343.63 292.219 343.63C291.945 343.63 291.712 343.687 291.519 343.8C291.325 343.913 291.169 344.073 291.049 344.28C290.929 344.487 290.839 344.73 290.779 345.01C290.725 345.29 290.699 345.6 290.699 345.94V347.08C290.699 347.42 290.725 347.73 290.779 348.01C290.839 348.29 290.929 348.533 291.049 348.74C291.169 348.947 291.325 349.107 291.519 349.22C291.712 349.333 291.945 349.39 292.219 349.39ZM298.215 350.12C297.382 350.12 296.772 349.803 296.385 349.17C296.005 348.537 295.815 347.65 295.815 346.51C295.815 345.37 296.005 344.483 296.385 343.85C296.772 343.217 297.382 342.9 298.215 342.9C299.048 342.9 299.655 343.217 300.035 343.85C300.422 344.483 300.615 345.37 300.615 346.51C300.615 347.65 300.422 348.537 300.035 349.17C299.655 349.803 299.048 350.12 298.215 350.12ZM298.215 349.39C298.488 349.39 298.722 349.333 298.915 349.22C299.108 349.107 299.265 348.947 299.385 348.74C299.505 348.533 299.592 348.29 299.645 348.01C299.705 347.73 299.735 347.42 299.735 347.08V345.94C299.735 345.6 299.705 345.29 299.645 345.01C299.592 344.73 299.505 344.487 299.385 344.28C299.265 344.073 299.108 343.913 298.915 343.8C298.722 343.687 298.488 343.63 298.215 343.63C297.942 343.63 297.708 343.687 297.515 343.8C297.322 343.913 297.165 344.073 297.045 344.28C296.925 344.487 296.835 344.73 296.775 345.01C296.722 345.29 296.695 345.6 296.695 345.94V347.08C296.695 347.42 296.722 347.73 296.775 348.01C296.835 348.29 296.925 348.533 297.045 348.74C297.165 348.947 297.322 349.107 297.515 349.22C297.708 349.333 297.942 349.39 298.215 349.39Z" fill="black"/>
<path d="M30.8442 346.249C30.8442 345.292 30.9712 344.374 31.2251 343.494C31.4832 342.613 31.8662 341.814 32.374 341.094C32.8818 340.375 33.4087 339.867 33.9546 339.571L34.1958 340.345C33.578 340.819 33.0701 341.543 32.6724 342.516C32.2788 343.489 32.063 344.579 32.0249 345.785L32.0186 346.325C32.0186 347.958 32.3169 349.376 32.9136 350.578C33.2733 351.297 33.7007 351.86 34.1958 352.266L33.9546 352.983C33.3918 352.67 32.8543 352.146 32.3423 351.409C31.3436 349.97 30.8442 348.25 30.8442 346.249ZM37.5981 348.407L39.2993 343.132H40.499L38.0361 350H37.1411L34.6528 343.132H35.8525L37.5981 348.407ZM41.2163 346.502C41.2163 345.83 41.3475 345.224 41.6099 344.687C41.8765 344.15 42.2446 343.735 42.7144 343.443C43.1883 343.151 43.7279 343.005 44.333 343.005C45.2682 343.005 46.0236 343.329 46.5991 343.976C47.1789 344.624 47.4688 345.485 47.4688 346.56V346.642C47.4688 347.311 47.3397 347.912 47.0815 348.445C46.8276 348.974 46.4616 349.386 45.9834 349.683C45.5094 349.979 44.9635 350.127 44.3457 350.127C43.4147 350.127 42.6593 349.803 42.0796 349.156C41.5041 348.508 41.2163 347.651 41.2163 346.585V346.502ZM42.397 346.642C42.397 347.404 42.5726 348.015 42.9238 348.477C43.2793 348.938 43.7533 349.168 44.3457 349.168C44.9424 349.168 45.4163 348.936 45.7676 348.47C46.1188 348 46.2944 347.345 46.2944 346.502C46.2944 345.749 46.1146 345.14 45.7549 344.674C45.3994 344.205 44.9255 343.97 44.333 343.97C43.7533 343.97 43.2856 344.2 42.9302 344.662C42.5747 345.123 42.397 345.783 42.397 346.642ZM50.0522 343.132L50.0903 343.995C50.6151 343.335 51.3006 343.005 52.147 343.005C53.5985 343.005 54.3306 343.824 54.3433 345.461V350H53.1689V345.455C53.1647 344.96 53.0505 344.594 52.8262 344.357C52.6061 344.12 52.2612 344.001 51.7915 344.001C51.4106 344.001 51.0763 344.103 50.7886 344.306C50.5008 344.509 50.2765 344.776 50.1157 345.106V350H48.9414V343.132H50.0522ZM60.2148 340.129L60.8877 340.586C60.4941 341.124 60.291 341.704 60.2783 342.326V343.189H59.1104V342.453C59.1104 342.021 59.2119 341.594 59.415 341.17C59.6224 340.747 59.889 340.4 60.2148 340.129ZM62.2144 340.129L62.8872 340.586C62.4937 341.124 62.2905 341.704 62.2778 342.326V343.189H61.1099V342.453C61.1099 342.021 61.2114 341.594 61.4146 341.17C61.6219 340.747 61.8885 340.4 62.2144 340.129ZM71.2217 350H69.9966V345.728H65.3374V350H64.1187V340.758H65.3374V344.731H69.9966V340.758H71.2217V350ZM72.8911 346.502C72.8911 345.83 73.0223 345.224 73.2847 344.687C73.5513 344.15 73.9194 343.735 74.3892 343.443C74.8631 343.151 75.4027 343.005 76.0078 343.005C76.943 343.005 77.6984 343.329 78.2739 343.976C78.8537 344.624 79.1436 345.485 79.1436 346.56V346.642C79.1436 347.311 79.0145 347.912 78.7563 348.445C78.5024 348.974 78.1364 349.386 77.6582 349.683C77.1842 349.979 76.6383 350.127 76.0205 350.127C75.0895 350.127 74.3341 349.803 73.7544 349.156C73.1789 348.508 72.8911 347.651 72.8911 346.585V346.502ZM74.0718 346.642C74.0718 347.404 74.2474 348.015 74.5986 348.477C74.9541 348.938 75.4281 349.168 76.0205 349.168C76.6172 349.168 77.0911 348.936 77.4424 348.47C77.7936 348 77.9692 347.345 77.9692 346.502C77.9692 345.749 77.7894 345.14 77.4297 344.674C77.0742 344.205 76.6003 343.97 76.0078 343.97C75.4281 343.97 74.9604 344.2 74.605 344.662C74.2495 345.123 74.0718 345.783 74.0718 346.642ZM81.7207 343.132L81.7524 343.894C82.256 343.301 82.9352 343.005 83.79 343.005C84.7507 343.005 85.4045 343.373 85.7515 344.109C85.98 343.779 86.2762 343.513 86.6401 343.31C87.0083 343.106 87.4421 343.005 87.9414 343.005C89.4479 343.005 90.2139 343.803 90.2393 345.398V350H89.0649V345.468C89.0649 344.977 88.9528 344.611 88.7285 344.37C88.5042 344.124 88.1276 344.001 87.5986 344.001C87.1628 344.001 86.8009 344.133 86.5132 344.395C86.2254 344.653 86.0583 345.002 86.0117 345.442V350H84.8311V345.5C84.8311 344.501 84.3423 344.001 83.3647 344.001C82.5946 344.001 82.0677 344.329 81.7842 344.985V350H80.6099V343.132H81.7207ZM94.8667 350.127C93.9357 350.127 93.1782 349.822 92.5942 349.213C92.0103 348.599 91.7183 347.78 91.7183 346.756V346.541C91.7183 345.859 91.8473 345.252 92.1055 344.719C92.3678 344.181 92.7318 343.762 93.1973 343.462C93.667 343.157 94.1748 343.005 94.7207 343.005C95.6136 343.005 96.3076 343.299 96.8027 343.887C97.2979 344.475 97.5454 345.318 97.5454 346.414V346.902H92.8926C92.9095 347.579 93.1063 348.127 93.4829 348.546C93.8638 348.961 94.3462 349.168 94.9302 349.168C95.3449 349.168 95.6961 349.084 95.9839 348.915C96.2716 348.745 96.5234 348.521 96.7393 348.242L97.4565 348.8C96.881 349.685 96.0177 350.127 94.8667 350.127ZM94.7207 343.97C94.2467 343.97 93.849 344.143 93.5273 344.49C93.2057 344.833 93.0068 345.315 92.9307 345.938H96.3711V345.849C96.3372 345.252 96.1764 344.791 95.8887 344.465C95.6009 344.135 95.2116 343.97 94.7207 343.97ZM98.98 343.36L98.3135 342.903C98.707 342.353 98.9102 341.773 98.9229 341.164V340.25H100.084V341.075C100.08 341.498 99.9744 341.922 99.7671 342.345C99.564 342.764 99.3016 343.102 98.98 343.36ZM100.929 343.36L100.262 342.903C100.656 342.353 100.859 341.773 100.872 341.164V340.25H102.033V341.075C102.029 341.498 101.923 341.922 101.716 342.345C101.513 342.764 101.25 343.102 100.929 343.36ZM107.968 350H106.794V343.132H107.968V350ZM106.699 341.31C106.699 341.12 106.756 340.959 106.87 340.828C106.989 340.696 107.162 340.631 107.391 340.631C107.619 340.631 107.793 340.696 107.911 340.828C108.03 340.959 108.089 341.12 108.089 341.31C108.089 341.5 108.03 341.659 107.911 341.786C107.793 341.913 107.619 341.977 107.391 341.977C107.162 341.977 106.989 341.913 106.87 341.786C106.756 341.659 106.699 341.5 106.699 341.31ZM110.964 343.132L111.002 343.995C111.527 343.335 112.213 343.005 113.059 343.005C114.511 343.005 115.243 343.824 115.255 345.461V350H114.081V345.455C114.077 344.96 113.963 344.594 113.738 344.357C113.518 344.12 113.173 344.001 112.704 344.001C112.323 344.001 111.988 344.103 111.701 344.306C111.413 344.509 111.189 344.776 111.028 345.106V350H109.854V343.132H110.964ZM121.025 348.178C121.025 347.861 120.905 347.615 120.664 347.442C120.427 347.264 120.01 347.112 119.413 346.985C118.821 346.858 118.349 346.706 117.998 346.528C117.651 346.35 117.392 346.139 117.223 345.893C117.058 345.648 116.976 345.356 116.976 345.017C116.976 344.454 117.213 343.978 117.687 343.589C118.165 343.2 118.774 343.005 119.515 343.005C120.293 343.005 120.924 343.206 121.406 343.608C121.893 344.01 122.136 344.524 122.136 345.15H120.956C120.956 344.829 120.818 344.552 120.543 344.319C120.272 344.086 119.929 343.97 119.515 343.97C119.087 343.97 118.753 344.063 118.512 344.249C118.271 344.435 118.15 344.679 118.15 344.979C118.15 345.263 118.262 345.476 118.486 345.62C118.711 345.764 119.115 345.902 119.699 346.033C120.287 346.164 120.763 346.32 121.127 346.502C121.491 346.684 121.76 346.904 121.933 347.163C122.111 347.417 122.2 347.728 122.2 348.096C122.2 348.709 121.954 349.202 121.463 349.575C120.972 349.943 120.336 350.127 119.553 350.127C119.003 350.127 118.516 350.03 118.093 349.835C117.67 349.64 117.337 349.369 117.096 349.022C116.859 348.671 116.741 348.292 116.741 347.886H117.915C117.936 348.28 118.093 348.593 118.385 348.826C118.681 349.054 119.07 349.168 119.553 349.168C119.997 349.168 120.353 349.08 120.619 348.902C120.89 348.72 121.025 348.479 121.025 348.178ZM127.138 350V340.758H130.16C131.163 340.758 131.916 340.965 132.419 341.38C132.927 341.795 133.181 342.408 133.181 343.221C133.181 343.652 133.058 344.035 132.813 344.37C132.568 344.7 132.233 344.956 131.81 345.138C132.309 345.277 132.703 345.544 132.991 345.938C133.283 346.327 133.429 346.792 133.429 347.334C133.429 348.163 133.16 348.815 132.623 349.289C132.085 349.763 131.326 350 130.344 350H127.138ZM128.357 345.677V349.003H130.369C130.936 349.003 131.383 348.857 131.708 348.565C132.039 348.269 132.204 347.863 132.204 347.347C132.204 346.234 131.598 345.677 130.388 345.677H128.357ZM128.357 344.7H130.198C130.731 344.7 131.156 344.566 131.474 344.3C131.795 344.033 131.956 343.671 131.956 343.214C131.956 342.707 131.808 342.338 131.512 342.11C131.215 341.877 130.765 341.761 130.16 341.761H128.357V344.7ZM136.33 350H135.155V343.132H136.33V350ZM135.06 341.31C135.06 341.12 135.117 340.959 135.231 340.828C135.35 340.696 135.523 340.631 135.752 340.631C135.98 340.631 136.154 340.696 136.272 340.828C136.391 340.959 136.45 341.12 136.45 341.31C136.45 341.5 136.391 341.659 136.272 341.786C136.154 341.913 135.98 341.977 135.752 341.977C135.523 341.977 135.35 341.913 135.231 341.786C135.117 341.659 135.06 341.5 135.06 341.31ZM139.491 350H138.316V340.25H139.491V350ZM141.09 346.509C141.09 345.455 141.34 344.609 141.839 343.97C142.339 343.326 142.993 343.005 143.801 343.005C144.605 343.005 145.242 343.28 145.711 343.83V340.25H146.886V350H145.807L145.75 349.264C145.28 349.839 144.626 350.127 143.788 350.127C142.993 350.127 142.343 349.801 141.839 349.149C141.34 348.498 141.09 347.647 141.09 346.598V346.509ZM142.265 346.642C142.265 347.421 142.425 348.03 142.747 348.47C143.069 348.91 143.513 349.13 144.08 349.13C144.825 349.13 145.369 348.796 145.711 348.127V344.973C145.36 344.325 144.821 344.001 144.093 344.001C143.517 344.001 143.069 344.224 142.747 344.668C142.425 345.112 142.265 345.77 142.265 346.642ZM151.424 346.312C151.424 347.256 151.299 348.161 151.05 349.029C150.804 349.892 150.426 350.69 149.914 351.422C149.406 352.154 148.873 352.674 148.314 352.983L148.066 352.266C148.718 351.767 149.241 350.992 149.634 349.943C150.032 348.889 150.235 347.721 150.244 346.439V346.236C150.244 345.347 150.151 344.522 149.964 343.76C149.778 342.994 149.518 342.309 149.184 341.704C148.854 341.098 148.481 340.627 148.066 340.288L148.314 339.571C148.873 339.88 149.404 340.396 149.907 341.12C150.415 341.843 150.794 342.641 151.043 343.513C151.297 344.384 151.424 345.318 151.424 346.312Z" fill="black"/>
<path d="M320.844 346.249C320.844 345.292 320.971 344.374 321.225 343.494C321.483 342.613 321.866 341.814 322.374 341.094C322.882 340.375 323.409 339.867 323.955 339.571L324.196 340.345C323.578 340.819 323.07 341.543 322.672 342.516C322.279 343.489 322.063 344.579 322.025 345.785L322.019 346.325C322.019 347.958 322.317 349.376 322.914 350.578C323.273 351.297 323.701 351.86 324.196 352.266L323.955 352.983C323.392 352.67 322.854 352.146 322.342 351.409C321.344 349.97 320.844 348.25 320.844 346.249ZM328.703 348.381L331.343 340.758H332.676L329.249 350H328.169L324.748 340.758H326.075L328.703 348.381ZM336.307 350.127C335.376 350.127 334.619 349.822 334.035 349.213C333.451 348.599 333.159 347.78 333.159 346.756V346.541C333.159 345.859 333.288 345.252 333.546 344.719C333.808 344.181 334.172 343.762 334.638 343.462C335.107 343.157 335.615 343.005 336.161 343.005C337.054 343.005 337.748 343.299 338.243 343.887C338.738 344.475 338.986 345.318 338.986 346.414V346.902H334.333C334.35 347.579 334.547 348.127 334.923 348.546C335.304 348.961 335.787 349.168 336.371 349.168C336.785 349.168 337.137 349.084 337.424 348.915C337.712 348.745 337.964 348.521 338.18 348.242L338.897 348.8C338.321 349.685 337.458 350.127 336.307 350.127ZM336.161 343.97C335.687 343.97 335.289 344.143 334.968 344.49C334.646 344.833 334.447 345.315 334.371 345.938H337.812V345.849C337.778 345.252 337.617 344.791 337.329 344.465C337.041 344.135 336.652 343.97 336.161 343.97ZM343.67 344.186C343.493 344.156 343.3 344.141 343.093 344.141C342.323 344.141 341.8 344.469 341.525 345.125V350H340.351V343.132H341.493L341.512 343.925C341.897 343.312 342.443 343.005 343.15 343.005C343.378 343.005 343.552 343.035 343.67 343.094V344.186ZM346.032 350H344.857V340.25H346.032V350ZM352.157 350C352.09 349.865 352.035 349.623 351.992 349.276C351.446 349.843 350.795 350.127 350.037 350.127C349.36 350.127 348.804 349.937 348.368 349.556C347.936 349.171 347.72 348.684 347.72 348.096C347.72 347.381 347.991 346.826 348.533 346.433C349.079 346.035 349.845 345.836 350.831 345.836H351.973V345.296C351.973 344.886 351.85 344.56 351.605 344.319C351.36 344.073 350.998 343.951 350.52 343.951C350.101 343.951 349.749 344.056 349.466 344.268C349.182 344.48 349.041 344.736 349.041 345.036H347.86C347.86 344.693 347.98 344.363 348.222 344.046C348.467 343.724 348.797 343.47 349.212 343.284C349.631 343.098 350.09 343.005 350.589 343.005C351.381 343.005 352.001 343.204 352.449 343.602C352.898 343.995 353.131 344.539 353.147 345.233V348.394C353.147 349.025 353.228 349.526 353.389 349.898V350H352.157ZM350.208 349.105C350.577 349.105 350.926 349.01 351.256 348.819C351.586 348.629 351.825 348.381 351.973 348.077V346.667H351.053C349.614 346.667 348.895 347.089 348.895 347.931C348.895 348.299 349.017 348.587 349.263 348.794C349.508 349.001 349.823 349.105 350.208 349.105ZM359.229 349.321C358.771 349.858 358.101 350.127 357.216 350.127C356.484 350.127 355.926 349.915 355.541 349.492C355.16 349.065 354.967 348.434 354.963 347.601V343.132H356.137V347.569C356.137 348.61 356.56 349.13 357.407 349.13C358.304 349.13 358.901 348.796 359.197 348.127V343.132H360.371V350H359.254L359.229 349.321ZM362.739 350V344.04H361.653V343.132H362.739V342.427C362.739 341.691 362.936 341.122 363.329 340.72C363.723 340.318 364.279 340.117 364.999 340.117C365.269 340.117 365.538 340.153 365.805 340.225L365.741 341.177C365.542 341.139 365.331 341.12 365.106 341.12C364.726 341.12 364.431 341.232 364.224 341.456C364.017 341.676 363.913 341.993 363.913 342.408V343.132H365.379V344.04H363.913V350H362.739ZM372.171 348.407L373.873 343.132H375.072L372.609 350H371.714L369.226 343.132H370.426L372.171 348.407ZM375.79 346.502C375.79 345.83 375.921 345.224 376.183 344.687C376.45 344.15 376.818 343.735 377.288 343.443C377.762 343.151 378.301 343.005 378.906 343.005C379.841 343.005 380.597 343.329 381.172 343.976C381.752 344.624 382.042 345.485 382.042 346.56V346.642C382.042 347.311 381.913 347.912 381.655 348.445C381.401 348.974 381.035 349.386 380.557 349.683C380.083 349.979 379.537 350.127 378.919 350.127C377.988 350.127 377.233 349.803 376.653 349.156C376.077 348.508 375.79 347.651 375.79 346.585V346.502ZM376.97 346.642C376.97 347.404 377.146 348.015 377.497 348.477C377.853 348.938 378.326 349.168 378.919 349.168C379.516 349.168 379.99 348.936 380.341 348.47C380.692 348 380.868 347.345 380.868 346.502C380.868 345.749 380.688 345.14 380.328 344.674C379.973 344.205 379.499 343.97 378.906 343.97C378.326 343.97 377.859 344.2 377.503 344.662C377.148 345.123 376.97 345.783 376.97 346.642ZM384.625 343.132L384.664 343.995C385.188 343.335 385.874 343.005 386.72 343.005C388.172 343.005 388.904 343.824 388.917 345.461V350H387.742V345.455C387.738 344.96 387.624 344.594 387.399 344.357C387.179 344.12 386.834 344.001 386.365 344.001C385.984 344.001 385.65 344.103 385.362 344.306C385.074 344.509 384.85 344.776 384.689 345.106V350H383.515V343.132H384.625ZM397.651 350H396.47V342.173L394.103 343.043V341.977L397.467 340.713H397.651V350ZM406.887 346.058C406.887 347.433 406.652 348.455 406.182 349.124C405.712 349.793 404.978 350.127 403.979 350.127C402.993 350.127 402.264 349.801 401.79 349.149C401.316 348.493 401.07 347.516 401.053 346.217V344.649C401.053 343.291 401.288 342.281 401.758 341.621C402.228 340.961 402.964 340.631 403.967 340.631C404.961 340.631 405.693 340.95 406.163 341.589C406.633 342.224 406.874 343.206 406.887 344.535V346.058ZM405.712 344.452C405.712 343.458 405.573 342.734 405.293 342.281C405.014 341.824 404.572 341.596 403.967 341.596C403.366 341.596 402.928 341.822 402.653 342.275C402.378 342.728 402.236 343.424 402.228 344.363V346.242C402.228 347.241 402.371 347.979 402.659 348.458C402.951 348.931 403.391 349.168 403.979 349.168C404.559 349.168 404.989 348.944 405.268 348.496C405.552 348.047 405.7 347.34 405.712 346.375V344.452ZM414.187 346.058C414.187 347.433 413.952 348.455 413.482 349.124C413.012 349.793 412.278 350.127 411.279 350.127C410.293 350.127 409.563 349.801 409.089 349.149C408.615 348.493 408.37 347.516 408.353 346.217V344.649C408.353 343.291 408.588 342.281 409.058 341.621C409.527 340.961 410.264 340.631 411.267 340.631C412.261 340.631 412.993 340.95 413.463 341.589C413.933 342.224 414.174 343.206 414.187 344.535V346.058ZM413.012 344.452C413.012 343.458 412.873 342.734 412.593 342.281C412.314 341.824 411.872 341.596 411.267 341.596C410.666 341.596 410.228 341.822 409.953 342.275C409.678 342.728 409.536 343.424 409.527 344.363V346.242C409.527 347.241 409.671 347.979 409.959 348.458C410.251 348.931 410.691 349.168 411.279 349.168C411.859 349.168 412.289 348.944 412.568 348.496C412.851 348.047 413 347.34 413.012 346.375V344.452ZM415.589 342.535C415.589 341.981 415.765 341.524 416.116 341.164C416.472 340.804 416.927 340.625 417.481 340.625C418.044 340.625 418.499 340.806 418.846 341.17C419.197 341.53 419.373 341.998 419.373 342.573V343.024C419.373 343.583 419.195 344.04 418.839 344.395C418.488 344.746 418.04 344.922 417.494 344.922C416.944 344.922 416.489 344.746 416.129 344.395C415.769 344.04 415.589 343.568 415.589 342.979V342.535ZM416.465 343.024C416.465 343.354 416.558 343.627 416.745 343.843C416.931 344.054 417.181 344.16 417.494 344.16C417.794 344.16 418.035 344.056 418.217 343.849C418.403 343.642 418.497 343.358 418.497 342.999V342.535C418.497 342.205 418.406 341.932 418.224 341.716C418.042 341.5 417.794 341.393 417.481 341.393C417.168 341.393 416.92 341.5 416.738 341.716C416.556 341.932 416.465 342.214 416.465 342.561V343.024ZM420.09 347.734C420.09 347.18 420.265 346.725 420.617 346.369C420.972 346.009 421.427 345.83 421.981 345.83C422.536 345.83 422.991 346.007 423.346 346.363C423.702 346.718 423.879 347.19 423.879 347.778V348.229C423.879 348.783 423.702 349.24 423.346 349.6C422.995 349.956 422.544 350.133 421.994 350.133C421.444 350.133 420.989 349.958 420.629 349.606C420.27 349.251 420.09 348.779 420.09 348.191V347.734ZM420.966 348.229C420.966 348.563 421.059 348.838 421.245 349.054C421.431 349.266 421.681 349.372 421.994 349.372C422.299 349.372 422.542 349.268 422.724 349.061C422.906 348.849 422.997 348.563 422.997 348.204V347.734C422.997 347.4 422.904 347.127 422.718 346.915C422.536 346.703 422.29 346.598 421.981 346.598C421.681 346.598 421.436 346.703 421.245 346.915C421.059 347.122 420.966 347.404 420.966 347.759V348.229ZM417.76 349.302L417.094 348.883L421.607 341.659L422.273 342.078L417.76 349.302ZM429.662 349.042H433.68V350H428.228V349.137L432.017 344.103H428.285V343.132H433.49V343.963L429.662 349.042ZM439.247 349.321C438.79 349.858 438.119 350.127 437.235 350.127C436.503 350.127 435.944 349.915 435.559 349.492C435.178 349.065 434.986 348.434 434.981 347.601V343.132H436.156V347.569C436.156 348.61 436.579 349.13 437.425 349.13C438.322 349.13 438.919 348.796 439.215 348.127V343.132H440.39V350H439.272L439.247 349.321ZM451.079 346.058C451.079 347.433 450.844 348.455 450.375 349.124C449.905 349.793 449.171 350.127 448.172 350.127C447.186 350.127 446.456 349.801 445.982 349.149C445.508 348.493 445.263 347.516 445.246 346.217V344.649C445.246 343.291 445.48 342.281 445.95 341.621C446.42 340.961 447.156 340.631 448.159 340.631C449.154 340.631 449.886 340.95 450.355 341.589C450.825 342.224 451.066 343.206 451.079 344.535V346.058ZM449.905 344.452C449.905 343.458 449.765 342.734 449.486 342.281C449.207 341.824 448.764 341.596 448.159 341.596C447.558 341.596 447.12 341.822 446.845 342.275C446.57 342.728 446.428 343.424 446.42 344.363V346.242C446.42 347.241 446.564 347.979 446.852 348.458C447.144 348.931 447.584 349.168 448.172 349.168C448.752 349.168 449.181 348.944 449.46 348.496C449.744 348.047 449.892 347.34 449.905 346.375V344.452ZM452.482 342.535C452.482 341.981 452.658 341.524 453.009 341.164C453.364 340.804 453.819 340.625 454.374 340.625C454.936 340.625 455.391 340.806 455.738 341.17C456.09 341.53 456.265 341.998 456.265 342.573V343.024C456.265 343.583 456.087 344.04 455.732 344.395C455.381 344.746 454.932 344.922 454.386 344.922C453.836 344.922 453.381 344.746 453.021 344.395C452.662 344.04 452.482 343.568 452.482 342.979V342.535ZM453.358 343.024C453.358 343.354 453.451 343.627 453.637 343.843C453.823 344.054 454.073 344.16 454.386 344.16C454.687 344.16 454.928 344.056 455.11 343.849C455.296 343.642 455.389 343.358 455.389 342.999V342.535C455.389 342.205 455.298 341.932 455.116 341.716C454.934 341.5 454.687 341.393 454.374 341.393C454.06 341.393 453.813 341.5 453.631 341.716C453.449 341.932 453.358 342.214 453.358 342.561V343.024ZM456.982 347.734C456.982 347.18 457.158 346.725 457.509 346.369C457.865 346.009 458.32 345.83 458.874 345.83C459.428 345.83 459.883 346.007 460.239 346.363C460.594 346.718 460.772 347.19 460.772 347.778V348.229C460.772 348.783 460.594 349.24 460.239 349.6C459.888 349.956 459.437 350.133 458.887 350.133C458.337 350.133 457.882 349.958 457.522 349.606C457.162 349.251 456.982 348.779 456.982 348.191V347.734ZM457.858 348.229C457.858 348.563 457.951 348.838 458.138 349.054C458.324 349.266 458.574 349.372 458.887 349.372C459.191 349.372 459.435 349.268 459.617 349.061C459.799 348.849 459.89 348.563 459.89 348.204V347.734C459.89 347.4 459.797 347.127 459.61 346.915C459.428 346.703 459.183 346.598 458.874 346.598C458.574 346.598 458.328 346.703 458.138 346.915C457.951 347.122 457.858 347.404 457.858 347.759V348.229ZM454.653 349.302L453.986 348.883L458.5 341.659L459.166 342.078L454.653 349.302ZM464.936 346.312C464.936 347.256 464.811 348.161 464.562 349.029C464.316 349.892 463.937 350.69 463.425 351.422C462.917 352.154 462.384 352.674 461.826 352.983L461.578 352.266C462.23 351.767 462.752 350.992 463.146 349.943C463.544 348.889 463.747 347.721 463.755 346.439V346.236C463.755 345.347 463.662 344.522 463.476 343.76C463.29 342.994 463.03 342.309 462.695 341.704C462.365 341.098 461.993 340.627 461.578 340.288L461.826 339.571C462.384 339.88 462.915 340.396 463.419 341.12C463.927 341.843 464.306 342.641 464.555 343.513C464.809 344.384 464.936 345.318 464.936 346.312Z" fill="black"/>
<path d="M41.0625 420H39.5547V414.742H33.8203V420H32.3203V408.625H33.8203V413.516H39.5547V408.625H41.0625V420ZM43.1172 415.695C43.1172 414.867 43.2786 414.122 43.6016 413.461C43.9297 412.799 44.3828 412.289 44.9609 411.93C45.5443 411.57 46.2083 411.391 46.9531 411.391C48.1042 411.391 49.0339 411.789 49.7422 412.586C50.4557 413.383 50.8125 414.443 50.8125 415.766V415.867C50.8125 416.69 50.6536 417.43 50.3359 418.086C50.0234 418.737 49.5729 419.245 48.9844 419.609C48.401 419.974 47.7292 420.156 46.9688 420.156C45.8229 420.156 44.8932 419.758 44.1797 418.961C43.4714 418.164 43.1172 417.109 43.1172 415.797V415.695ZM44.5703 415.867C44.5703 416.805 44.7865 417.557 45.2188 418.125C45.6562 418.693 46.2396 418.977 46.9688 418.977C47.7031 418.977 48.2865 418.69 48.7188 418.117C49.151 417.539 49.3672 416.732 49.3672 415.695C49.3672 414.768 49.1458 414.018 48.7031 413.445C48.2656 412.867 47.6823 412.578 46.9531 412.578C46.2396 412.578 45.6641 412.862 45.2266 413.43C44.7891 413.997 44.5703 414.81 44.5703 415.867ZM53.9844 411.547L54.0234 412.484C54.6432 411.755 55.4792 411.391 56.5312 411.391C57.7135 411.391 58.5182 411.844 58.9453 412.75C59.2266 412.344 59.5911 412.016 60.0391 411.766C60.4922 411.516 61.026 411.391 61.6406 411.391C63.4948 411.391 64.4375 412.372 64.4688 414.336V420H63.0234V414.422C63.0234 413.818 62.8854 413.367 62.6094 413.07C62.3333 412.768 61.8698 412.617 61.2188 412.617C60.6823 412.617 60.237 412.779 59.8828 413.102C59.5286 413.419 59.3229 413.849 59.2656 414.391V420H57.8125V414.461C57.8125 413.232 57.2109 412.617 56.0078 412.617C55.0599 412.617 54.4115 413.021 54.0625 413.828V420H52.6172V411.547H53.9844ZM70.1641 420.156C69.0182 420.156 68.0859 419.781 67.3672 419.031C66.6484 418.276 66.2891 417.268 66.2891 416.008V415.742C66.2891 414.904 66.4479 414.156 66.7656 413.5C67.0885 412.839 67.5365 412.323 68.1094 411.953C68.6875 411.578 69.3125 411.391 69.9844 411.391C71.0833 411.391 71.9375 411.753 72.5469 412.477C73.1562 413.201 73.4609 414.237 73.4609 415.586V416.188H67.7344C67.7552 417.021 67.9974 417.695 68.4609 418.211C68.9297 418.721 69.5234 418.977 70.2422 418.977C70.7526 418.977 71.1849 418.872 71.5391 418.664C71.8932 418.456 72.2031 418.18 72.4688 417.836L73.3516 418.523C72.6432 419.612 71.5807 420.156 70.1641 420.156ZM69.9844 412.578C69.401 412.578 68.9115 412.792 68.5156 413.219C68.1198 413.641 67.875 414.234 67.7812 415H72.0156V414.891C71.974 414.156 71.776 413.589 71.4219 413.188C71.0677 412.781 70.5885 412.578 69.9844 412.578ZM82.1172 415.758H78.3047V414.578H82.1172V415.758ZM88.6484 414.922L83.4844 412.898V411.414L90.1562 414.367V415.508L83.4844 418.469V416.969L88.6484 414.922ZM97.8125 413.609H98.8984C99.5807 413.599 100.117 413.419 100.508 413.07C100.898 412.721 101.094 412.25 101.094 411.656C101.094 410.323 100.43 409.656 99.1016 409.656C98.4766 409.656 97.9766 409.836 97.6016 410.195C97.2318 410.549 97.0469 411.021 97.0469 411.609H95.6016C95.6016 410.708 95.9297 409.961 96.5859 409.367C97.2474 408.768 98.0859 408.469 99.1016 408.469C100.174 408.469 101.016 408.753 101.625 409.32C102.234 409.888 102.539 410.677 102.539 411.688C102.539 412.182 102.378 412.661 102.055 413.125C101.737 413.589 101.302 413.935 100.75 414.164C101.375 414.362 101.857 414.69 102.195 415.148C102.539 415.607 102.711 416.167 102.711 416.828C102.711 417.849 102.378 418.659 101.711 419.258C101.044 419.857 100.177 420.156 99.1094 420.156C98.0417 420.156 97.1719 419.867 96.5 419.289C95.8333 418.711 95.5 417.948 95.5 417H96.9531C96.9531 417.599 97.1484 418.078 97.5391 418.438C97.9297 418.797 98.4531 418.977 99.1094 418.977C99.8073 418.977 100.341 418.794 100.711 418.43C101.081 418.065 101.266 417.542 101.266 416.859C101.266 416.198 101.062 415.69 100.656 415.336C100.25 414.982 99.6641 414.799 98.8984 414.789H97.8125V413.609ZM109.039 420V408.625H112.758C113.992 408.625 114.919 408.88 115.539 409.391C116.164 409.901 116.477 410.656 116.477 411.656C116.477 412.188 116.326 412.659 116.023 413.07C115.721 413.477 115.31 413.792 114.789 414.016C115.404 414.188 115.888 414.516 116.242 415C116.602 415.479 116.781 416.052 116.781 416.719C116.781 417.74 116.451 418.542 115.789 419.125C115.128 419.708 114.193 420 112.984 420H109.039ZM110.539 414.68V418.773H113.016C113.714 418.773 114.263 418.594 114.664 418.234C115.07 417.87 115.273 417.37 115.273 416.734C115.273 415.365 114.529 414.68 113.039 414.68H110.539ZM110.539 413.477H112.805C113.461 413.477 113.984 413.312 114.375 412.984C114.771 412.656 114.969 412.211 114.969 411.648C114.969 411.023 114.786 410.57 114.422 410.289C114.057 410.003 113.503 409.859 112.758 409.859H110.539V413.477ZM124 419.164C123.438 419.826 122.612 420.156 121.523 420.156C120.622 420.156 119.935 419.896 119.461 419.375C118.992 418.849 118.755 418.073 118.75 417.047V411.547H120.195V417.008C120.195 418.289 120.716 418.93 121.758 418.93C122.862 418.93 123.596 418.518 123.961 417.695V411.547H125.406V420H124.031L124 419.164ZM129.57 409.5V411.547H131.148V412.664H129.57V417.906C129.57 418.245 129.641 418.5 129.781 418.672C129.922 418.839 130.161 418.922 130.5 418.922C130.667 418.922 130.896 418.891 131.188 418.828V420C130.807 420.104 130.438 420.156 130.078 420.156C129.432 420.156 128.945 419.961 128.617 419.57C128.289 419.18 128.125 418.625 128.125 417.906V412.664H126.586V411.547H128.125V409.5H129.57ZM134.805 409.5V411.547H136.383V412.664H134.805V417.906C134.805 418.245 134.875 418.5 135.016 418.672C135.156 418.839 135.396 418.922 135.734 418.922C135.901 418.922 136.13 418.891 136.422 418.828V420C136.042 420.104 135.672 420.156 135.312 420.156C134.667 420.156 134.18 419.961 133.852 419.57C133.523 419.18 133.359 418.625 133.359 417.906V412.664H131.82V411.547H133.359V409.5H134.805ZM137.539 415.695C137.539 414.867 137.701 414.122 138.023 413.461C138.352 412.799 138.805 412.289 139.383 411.93C139.966 411.57 140.63 411.391 141.375 411.391C142.526 411.391 143.456 411.789 144.164 412.586C144.878 413.383 145.234 414.443 145.234 415.766V415.867C145.234 416.69 145.076 417.43 144.758 418.086C144.445 418.737 143.995 419.245 143.406 419.609C142.823 419.974 142.151 420.156 141.391 420.156C140.245 420.156 139.315 419.758 138.602 418.961C137.893 418.164 137.539 417.109 137.539 415.797V415.695ZM138.992 415.867C138.992 416.805 139.208 417.557 139.641 418.125C140.078 418.693 140.661 418.977 141.391 418.977C142.125 418.977 142.708 418.69 143.141 418.117C143.573 417.539 143.789 416.732 143.789 415.695C143.789 414.768 143.568 414.018 143.125 413.445C142.688 412.867 142.104 412.578 141.375 412.578C140.661 412.578 140.086 412.862 139.648 413.43C139.211 413.997 138.992 414.81 138.992 415.867ZM148.414 411.547L148.461 412.609C149.107 411.797 149.951 411.391 150.992 411.391C152.779 411.391 153.68 412.398 153.695 414.414V420H152.25V414.406C152.245 413.797 152.104 413.346 151.828 413.055C151.557 412.763 151.133 412.617 150.555 412.617C150.086 412.617 149.674 412.742 149.32 412.992C148.966 413.242 148.69 413.57 148.492 413.977V420H147.047V411.547H148.414ZM160.797 417.758C160.797 417.367 160.648 417.065 160.352 416.852C160.06 416.633 159.547 416.445 158.812 416.289C158.083 416.133 157.503 415.945 157.07 415.727C156.643 415.508 156.326 415.247 156.117 414.945C155.914 414.643 155.812 414.284 155.812 413.867C155.812 413.174 156.104 412.589 156.688 412.109C157.276 411.63 158.026 411.391 158.938 411.391C159.896 411.391 160.672 411.638 161.266 412.133C161.865 412.628 162.164 413.26 162.164 414.031H160.711C160.711 413.635 160.542 413.294 160.203 413.008C159.87 412.721 159.448 412.578 158.938 412.578C158.411 412.578 158 412.693 157.703 412.922C157.406 413.151 157.258 413.451 157.258 413.82C157.258 414.169 157.396 414.432 157.672 414.609C157.948 414.786 158.445 414.956 159.164 415.117C159.888 415.279 160.474 415.471 160.922 415.695C161.37 415.919 161.701 416.19 161.914 416.508C162.133 416.82 162.242 417.203 162.242 417.656C162.242 418.411 161.94 419.018 161.336 419.477C160.732 419.93 159.948 420.156 158.984 420.156C158.307 420.156 157.708 420.036 157.188 419.797C156.667 419.557 156.258 419.224 155.961 418.797C155.669 418.365 155.523 417.898 155.523 417.398H156.969C156.995 417.883 157.188 418.268 157.547 418.555C157.911 418.836 158.391 418.977 158.984 418.977C159.531 418.977 159.969 418.867 160.297 418.648C160.63 418.424 160.797 418.128 160.797 417.758ZM164.078 419.242C164.078 418.992 164.151 418.784 164.297 418.617C164.448 418.451 164.672 418.367 164.969 418.367C165.266 418.367 165.49 418.451 165.641 418.617C165.797 418.784 165.875 418.992 165.875 419.242C165.875 419.482 165.797 419.682 165.641 419.844C165.49 420.005 165.266 420.086 164.969 420.086C164.672 420.086 164.448 420.005 164.297 419.844C164.151 419.682 164.078 419.482 164.078 419.242ZM164.086 412.344C164.086 412.094 164.159 411.885 164.305 411.719C164.456 411.552 164.68 411.469 164.977 411.469C165.273 411.469 165.497 411.552 165.648 411.719C165.805 411.885 165.883 412.094 165.883 412.344C165.883 412.583 165.805 412.784 165.648 412.945C165.497 413.107 165.273 413.188 164.977 413.188C164.68 413.188 164.456 413.107 164.305 412.945C164.159 412.784 164.086 412.583 164.086 412.344Z" fill="black"/>
<rect x="253" y="411" width="53" height="53" fill="#DDDDDD"/>
<path d="M253 411V410H252V411H253ZM306 411H307V410H306V411ZM306 464V465H307V464H306ZM253 464H252V465H253V464ZM253 412H306V410H253V412ZM305 411V464H307V411H305ZM306 463H253V465H306V463ZM254 464V411H252V464H254Z" fill="#000222"/>
<path d="M259.869 438.95H258.329L257.969 441H257.329L257.689 438.95H256.409V438.35H257.789L258.069 436.67H256.799V436.07H258.179L258.529 434.02H259.169L258.819 436.07H260.359L260.709 434.02H261.349L260.999 436.07H262.279V436.67H260.889L260.609 438.35H261.889V438.95H260.509L260.149 441H259.509L259.869 438.95ZM259.969 438.35L260.249 436.67H258.709L258.429 438.35H259.969ZM263.868 434.02H266.208C266.641 434.02 267.034 434.093 267.388 434.24C267.741 434.387 268.041 434.607 268.288 434.9C268.541 435.187 268.734 435.55 268.868 435.99C269.001 436.423 269.068 436.93 269.068 437.51C269.068 438.09 269.001 438.6 268.868 439.04C268.734 439.473 268.541 439.837 268.288 440.13C268.041 440.417 267.741 440.633 267.388 440.78C267.034 440.927 266.641 441 266.208 441H263.868V434.02ZM266.208 440.26C266.494 440.26 266.758 440.213 266.998 440.12C267.238 440.02 267.444 439.877 267.618 439.69C267.791 439.503 267.924 439.277 268.018 439.01C268.118 438.737 268.168 438.427 268.168 438.08V436.94C268.168 436.593 268.118 436.287 268.018 436.02C267.924 435.747 267.791 435.517 267.618 435.33C267.444 435.143 267.238 435.003 266.998 434.91C266.758 434.81 266.494 434.76 266.208 434.76H264.708V440.26H266.208ZM270.576 434.02H272.916C273.35 434.02 273.743 434.093 274.096 434.24C274.45 434.387 274.75 434.607 274.996 434.9C275.25 435.187 275.443 435.55 275.576 435.99C275.71 436.423 275.776 436.93 275.776 437.51C275.776 438.09 275.71 438.6 275.576 439.04C275.443 439.473 275.25 439.837 274.996 440.13C274.75 440.417 274.45 440.633 274.096 440.78C273.743 440.927 273.35 441 272.916 441H270.576V434.02ZM272.916 440.26C273.203 440.26 273.466 440.213 273.706 440.12C273.946 440.02 274.153 439.877 274.326 439.69C274.5 439.503 274.633 439.277 274.726 439.01C274.826 438.737 274.876 438.427 274.876 438.08V436.94C274.876 436.593 274.826 436.287 274.726 436.02C274.633 435.747 274.5 435.517 274.326 435.33C274.153 435.143 273.946 435.003 273.706 434.91C273.466 434.81 273.203 434.76 272.916 434.76H271.416V440.26H272.916ZM277.285 434.02H279.625C280.059 434.02 280.452 434.093 280.805 434.24C281.159 434.387 281.459 434.607 281.705 434.9C281.959 435.187 282.152 435.55 282.285 435.99C282.419 436.423 282.485 436.93 282.485 437.51C282.485 438.09 282.419 438.6 282.285 439.04C282.152 439.473 281.959 439.837 281.705 440.13C281.459 440.417 281.159 440.633 280.805 440.78C280.452 440.927 280.059 441 279.625 441H277.285V434.02ZM279.625 440.26C279.912 440.26 280.175 440.213 280.415 440.12C280.655 440.02 280.862 439.877 281.035 439.69C281.209 439.503 281.342 439.277 281.435 439.01C281.535 438.737 281.585 438.427 281.585 438.08V436.94C281.585 436.593 281.535 436.287 281.435 436.02C281.342 435.747 281.209 435.517 281.035 435.33C280.862 435.143 280.655 435.003 280.415 434.91C280.175 434.81 279.912 434.76 279.625 434.76H278.125V440.26H279.625ZM283.994 434.02H286.334C286.768 434.02 287.161 434.093 287.514 434.24C287.868 434.387 288.168 434.607 288.414 434.9C288.668 435.187 288.861 435.55 288.994 435.99C289.128 436.423 289.194 436.93 289.194 437.51C289.194 438.09 289.128 438.6 288.994 439.04C288.861 439.473 288.668 439.837 288.414 440.13C288.168 440.417 287.868 440.633 287.514 440.78C287.161 440.927 286.768 441 286.334 441H283.994V434.02ZM286.334 440.26C286.621 440.26 286.884 440.213 287.124 440.12C287.364 440.02 287.571 439.877 287.744 439.69C287.918 439.503 288.051 439.277 288.144 439.01C288.244 438.737 288.294 438.427 288.294 438.08V436.94C288.294 436.593 288.244 436.287 288.144 436.02C288.051 435.747 287.918 435.517 287.744 435.33C287.571 435.143 287.364 435.003 287.124 434.91C286.884 434.81 286.621 434.76 286.334 434.76H284.834V440.26H286.334ZM290.703 434.02H293.043C293.477 434.02 293.87 434.093 294.223 434.24C294.577 434.387 294.877 434.607 295.123 434.9C295.377 435.187 295.57 435.55 295.703 435.99C295.837 436.423 295.903 436.93 295.903 437.51C295.903 438.09 295.837 438.6 295.703 439.04C295.57 439.473 295.377 439.837 295.123 440.13C294.877 440.417 294.577 440.633 294.223 440.78C293.87 440.927 293.477 441 293.043 441H290.703V434.02ZM293.043 440.26C293.33 440.26 293.593 440.213 293.833 440.12C294.073 440.02 294.28 439.877 294.453 439.69C294.627 439.503 294.76 439.277 294.853 439.01C294.953 438.737 295.003 438.427 295.003 438.08V436.94C295.003 436.593 294.953 436.287 294.853 436.02C294.76 435.747 294.627 435.517 294.453 435.33C294.28 435.143 294.073 435.003 293.833 434.91C293.593 434.81 293.33 434.76 293.043 434.76H291.543V440.26H293.043ZM297.412 434.02H299.752C300.186 434.02 300.579 434.093 300.932 434.24C301.286 434.387 301.586 434.607 301.832 434.9C302.086 435.187 302.279 435.55 302.412 435.99C302.546 436.423 302.612 436.93 302.612 437.51C302.612 438.09 302.546 438.6 302.412 439.04C302.279 439.473 302.086 439.837 301.832 440.13C301.586 440.417 301.286 440.633 300.932 440.78C300.579 440.927 300.186 441 299.752 441H297.412V434.02ZM299.752 440.26C300.039 440.26 300.302 440.213 300.542 440.12C300.782 440.02 300.989 439.877 301.162 439.69C301.336 439.503 301.469 439.277 301.562 439.01C301.662 438.737 301.712 438.427 301.712 438.08V436.94C301.712 436.593 301.662 436.287 301.562 436.02C301.469 435.747 301.336 435.517 301.162 435.33C300.989 435.143 300.782 435.003 300.542 434.91C300.302 434.81 300.039 434.76 299.752 434.76H298.252V440.26H299.752Z" fill="black"/>
</svg>
