<svg width="595" height="842" viewBox="0 0 595 842" fill="none" xmlns="http://www.w3.org/2000/svg">
<rect width="595" height="842" fill="white"/>
<path d="M42.8774 75.3613H35.4312L33.7588 80H31.3418L38.1289 62.2266H40.1797L46.979 80H44.5742L42.8774 75.3613ZM36.1392 73.4326H42.1816L39.1543 65.1196L36.1392 73.4326ZM51.4712 80H49.2129V61.25H51.4712V80ZM57.5503 80H55.292V61.25H57.5503V80ZM66.6567 80.2441C64.8664 80.2441 63.4097 79.6582 62.2866 78.4863C61.1636 77.3063 60.6021 75.7316 60.6021 73.7622V73.3472C60.6021 72.0369 60.8503 70.8691 61.3467 69.8438C61.8512 68.8102 62.5511 68.0046 63.4463 67.4268C64.3496 66.8408 65.3262 66.5479 66.376 66.5479C68.0931 66.5479 69.4277 67.1134 70.3799 68.2446C71.332 69.3758 71.8081 70.9953 71.8081 73.103V74.043H62.8604C62.8929 75.3451 63.2713 76.3989 63.9956 77.2046C64.728 78.0021 65.6558 78.4009 66.7788 78.4009C67.5763 78.4009 68.2518 78.2381 68.8052 77.9126C69.3586 77.5871 69.8428 77.1558 70.2578 76.6187L71.6372 77.6929C70.5304 79.3937 68.8703 80.2441 66.6567 80.2441ZM66.376 68.4033C65.4645 68.4033 64.6995 68.737 64.0811 69.4043C63.4626 70.0635 63.0801 70.9912 62.9336 72.1875H69.5498V72.0166C69.4847 70.8691 69.1755 69.9821 68.6221 69.3555C68.0687 68.7207 67.32 68.4033 66.376 68.4033Z" fill="black"/>
<path d="M42.0962 35.4224C42.0962 34.6411 41.8195 34.0389 41.2661 33.6157C40.7209 33.1925 39.7321 32.7653 38.2998 32.334C36.8675 31.9027 35.7282 31.4225 34.8818 30.8936C33.2624 29.8763 32.4526 28.5498 32.4526 26.9141C32.4526 25.4818 33.0345 24.3018 34.1982 23.374C35.3701 22.4463 36.8879 21.9824 38.7515 21.9824C39.9884 21.9824 41.0911 22.2103 42.0596 22.666C43.028 23.1217 43.7889 23.7728 44.3423 24.6191C44.8957 25.4574 45.1724 26.3892 45.1724 27.4146H42.0962C42.0962 26.4868 41.8032 25.7625 41.2173 25.2417C40.6395 24.7127 39.8094 24.4482 38.7271 24.4482C37.7179 24.4482 36.9326 24.6639 36.3711 25.0952C35.8177 25.5265 35.541 26.1287 35.541 26.9019C35.541 27.5529 35.8421 28.0981 36.4443 28.5376C37.0465 28.9689 38.0394 29.3921 39.4229 29.8071C40.8063 30.214 41.9172 30.682 42.7554 31.2109C43.5936 31.7318 44.208 32.334 44.5986 33.0176C44.9893 33.693 45.1846 34.4865 45.1846 35.3979C45.1846 36.8791 44.6149 38.0591 43.4756 38.938C42.3444 39.8088 40.8063 40.2441 38.8613 40.2441C37.5755 40.2441 36.3914 40.0081 35.3091 39.5361C34.2349 39.056 33.3966 38.3968 32.7944 37.5586C32.2004 36.7204 31.9033 35.7438 31.9033 34.6289H34.9917C34.9917 35.638 35.3254 36.4193 35.9927 36.9727C36.66 37.526 37.6162 37.8027 38.8613 37.8027C39.9355 37.8027 40.7412 37.5871 41.2783 37.1558C41.8236 36.7163 42.0962 36.1385 42.0962 35.4224ZM51.3247 23.5815V26.792H53.6562V28.9893H51.3247V36.3623C51.3247 36.8669 51.4224 37.2331 51.6177 37.4609C51.8211 37.6807 52.1792 37.7905 52.6919 37.7905C53.0337 37.7905 53.3796 37.7498 53.7295 37.6685V39.9634C53.054 40.1506 52.403 40.2441 51.7764 40.2441C49.4977 40.2441 48.3584 38.9868 48.3584 36.4722V28.9893H46.1855V26.792H48.3584V23.5815H51.3247ZM60.5532 35.752L63.2388 26.792H66.4004L61.1514 42.002C60.3457 44.2236 58.9785 45.3345 57.0498 45.3345C56.6185 45.3345 56.1424 45.2612 55.6216 45.1147V42.8198L56.1831 42.8564C56.9318 42.8564 57.4933 42.7181 57.8677 42.4414C58.2502 42.1729 58.5513 41.7171 58.771 41.0742L59.1982 39.939L54.5596 26.792H57.7578L60.5532 35.752ZM71.271 40H68.3047V21.25H71.271V40ZM80.3286 40.2441C78.4487 40.2441 76.9229 39.6541 75.751 38.4741C74.5872 37.286 74.0054 35.7072 74.0054 33.7378V33.3716C74.0054 32.0532 74.2576 30.8773 74.7622 29.8438C75.2749 28.8021 75.991 27.9924 76.9106 27.4146C77.8302 26.8368 78.8556 26.5479 79.9868 26.5479C81.7853 26.5479 83.1729 27.1216 84.1494 28.269C85.1341 29.4165 85.6265 31.04 85.6265 33.1396V34.3359H76.9961C77.0856 35.4264 77.4478 36.2891 78.0825 36.9238C78.7254 37.5586 79.5311 37.876 80.4995 37.876C81.8586 37.876 82.9653 37.3267 83.8198 36.228L85.4189 37.7539C84.89 38.5433 84.182 39.1577 83.2949 39.5972C82.416 40.0285 81.4272 40.2441 80.3286 40.2441ZM79.9746 28.9282C79.1608 28.9282 78.5016 29.2131 77.9971 29.7827C77.5007 30.3524 77.1833 31.1458 77.0449 32.1631H82.6968V31.9434C82.6317 30.9505 82.3672 30.2018 81.9033 29.6973C81.4395 29.1846 80.7965 28.9282 79.9746 28.9282ZM87.4209 33.2983C87.4209 31.2476 87.901 29.6118 88.8613 28.3911C89.8298 27.1623 91.1115 26.5479 92.7065 26.5479C94.2121 26.5479 95.3962 27.0728 96.2588 28.1226L96.3931 26.792H99.0664V39.5972C99.0664 41.3306 98.5252 42.6978 97.4429 43.6987C96.3687 44.6997 94.916 45.2002 93.085 45.2002C92.1165 45.2002 91.1685 44.9967 90.2407 44.5898C89.3211 44.1911 88.6213 43.6662 88.1411 43.0151L89.5449 41.2329C90.4564 42.3153 91.5794 42.8564 92.9141 42.8564C93.8988 42.8564 94.6759 42.5879 95.2456 42.0508C95.8153 41.5218 96.1001 40.7406 96.1001 39.707V38.8159C95.2456 39.7681 94.1063 40.2441 92.6821 40.2441C91.1359 40.2441 89.8704 39.6297 88.8857 38.4009C87.9092 37.172 87.4209 35.4712 87.4209 33.2983ZM90.375 33.5547C90.375 34.8812 90.6436 35.9269 91.1807 36.6919C91.7259 37.4487 92.4787 37.8271 93.439 37.8271C94.6353 37.8271 95.5223 37.3145 96.1001 36.2891V30.4785C95.5386 29.4775 94.6597 28.9771 93.4634 28.9771C92.4868 28.9771 91.7259 29.3636 91.1807 30.1367C90.6436 30.9098 90.375 32.0492 90.375 33.5547ZM110.126 38.7061C109.255 39.7314 108.018 40.2441 106.415 40.2441C104.983 40.2441 103.896 39.825 103.156 38.9868C102.423 38.1486 102.057 36.936 102.057 35.3491V26.792H105.023V35.3125C105.023 36.9889 105.719 37.8271 107.111 37.8271C108.551 37.8271 109.524 37.3104 110.028 36.2769V26.792H112.995V40H110.199L110.126 38.7061ZM119.171 40H116.205V26.792H119.171V40ZM116.022 23.3618C116.022 22.9061 116.164 22.5277 116.449 22.2266C116.742 21.9255 117.157 21.7749 117.694 21.7749C118.231 21.7749 118.646 21.9255 118.939 22.2266C119.232 22.5277 119.379 22.9061 119.379 23.3618C119.379 23.8094 119.232 24.1838 118.939 24.4849C118.646 24.7778 118.231 24.9243 117.694 24.9243C117.157 24.9243 116.742 24.7778 116.449 24.4849C116.164 24.1838 116.022 23.8094 116.022 23.3618ZM121.857 33.2983C121.857 31.2638 122.329 29.6322 123.273 28.4033C124.217 27.1663 125.482 26.5479 127.069 26.5479C128.469 26.5479 129.6 27.0361 130.463 28.0127V21.25H133.429V40H130.744L130.597 38.6328C129.71 39.707 128.526 40.2441 127.045 40.2441C125.499 40.2441 124.245 39.6216 123.285 38.3765C122.333 37.1313 121.857 35.4386 121.857 33.2983ZM124.823 33.5547C124.823 34.8975 125.08 35.9473 125.592 36.7041C126.113 37.4528 126.85 37.8271 127.802 37.8271C129.014 37.8271 129.901 37.286 130.463 36.2036V30.564C129.918 29.506 129.039 28.9771 127.826 28.9771C126.866 28.9771 126.125 29.3595 125.604 30.1245C125.084 30.8813 124.823 32.0247 124.823 33.5547ZM142.34 40.2441C140.46 40.2441 138.935 39.6541 137.763 38.4741C136.599 37.286 136.017 35.7072 136.017 33.7378V33.3716C136.017 32.0532 136.269 30.8773 136.774 29.8438C137.287 28.8021 138.003 27.9924 138.922 27.4146C139.842 26.8368 140.867 26.5479 141.999 26.5479C143.797 26.5479 145.185 27.1216 146.161 28.269C147.146 29.4165 147.638 31.04 147.638 33.1396V34.3359H139.008C139.097 35.4264 139.459 36.2891 140.094 36.9238C140.737 37.5586 141.543 37.876 142.511 37.876C143.87 37.876 144.977 37.3267 145.832 36.228L147.431 37.7539C146.902 38.5433 146.194 39.1577 145.307 39.5972C144.428 40.0285 143.439 40.2441 142.34 40.2441ZM141.986 28.9282C141.173 28.9282 140.513 29.2131 140.009 29.7827C139.512 30.3524 139.195 31.1458 139.057 32.1631H144.708V31.9434C144.643 30.9505 144.379 30.2018 143.915 29.6973C143.451 29.1846 142.808 28.9282 141.986 28.9282Z" fill="black"/>
<path d="M40.877 112.289H35.1152L33.1719 116H31.209L38.9336 101.781H40.5449L43.3574 116H41.5508L40.877 112.289ZM35.9258 110.746H40.6035L39.4219 104.115L35.9258 110.746ZM54.6465 110.766C54.5163 111.846 54.2201 112.82 53.7578 113.686C53.2956 114.551 52.7357 115.193 52.0781 115.609C51.4206 116.026 50.6914 116.225 49.8906 116.205C48.6146 116.179 47.6673 115.701 47.0488 114.77L46.6875 116H45.0566L47.6641 101H49.4316L48.3672 106.605C49.2135 105.668 50.2422 105.212 51.4531 105.238C52.4688 105.264 53.2598 105.639 53.8262 106.361C54.3926 107.084 54.6921 108.08 54.7246 109.35C54.7311 109.766 54.7116 110.17 54.666 110.561L54.6465 110.766ZM52.9668 109.74C52.9863 108.79 52.8268 108.064 52.4883 107.562C52.1497 107.055 51.6322 106.788 50.9355 106.762C49.8353 106.736 48.9043 107.289 48.1426 108.422L47.3516 113.021C47.7422 114.096 48.4746 114.646 49.5488 114.672C50.2389 114.698 50.8411 114.493 51.3555 114.057C51.8763 113.62 52.2702 113.012 52.5371 112.23C52.804 111.443 52.9473 110.613 52.9668 109.74ZM62.5957 113.139C62.6934 112.41 62.293 111.895 61.3945 111.596L59.5586 111.059C58.0091 110.525 57.2604 109.639 57.3125 108.402C57.3581 107.471 57.7812 106.71 58.582 106.117C59.3893 105.518 60.3366 105.225 61.4238 105.238C62.4915 105.251 63.3574 105.564 64.0215 106.176C64.6921 106.781 65.0143 107.572 64.9883 108.549L63.2305 108.539C63.2435 108.012 63.0775 107.582 62.7324 107.25C62.3874 106.918 61.9284 106.745 61.3555 106.732C60.7435 106.719 60.2161 106.869 59.7734 107.182C59.3633 107.475 59.1257 107.859 59.0605 108.334C58.9759 108.946 59.3503 109.392 60.1836 109.672L61.0723 109.916C62.2832 110.229 63.1426 110.635 63.6504 111.137C64.1582 111.638 64.3926 112.26 64.3535 113.002C64.3145 113.66 64.0996 114.232 63.709 114.721C63.3184 115.209 62.7975 115.583 62.1465 115.844C61.4954 116.098 60.8021 116.215 60.0664 116.195C58.9466 116.182 58.0221 115.857 57.293 115.219C56.5638 114.574 56.2122 113.747 56.2383 112.738L58.0059 112.748C58.0059 113.34 58.1947 113.816 58.5723 114.174C58.9499 114.532 59.4674 114.711 60.125 114.711C60.7695 114.724 61.3262 114.59 61.7949 114.311C62.2637 114.024 62.5306 113.633 62.5957 113.139ZM70.8184 102.875L70.3691 105.434H72.293L72.0488 106.83H70.1348L69.0312 113.402C69.0117 113.572 69.0085 113.728 69.0215 113.871C69.0671 114.379 69.3438 114.633 69.8516 114.633C70.0664 114.633 70.3529 114.6 70.7109 114.535L70.5742 116.01C70.151 116.127 69.7214 116.186 69.2852 116.186C68.582 116.173 68.0547 115.915 67.7031 115.414C67.3516 114.906 67.2148 114.226 67.293 113.373L68.3672 106.83H66.502L66.7461 105.434H68.6113L69.0605 102.875H70.8184ZM79.0605 116C79.015 115.811 78.9922 115.626 78.9922 115.443L79.0215 114.887C78.0514 115.785 77.0228 116.221 75.9355 116.195C75.0046 116.182 74.2461 115.889 73.6602 115.316C73.0807 114.737 72.8171 114.014 72.8691 113.148C72.9342 112.029 73.4225 111.156 74.334 110.531C75.252 109.9 76.4564 109.584 77.9473 109.584L79.793 109.594L79.9102 108.754C79.9753 108.122 79.8516 107.624 79.5391 107.26C79.2331 106.889 78.7708 106.697 78.1523 106.684C77.5469 106.671 77.0098 106.82 76.541 107.133C76.0788 107.439 75.7956 107.846 75.6914 108.354L73.9141 108.363C73.9727 107.745 74.2135 107.198 74.6367 106.723C75.0599 106.241 75.6035 105.87 76.2676 105.609C76.9316 105.342 77.6185 105.215 78.3281 105.229C79.4284 105.255 80.2845 105.59 80.8965 106.234C81.5085 106.872 81.7656 107.722 81.668 108.783L80.8086 114.018L80.7598 114.77C80.7467 115.128 80.7858 115.482 80.877 115.834L80.8574 116H79.0605ZM76.2871 114.633C76.8535 114.646 77.3874 114.512 77.8887 114.232C78.3965 113.946 78.8327 113.552 79.1973 113.051L79.5781 110.873L78.2402 110.863C77.127 110.863 76.2741 111.039 75.6816 111.391C75.0892 111.742 74.7539 112.24 74.6758 112.885C74.6172 113.38 74.7311 113.793 75.0176 114.125C75.3105 114.451 75.7337 114.62 76.2871 114.633ZM76.0332 102.631C76.0397 102.331 76.1374 102.084 76.3262 101.889C76.515 101.687 76.7656 101.579 77.0781 101.566C77.3776 101.56 77.625 101.654 77.8203 101.85C78.0221 102.038 78.1198 102.286 78.1133 102.592C78.1133 102.891 78.0156 103.139 77.8203 103.334C77.625 103.529 77.3743 103.633 77.0684 103.646C76.7624 103.653 76.5117 103.562 76.3164 103.373C76.1276 103.184 76.0332 102.937 76.0332 102.631ZM80.1055 102.65C80.112 102.351 80.2096 102.1 80.3984 101.898C80.5872 101.697 80.8346 101.589 81.1406 101.576C81.4531 101.57 81.707 101.664 81.9023 101.859C82.0977 102.048 82.1921 102.299 82.1855 102.611C82.1855 102.917 82.0879 103.168 81.8926 103.363C81.6973 103.552 81.4466 103.653 81.1406 103.666C80.8411 103.673 80.5905 103.581 80.3887 103.393C80.1934 103.204 80.099 102.956 80.1055 102.65ZM86.7656 105.424L86.5117 106.762C87.4622 105.72 88.543 105.212 89.7539 105.238C90.75 105.264 91.4857 105.609 91.9609 106.273C92.4362 106.938 92.612 107.872 92.4883 109.076L91.3359 116H89.5684L90.7305 109.047C90.7695 108.728 90.7728 108.432 90.7402 108.158C90.6296 107.247 90.0924 106.781 89.1289 106.762C88.0677 106.742 87.1367 107.309 86.3359 108.461L85.0273 116H83.2598L85.0957 105.434L86.7656 105.424ZM94.5684 110.697C94.6986 109.623 94.9948 108.653 95.457 107.787C95.9193 106.921 96.4889 106.273 97.166 105.844C97.8431 105.414 98.5885 105.209 99.4023 105.229C100.581 105.255 101.486 105.684 102.117 106.518L103.133 101H104.9L102.303 116H100.691L100.877 114.867C100.044 115.779 99.015 116.221 97.791 116.195C96.8145 116.169 96.0365 115.788 95.457 115.053C94.8776 114.311 94.5651 113.318 94.5195 112.074C94.5 111.69 94.5163 111.231 94.5684 110.697ZM96.2676 111.713C96.248 112.644 96.4141 113.367 96.7656 113.881C97.1172 114.395 97.6315 114.659 98.3086 114.672C99.3307 114.717 100.239 114.203 101.033 113.129L101.873 108.246C101.482 107.283 100.773 106.788 99.7441 106.762C99.0475 106.742 98.4323 106.954 97.8984 107.396C97.3711 107.833 96.9674 108.448 96.6875 109.242C96.4141 110.03 96.2741 110.854 96.2676 111.713ZM109.666 116.195C108.351 116.169 107.322 115.684 106.58 114.74C105.838 113.796 105.525 112.589 105.643 111.117L105.691 110.697C105.802 109.649 106.111 108.692 106.619 107.826C107.133 106.96 107.758 106.309 108.494 105.873C109.23 105.43 110.024 105.219 110.877 105.238C111.964 105.264 112.817 105.626 113.436 106.322C114.054 107.019 114.393 107.963 114.451 109.154C114.471 109.577 114.458 110.001 114.412 110.424L114.305 111.234H107.4C107.283 112.191 107.439 113.005 107.869 113.676C108.305 114.346 108.953 114.695 109.812 114.721C110.854 114.747 111.818 114.278 112.703 113.314L113.719 114.174C113.276 114.812 112.703 115.313 112 115.678C111.303 116.036 110.525 116.208 109.666 116.195ZM110.789 106.713C110.06 106.693 109.422 106.941 108.875 107.455C108.335 107.969 107.905 108.734 107.586 109.75L112.723 109.76L112.762 109.604C112.866 108.783 112.732 108.103 112.361 107.562C111.997 107.016 111.473 106.732 110.789 106.713ZM116.668 113.949C116.987 113.943 117.251 114.04 117.459 114.242C117.667 114.444 117.768 114.704 117.762 115.023C117.755 115.342 117.648 115.603 117.439 115.805C117.231 116 116.971 116.104 116.658 116.117C116.346 116.13 116.089 116.042 115.887 115.854C115.685 115.658 115.584 115.401 115.584 115.082C115.584 114.763 115.685 114.499 115.887 114.291C116.089 114.076 116.349 113.962 116.668 113.949ZM118.162 105.326C118.481 105.32 118.745 105.417 118.953 105.619C119.161 105.821 119.262 106.081 119.256 106.4C119.249 106.719 119.142 106.98 118.934 107.182C118.725 107.377 118.465 107.481 118.152 107.494C117.84 107.507 117.583 107.419 117.381 107.23C117.179 107.035 117.078 106.778 117.078 106.459C117.078 106.14 117.179 105.876 117.381 105.668C117.583 105.453 117.843 105.339 118.162 105.326Z" fill="black"/>
<path d="M41.1797 139.859H37.5234V150H36.0312V139.859H32.3828V138.625H41.1797V139.859ZM44.2109 150H42.7656V141.547H44.2109V150ZM42.6484 139.305C42.6484 139.07 42.7188 138.872 42.8594 138.711C43.0052 138.549 43.2188 138.469 43.5 138.469C43.7812 138.469 43.9948 138.549 44.1406 138.711C44.2865 138.872 44.3594 139.07 44.3594 139.305C44.3594 139.539 44.2865 139.734 44.1406 139.891C43.9948 140.047 43.7812 140.125 43.5 140.125C43.2188 140.125 43.0052 140.047 42.8594 139.891C42.7188 139.734 42.6484 139.539 42.6484 139.305ZM47.8906 141.547L47.9297 142.484C48.5495 141.755 49.3854 141.391 50.4375 141.391C51.6198 141.391 52.4245 141.844 52.8516 142.75C53.1328 142.344 53.4974 142.016 53.9453 141.766C54.3984 141.516 54.9323 141.391 55.5469 141.391C57.401 141.391 58.3438 142.372 58.375 144.336V150H56.9297V144.422C56.9297 143.818 56.7917 143.367 56.5156 143.07C56.2396 142.768 55.776 142.617 55.125 142.617C54.5885 142.617 54.1432 142.779 53.7891 143.102C53.4349 143.419 53.2292 143.849 53.1719 144.391V150H51.7188V144.461C51.7188 143.232 51.1172 142.617 49.9141 142.617C48.9661 142.617 48.3177 143.021 47.9688 143.828V150H46.5234V141.547H47.8906ZM64.0703 150.156C62.9245 150.156 61.9922 149.781 61.2734 149.031C60.5547 148.276 60.1953 147.268 60.1953 146.008V145.742C60.1953 144.904 60.3542 144.156 60.6719 143.5C60.9948 142.839 61.4427 142.323 62.0156 141.953C62.5938 141.578 63.2188 141.391 63.8906 141.391C64.9896 141.391 65.8438 141.753 66.4531 142.477C67.0625 143.201 67.3672 144.237 67.3672 145.586V146.188H61.6406C61.6615 147.021 61.9036 147.695 62.3672 148.211C62.8359 148.721 63.4297 148.977 64.1484 148.977C64.6589 148.977 65.0911 148.872 65.4453 148.664C65.7995 148.456 66.1094 148.18 66.375 147.836L67.2578 148.523C66.5495 149.612 65.487 150.156 64.0703 150.156ZM63.8906 142.578C63.3073 142.578 62.8177 142.792 62.4219 143.219C62.026 143.641 61.7812 144.234 61.6875 145H65.9219V144.891C65.8802 144.156 65.6823 143.589 65.3281 143.188C64.974 142.781 64.4948 142.578 63.8906 142.578ZM70.6172 150H69.1719V138H70.6172V150ZM74.5078 150H73.0625V141.547H74.5078V150ZM72.9453 139.305C72.9453 139.07 73.0156 138.872 73.1562 138.711C73.3021 138.549 73.5156 138.469 73.7969 138.469C74.0781 138.469 74.2917 138.549 74.4375 138.711C74.5833 138.872 74.6562 139.07 74.6562 139.305C74.6562 139.539 74.5833 139.734 74.4375 139.891C74.2917 140.047 74.0781 140.125 73.7969 140.125C73.5156 140.125 73.3021 140.047 73.1562 139.891C73.0156 139.734 72.9453 139.539 72.9453 139.305ZM78.1953 141.547L78.2422 142.609C78.888 141.797 79.7318 141.391 80.7734 141.391C82.5599 141.391 83.4609 142.398 83.4766 144.414V150H82.0312V144.406C82.026 143.797 81.8854 143.346 81.6094 143.055C81.3385 142.763 80.9141 142.617 80.3359 142.617C79.8672 142.617 79.4557 142.742 79.1016 142.992C78.7474 143.242 78.4714 143.57 78.2734 143.977V150H76.8281V141.547H78.1953ZM89.1641 150.156C88.0182 150.156 87.0859 149.781 86.3672 149.031C85.6484 148.276 85.2891 147.268 85.2891 146.008V145.742C85.2891 144.904 85.4479 144.156 85.7656 143.5C86.0885 142.839 86.5365 142.323 87.1094 141.953C87.6875 141.578 88.3125 141.391 88.9844 141.391C90.0833 141.391 90.9375 141.753 91.5469 142.477C92.1562 143.201 92.4609 144.237 92.4609 145.586V146.188H86.7344C86.7552 147.021 86.9974 147.695 87.4609 148.211C87.9297 148.721 88.5234 148.977 89.2422 148.977C89.7526 148.977 90.1849 148.872 90.5391 148.664C90.8932 148.456 91.2031 148.18 91.4688 147.836L92.3516 148.523C91.6432 149.612 90.5807 150.156 89.1641 150.156ZM88.9844 142.578C88.401 142.578 87.9115 142.792 87.5156 143.219C87.1198 143.641 86.875 144.234 86.7812 145H91.0156V144.891C90.974 144.156 90.776 143.589 90.4219 143.188C90.0677 142.781 89.5885 142.578 88.9844 142.578ZM103.328 149.164C102.766 149.826 101.94 150.156 100.852 150.156C99.9505 150.156 99.263 149.896 98.7891 149.375C98.3203 148.849 98.0833 148.073 98.0781 147.047V141.547H99.5234V147.008C99.5234 148.289 100.044 148.93 101.086 148.93C102.19 148.93 102.924 148.518 103.289 147.695V141.547H104.734V150H103.359L103.328 149.164ZM108.305 141.547L108.352 142.609C108.997 141.797 109.841 141.391 110.883 141.391C112.669 141.391 113.57 142.398 113.586 144.414V150H112.141V144.406C112.135 143.797 111.995 143.346 111.719 143.055C111.448 142.763 111.023 142.617 110.445 142.617C109.977 142.617 109.565 142.742 109.211 142.992C108.857 143.242 108.581 143.57 108.383 143.977V150H106.938V141.547H108.305ZM115.414 145.703C115.414 144.406 115.721 143.365 116.336 142.578C116.951 141.786 117.755 141.391 118.75 141.391C119.74 141.391 120.523 141.729 121.102 142.406V138H122.547V150H121.219L121.148 149.094C120.57 149.802 119.766 150.156 118.734 150.156C117.755 150.156 116.956 149.755 116.336 148.953C115.721 148.151 115.414 147.104 115.414 145.812V145.703ZM116.859 145.867C116.859 146.826 117.057 147.576 117.453 148.117C117.849 148.659 118.396 148.93 119.094 148.93C120.01 148.93 120.68 148.518 121.102 147.695V143.812C120.669 143.016 120.005 142.617 119.109 142.617C118.401 142.617 117.849 142.891 117.453 143.438C117.057 143.984 116.859 144.794 116.859 145.867ZM132.344 144.93C131.057 144.56 130.12 144.107 129.531 143.57C128.948 143.029 128.656 142.362 128.656 141.57C128.656 140.674 129.013 139.935 129.727 139.352C130.445 138.763 131.378 138.469 132.523 138.469C133.305 138.469 134 138.62 134.609 138.922C135.224 139.224 135.698 139.641 136.031 140.172C136.37 140.703 136.539 141.284 136.539 141.914H135.031C135.031 141.227 134.812 140.688 134.375 140.297C133.938 139.901 133.32 139.703 132.523 139.703C131.784 139.703 131.206 139.867 130.789 140.195C130.378 140.518 130.172 140.969 130.172 141.547C130.172 142.01 130.367 142.404 130.758 142.727C131.154 143.044 131.823 143.336 132.766 143.602C133.714 143.867 134.453 144.161 134.984 144.484C135.521 144.802 135.917 145.174 136.172 145.602C136.432 146.029 136.562 146.531 136.562 147.109C136.562 148.031 136.203 148.771 135.484 149.328C134.766 149.88 133.805 150.156 132.602 150.156C131.82 150.156 131.091 150.008 130.414 149.711C129.737 149.409 129.214 148.997 128.844 148.477C128.479 147.956 128.297 147.365 128.297 146.703H129.805C129.805 147.391 130.057 147.935 130.562 148.336C131.073 148.732 131.753 148.93 132.602 148.93C133.393 148.93 134 148.768 134.422 148.445C134.844 148.122 135.055 147.682 135.055 147.125C135.055 146.568 134.859 146.138 134.469 145.836C134.078 145.529 133.37 145.227 132.344 144.93ZM141.656 148.977C142.172 148.977 142.622 148.82 143.008 148.508C143.393 148.195 143.607 147.805 143.648 147.336H145.016C144.99 147.82 144.823 148.281 144.516 148.719C144.208 149.156 143.797 149.505 143.281 149.766C142.771 150.026 142.229 150.156 141.656 150.156C140.505 150.156 139.589 149.773 138.906 149.008C138.229 148.237 137.891 147.185 137.891 145.852V145.609C137.891 144.786 138.042 144.055 138.344 143.414C138.646 142.773 139.078 142.276 139.641 141.922C140.208 141.568 140.878 141.391 141.648 141.391C142.596 141.391 143.383 141.674 144.008 142.242C144.638 142.81 144.974 143.547 145.016 144.453H143.648C143.607 143.906 143.398 143.458 143.023 143.109C142.654 142.755 142.195 142.578 141.648 142.578C140.914 142.578 140.344 142.844 139.938 143.375C139.536 143.901 139.336 144.664 139.336 145.664V145.938C139.336 146.911 139.536 147.661 139.938 148.188C140.339 148.714 140.911 148.977 141.656 148.977ZM150.727 142.844C150.508 142.807 150.271 142.789 150.016 142.789C149.068 142.789 148.424 143.193 148.086 144V150H146.641V141.547H148.047L148.07 142.523C148.544 141.768 149.216 141.391 150.086 141.391C150.367 141.391 150.581 141.427 150.727 141.5V142.844ZM151.523 145.695C151.523 144.867 151.685 144.122 152.008 143.461C152.336 142.799 152.789 142.289 153.367 141.93C153.951 141.57 154.615 141.391 155.359 141.391C156.51 141.391 157.44 141.789 158.148 142.586C158.862 143.383 159.219 144.443 159.219 145.766V145.867C159.219 146.69 159.06 147.43 158.742 148.086C158.43 148.737 157.979 149.245 157.391 149.609C156.807 149.974 156.135 150.156 155.375 150.156C154.229 150.156 153.299 149.758 152.586 148.961C151.878 148.164 151.523 147.109 151.523 145.797V145.695ZM152.977 145.867C152.977 146.805 153.193 147.557 153.625 148.125C154.062 148.693 154.646 148.977 155.375 148.977C156.109 148.977 156.693 148.69 157.125 148.117C157.557 147.539 157.773 146.732 157.773 145.695C157.773 144.768 157.552 144.018 157.109 143.445C156.672 142.867 156.089 142.578 155.359 142.578C154.646 142.578 154.07 142.862 153.633 143.43C153.195 143.997 152.977 144.81 152.977 145.867ZM162.602 150H161.156V138H162.602V150ZM166.492 150H165.047V138H166.492V150ZM170.383 150H168.938V138H170.383V150ZM176.211 150.156C175.065 150.156 174.133 149.781 173.414 149.031C172.695 148.276 172.336 147.268 172.336 146.008V145.742C172.336 144.904 172.495 144.156 172.812 143.5C173.135 142.839 173.583 142.323 174.156 141.953C174.734 141.578 175.359 141.391 176.031 141.391C177.13 141.391 177.984 141.753 178.594 142.477C179.203 143.201 179.508 144.237 179.508 145.586V146.188H173.781C173.802 147.021 174.044 147.695 174.508 148.211C174.977 148.721 175.57 148.977 176.289 148.977C176.799 148.977 177.232 148.872 177.586 148.664C177.94 148.456 178.25 148.18 178.516 147.836L179.398 148.523C178.69 149.612 177.628 150.156 176.211 150.156ZM176.031 142.578C175.448 142.578 174.958 142.792 174.562 143.219C174.167 143.641 173.922 144.234 173.828 145H178.062V144.891C178.021 144.156 177.823 143.589 177.469 143.188C177.115 142.781 176.635 142.578 176.031 142.578ZM182.758 150H181.312V141.547H182.758V150ZM181.195 139.305C181.195 139.07 181.266 138.872 181.406 138.711C181.552 138.549 181.766 138.469 182.047 138.469C182.328 138.469 182.542 138.549 182.688 138.711C182.833 138.872 182.906 139.07 182.906 139.305C182.906 139.539 182.833 139.734 182.688 139.891C182.542 140.047 182.328 140.125 182.047 140.125C181.766 140.125 181.552 140.047 181.406 139.891C181.266 139.734 181.195 139.539 181.195 139.305ZM190 147.758C190 147.367 189.852 147.065 189.555 146.852C189.263 146.633 188.75 146.445 188.016 146.289C187.286 146.133 186.706 145.945 186.273 145.727C185.846 145.508 185.529 145.247 185.32 144.945C185.117 144.643 185.016 144.284 185.016 143.867C185.016 143.174 185.307 142.589 185.891 142.109C186.479 141.63 187.229 141.391 188.141 141.391C189.099 141.391 189.875 141.638 190.469 142.133C191.068 142.628 191.367 143.26 191.367 144.031H189.914C189.914 143.635 189.745 143.294 189.406 143.008C189.073 142.721 188.651 142.578 188.141 142.578C187.615 142.578 187.203 142.693 186.906 142.922C186.609 143.151 186.461 143.451 186.461 143.82C186.461 144.169 186.599 144.432 186.875 144.609C187.151 144.786 187.648 144.956 188.367 145.117C189.091 145.279 189.677 145.471 190.125 145.695C190.573 145.919 190.904 146.19 191.117 146.508C191.336 146.82 191.445 147.203 191.445 147.656C191.445 148.411 191.143 149.018 190.539 149.477C189.935 149.93 189.151 150.156 188.188 150.156C187.51 150.156 186.911 150.036 186.391 149.797C185.87 149.557 185.461 149.224 185.164 148.797C184.872 148.365 184.727 147.898 184.727 147.398H186.172C186.198 147.883 186.391 148.268 186.75 148.555C187.115 148.836 187.594 148.977 188.188 148.977C188.734 148.977 189.172 148.867 189.5 148.648C189.833 148.424 190 148.128 190 147.758ZM195.289 139.5V141.547H196.867V142.664H195.289V147.906C195.289 148.245 195.359 148.5 195.5 148.672C195.641 148.839 195.88 148.922 196.219 148.922C196.385 148.922 196.615 148.891 196.906 148.828V150C196.526 150.104 196.156 150.156 195.797 150.156C195.151 150.156 194.664 149.961 194.336 149.57C194.008 149.18 193.844 148.625 193.844 147.906V142.664H192.305V141.547H193.844V139.5H195.289ZM202.07 150.156C200.924 150.156 199.992 149.781 199.273 149.031C198.555 148.276 198.195 147.268 198.195 146.008V145.742C198.195 144.904 198.354 144.156 198.672 143.5C198.995 142.839 199.443 142.323 200.016 141.953C200.594 141.578 201.219 141.391 201.891 141.391C202.99 141.391 203.844 141.753 204.453 142.477C205.062 143.201 205.367 144.237 205.367 145.586V146.188H199.641C199.661 147.021 199.904 147.695 200.367 148.211C200.836 148.721 201.43 148.977 202.148 148.977C202.659 148.977 203.091 148.872 203.445 148.664C203.799 148.456 204.109 148.18 204.375 147.836L205.258 148.523C204.549 149.612 203.487 150.156 202.07 150.156ZM201.891 142.578C201.307 142.578 200.818 142.792 200.422 143.219C200.026 143.641 199.781 144.234 199.688 145H203.922V144.891C203.88 144.156 203.682 143.589 203.328 143.188C202.974 142.781 202.495 142.578 201.891 142.578ZM207 149.242C207 148.992 207.073 148.784 207.219 148.617C207.37 148.451 207.594 148.367 207.891 148.367C208.188 148.367 208.411 148.451 208.562 148.617C208.719 148.784 208.797 148.992 208.797 149.242C208.797 149.482 208.719 149.682 208.562 149.844C208.411 150.005 208.188 150.086 207.891 150.086C207.594 150.086 207.37 150.005 207.219 149.844C207.073 149.682 207 149.482 207 149.242ZM207.008 142.344C207.008 142.094 207.081 141.885 207.227 141.719C207.378 141.552 207.602 141.469 207.898 141.469C208.195 141.469 208.419 141.552 208.57 141.719C208.727 141.885 208.805 142.094 208.805 142.344C208.805 142.583 208.727 142.784 208.57 142.945C208.419 143.107 208.195 143.188 207.898 143.188C207.602 143.188 207.378 143.107 207.227 142.945C207.081 142.784 207.008 142.583 207.008 142.344Z" fill="black"/>
<path d="M33.3203 260V248.625H36.5312C37.5208 248.625 38.3958 248.844 39.1562 249.281C39.9167 249.719 40.5026 250.341 40.9141 251.148C41.3307 251.956 41.5417 252.883 41.5469 253.93V254.656C41.5469 255.729 41.3385 256.669 40.9219 257.477C40.5104 258.284 39.9193 258.904 39.1484 259.336C38.3828 259.768 37.4896 259.99 36.4688 260H33.3203ZM34.8203 249.859V258.773H36.3984C37.5547 258.773 38.4531 258.414 39.0938 257.695C39.7396 256.977 40.0625 255.953 40.0625 254.625V253.961C40.0625 252.669 39.7578 251.667 39.1484 250.953C38.5443 250.234 37.6849 249.87 36.5703 249.859H34.8203ZM47.1016 260.156C45.9557 260.156 45.0234 259.781 44.3047 259.031C43.5859 258.276 43.2266 257.268 43.2266 256.008V255.742C43.2266 254.904 43.3854 254.156 43.7031 253.5C44.026 252.839 44.474 252.323 45.0469 251.953C45.625 251.578 46.25 251.391 46.9219 251.391C48.0208 251.391 48.875 251.753 49.4844 252.477C50.0938 253.201 50.3984 254.237 50.3984 255.586V256.188H44.6719C44.6927 257.021 44.9349 257.695 45.3984 258.211C45.8672 258.721 46.4609 258.977 47.1797 258.977C47.6901 258.977 48.1224 258.872 48.4766 258.664C48.8307 258.456 49.1406 258.18 49.4062 257.836L50.2891 258.523C49.5807 259.612 48.5182 260.156 47.1016 260.156ZM46.9219 252.578C46.3385 252.578 45.849 252.792 45.4531 253.219C45.0573 253.641 44.8125 254.234 44.7188 255H48.9531V254.891C48.9115 254.156 48.7135 253.589 48.3594 253.188C48.0052 252.781 47.526 252.578 46.9219 252.578ZM57.2969 259.164C56.7344 259.826 55.9089 260.156 54.8203 260.156C53.9193 260.156 53.2318 259.896 52.7578 259.375C52.2891 258.849 52.0521 258.073 52.0469 257.047V251.547H53.4922V257.008C53.4922 258.289 54.013 258.93 55.0547 258.93C56.1589 258.93 56.8932 258.518 57.2578 257.695V251.547H58.7031V260H57.3281L57.2969 259.164ZM62.8672 249.5V251.547H64.4453V252.664H62.8672V257.906C62.8672 258.245 62.9375 258.5 63.0781 258.672C63.2188 258.839 63.4583 258.922 63.7969 258.922C63.9635 258.922 64.1927 258.891 64.4844 258.828V260C64.1042 260.104 63.7344 260.156 63.375 260.156C62.7292 260.156 62.2422 259.961 61.9141 259.57C61.5859 259.18 61.4219 258.625 61.4219 257.906V252.664H59.8828V251.547H61.4219V249.5H62.8672ZM71.0625 257.758C71.0625 257.367 70.9141 257.065 70.6172 256.852C70.3255 256.633 69.8125 256.445 69.0781 256.289C68.349 256.133 67.7682 255.945 67.3359 255.727C66.9089 255.508 66.5911 255.247 66.3828 254.945C66.1797 254.643 66.0781 254.284 66.0781 253.867C66.0781 253.174 66.3698 252.589 66.9531 252.109C67.5417 251.63 68.2917 251.391 69.2031 251.391C70.1615 251.391 70.9375 251.638 71.5312 252.133C72.1302 252.628 72.4297 253.26 72.4297 254.031H70.9766C70.9766 253.635 70.8073 253.294 70.4688 253.008C70.1354 252.721 69.7135 252.578 69.2031 252.578C68.6771 252.578 68.2656 252.693 67.9688 252.922C67.6719 253.151 67.5234 253.451 67.5234 253.82C67.5234 254.169 67.6615 254.432 67.9375 254.609C68.2135 254.786 68.7109 254.956 69.4297 255.117C70.1536 255.279 70.7396 255.471 71.1875 255.695C71.6354 255.919 71.9661 256.19 72.1797 256.508C72.3984 256.82 72.5078 257.203 72.5078 257.656C72.5078 258.411 72.2057 259.018 71.6016 259.477C70.9974 259.93 70.2135 260.156 69.25 260.156C68.5729 260.156 67.974 260.036 67.4531 259.797C66.9323 259.557 66.5234 259.224 66.2266 258.797C65.9349 258.365 65.7891 257.898 65.7891 257.398H67.2344C67.2604 257.883 67.4531 258.268 67.8125 258.555C68.1771 258.836 68.6562 258.977 69.25 258.977C69.7969 258.977 70.2344 258.867 70.5625 258.648C70.8958 258.424 71.0625 258.128 71.0625 257.758ZM77.7812 258.977C78.2969 258.977 78.7474 258.82 79.1328 258.508C79.5182 258.195 79.7318 257.805 79.7734 257.336H81.1406C81.1146 257.82 80.9479 258.281 80.6406 258.719C80.3333 259.156 79.9219 259.505 79.4062 259.766C78.8958 260.026 78.3542 260.156 77.7812 260.156C76.6302 260.156 75.7135 259.773 75.0312 259.008C74.3542 258.237 74.0156 257.185 74.0156 255.852V255.609C74.0156 254.786 74.1667 254.055 74.4688 253.414C74.7708 252.773 75.2031 252.276 75.7656 251.922C76.3333 251.568 77.0026 251.391 77.7734 251.391C78.7214 251.391 79.5078 251.674 80.1328 252.242C80.763 252.81 81.099 253.547 81.1406 254.453H79.7734C79.7318 253.906 79.5234 253.458 79.1484 253.109C78.7786 252.755 78.3203 252.578 77.7734 252.578C77.0391 252.578 76.4688 252.844 76.0625 253.375C75.6615 253.901 75.4609 254.664 75.4609 255.664V255.938C75.4609 256.911 75.6615 257.661 76.0625 258.188C76.4635 258.714 77.0365 258.977 77.7812 258.977ZM84.2109 252.57C84.8516 251.784 85.6849 251.391 86.7109 251.391C88.4974 251.391 89.3984 252.398 89.4141 254.414V260H87.9688V254.406C87.9635 253.797 87.8229 253.346 87.5469 253.055C87.276 252.763 86.8516 252.617 86.2734 252.617C85.8047 252.617 85.3932 252.742 85.0391 252.992C84.6849 253.242 84.4089 253.57 84.2109 253.977V260H82.7656V248H84.2109V252.57ZM100.766 259.164C100.203 259.826 99.3776 260.156 98.2891 260.156C97.388 260.156 96.7005 259.896 96.2266 259.375C95.7578 258.849 95.5208 258.073 95.5156 257.047V251.547H96.9609V257.008C96.9609 258.289 97.4818 258.93 98.5234 258.93C99.6276 258.93 100.362 258.518 100.727 257.695V251.547H102.172V260H100.797L100.766 259.164ZM105.742 251.547L105.789 252.609C106.435 251.797 107.279 251.391 108.32 251.391C110.107 251.391 111.008 252.398 111.023 254.414V260H109.578V254.406C109.573 253.797 109.432 253.346 109.156 253.055C108.885 252.763 108.461 252.617 107.883 252.617C107.414 252.617 107.003 252.742 106.648 252.992C106.294 253.242 106.018 253.57 105.82 253.977V260H104.375V251.547H105.742ZM112.852 255.703C112.852 254.406 113.159 253.365 113.773 252.578C114.388 251.786 115.193 251.391 116.188 251.391C117.177 251.391 117.961 251.729 118.539 252.406V248H119.984V260H118.656L118.586 259.094C118.008 259.802 117.203 260.156 116.172 260.156C115.193 260.156 114.393 259.755 113.773 258.953C113.159 258.151 112.852 257.104 112.852 255.812V255.703ZM114.297 255.867C114.297 256.826 114.495 257.576 114.891 258.117C115.286 258.659 115.833 258.93 116.531 258.93C117.448 258.93 118.117 258.518 118.539 257.695V253.812C118.107 253.016 117.443 252.617 116.547 252.617C115.839 252.617 115.286 252.891 114.891 253.438C114.495 253.984 114.297 254.794 114.297 255.867ZM132.859 254.742H127.93V258.773H133.656V260H126.43V248.625H133.578V249.859H127.93V253.516H132.859V254.742ZM136.664 251.547L136.711 252.609C137.357 251.797 138.201 251.391 139.242 251.391C141.029 251.391 141.93 252.398 141.945 254.414V260H140.5V254.406C140.495 253.797 140.354 253.346 140.078 253.055C139.807 252.763 139.383 252.617 138.805 252.617C138.336 252.617 137.924 252.742 137.57 252.992C137.216 253.242 136.94 253.57 136.742 253.977V260H135.297V251.547H136.664ZM143.781 255.703C143.781 254.385 144.086 253.339 144.695 252.562C145.305 251.781 146.112 251.391 147.117 251.391C148.148 251.391 148.953 251.755 149.531 252.484L149.602 251.547H150.922V259.797C150.922 260.891 150.596 261.753 149.945 262.383C149.299 263.013 148.43 263.328 147.336 263.328C146.727 263.328 146.13 263.198 145.547 262.938C144.964 262.677 144.518 262.32 144.211 261.867L144.961 261C145.581 261.766 146.339 262.148 147.234 262.148C147.938 262.148 148.484 261.951 148.875 261.555C149.271 261.159 149.469 260.602 149.469 259.883V259.156C148.891 259.823 148.102 260.156 147.102 260.156C146.112 260.156 145.31 259.758 144.695 258.961C144.086 258.164 143.781 257.078 143.781 255.703ZM145.234 255.867C145.234 256.82 145.43 257.57 145.82 258.117C146.211 258.659 146.758 258.93 147.461 258.93C148.372 258.93 149.042 258.516 149.469 257.688V253.828C149.026 253.021 148.362 252.617 147.477 252.617C146.773 252.617 146.224 252.891 145.828 253.438C145.432 253.984 145.234 254.794 145.234 255.867ZM154.68 260H153.234V248H154.68V260ZM158.57 260H157.125V251.547H158.57V260ZM157.008 249.305C157.008 249.07 157.078 248.872 157.219 248.711C157.365 248.549 157.578 248.469 157.859 248.469C158.141 248.469 158.354 248.549 158.5 248.711C158.646 248.872 158.719 249.07 158.719 249.305C158.719 249.539 158.646 249.734 158.5 249.891C158.354 250.047 158.141 250.125 157.859 250.125C157.578 250.125 157.365 250.047 157.219 249.891C157.078 249.734 157.008 249.539 157.008 249.305ZM165.812 257.758C165.812 257.367 165.664 257.065 165.367 256.852C165.076 256.633 164.562 256.445 163.828 256.289C163.099 256.133 162.518 255.945 162.086 255.727C161.659 255.508 161.341 255.247 161.133 254.945C160.93 254.643 160.828 254.284 160.828 253.867C160.828 253.174 161.12 252.589 161.703 252.109C162.292 251.63 163.042 251.391 163.953 251.391C164.911 251.391 165.688 251.638 166.281 252.133C166.88 252.628 167.18 253.26 167.18 254.031H165.727C165.727 253.635 165.557 253.294 165.219 253.008C164.885 252.721 164.464 252.578 163.953 252.578C163.427 252.578 163.016 252.693 162.719 252.922C162.422 253.151 162.273 253.451 162.273 253.82C162.273 254.169 162.411 254.432 162.688 254.609C162.964 254.786 163.461 254.956 164.18 255.117C164.904 255.279 165.49 255.471 165.938 255.695C166.385 255.919 166.716 256.19 166.93 256.508C167.148 256.82 167.258 257.203 167.258 257.656C167.258 258.411 166.956 259.018 166.352 259.477C165.747 259.93 164.964 260.156 164 260.156C163.323 260.156 162.724 260.036 162.203 259.797C161.682 259.557 161.273 259.224 160.977 258.797C160.685 258.365 160.539 257.898 160.539 257.398H161.984C162.01 257.883 162.203 258.268 162.562 258.555C162.927 258.836 163.406 258.977 164 258.977C164.547 258.977 164.984 258.867 165.312 258.648C165.646 258.424 165.812 258.128 165.812 257.758ZM172.531 258.977C173.047 258.977 173.497 258.82 173.883 258.508C174.268 258.195 174.482 257.805 174.523 257.336H175.891C175.865 257.82 175.698 258.281 175.391 258.719C175.083 259.156 174.672 259.505 174.156 259.766C173.646 260.026 173.104 260.156 172.531 260.156C171.38 260.156 170.464 259.773 169.781 259.008C169.104 258.237 168.766 257.185 168.766 255.852V255.609C168.766 254.786 168.917 254.055 169.219 253.414C169.521 252.773 169.953 252.276 170.516 251.922C171.083 251.568 171.753 251.391 172.523 251.391C173.471 251.391 174.258 251.674 174.883 252.242C175.513 252.81 175.849 253.547 175.891 254.453H174.523C174.482 253.906 174.273 253.458 173.898 253.109C173.529 252.755 173.07 252.578 172.523 252.578C171.789 252.578 171.219 252.844 170.812 253.375C170.411 253.901 170.211 254.664 170.211 255.664V255.938C170.211 256.911 170.411 257.661 170.812 258.188C171.214 258.714 171.786 258.977 172.531 258.977ZM178.961 252.57C179.602 251.784 180.435 251.391 181.461 251.391C183.247 251.391 184.148 252.398 184.164 254.414V260H182.719V254.406C182.714 253.797 182.573 253.346 182.297 253.055C182.026 252.763 181.602 252.617 181.023 252.617C180.555 252.617 180.143 252.742 179.789 252.992C179.435 253.242 179.159 253.57 178.961 253.977V260H177.516V248H178.961V252.57ZM186.281 259.242C186.281 258.992 186.354 258.784 186.5 258.617C186.651 258.451 186.875 258.367 187.172 258.367C187.469 258.367 187.693 258.451 187.844 258.617C188 258.784 188.078 258.992 188.078 259.242C188.078 259.482 188 259.682 187.844 259.844C187.693 260.005 187.469 260.086 187.172 260.086C186.875 260.086 186.651 260.005 186.5 259.844C186.354 259.682 186.281 259.482 186.281 259.242ZM186.289 252.344C186.289 252.094 186.362 251.885 186.508 251.719C186.659 251.552 186.883 251.469 187.18 251.469C187.477 251.469 187.701 251.552 187.852 251.719C188.008 251.885 188.086 252.094 188.086 252.344C188.086 252.583 188.008 252.784 187.852 252.945C187.701 253.107 187.477 253.188 187.18 253.188C186.883 253.188 186.659 253.107 186.508 252.945C186.362 252.784 186.289 252.583 186.289 252.344Z" fill="black"/>
<rect x="228" y="210" width="247" height="8" fill="black" fill-opacity="0.4"/>
<path d="M251.776 153V151.52H255.676V140.28H255.536L252.016 143.56L251.036 142.5L254.736 139.04H257.356V151.52H260.956V153H251.776ZM271.968 140.52H265.848L265.448 145.84H265.588C265.921 145.373 266.294 145 266.708 144.72C267.134 144.44 267.714 144.3 268.448 144.3C269.048 144.3 269.601 144.4 270.108 144.6C270.614 144.8 271.054 145.087 271.428 145.46C271.801 145.82 272.088 146.267 272.288 146.8C272.501 147.333 272.608 147.94 272.608 148.62C272.608 149.3 272.501 149.927 272.288 150.5C272.074 151.06 271.761 151.547 271.348 151.96C270.948 152.36 270.454 152.673 269.868 152.9C269.294 153.127 268.641 153.24 267.908 153.24C267.321 153.24 266.801 153.173 266.348 153.04C265.908 152.907 265.514 152.727 265.168 152.5C264.821 152.273 264.514 152.02 264.248 151.74C263.994 151.46 263.761 151.167 263.548 150.86L264.808 149.9C264.981 150.18 265.161 150.433 265.348 150.66C265.548 150.887 265.761 151.08 265.988 151.24C266.228 151.4 266.501 151.527 266.808 151.62C267.114 151.7 267.481 151.74 267.908 151.74C268.868 151.74 269.594 151.487 270.088 150.98C270.581 150.473 270.828 149.76 270.828 148.84V148.64C270.828 147.72 270.581 147.007 270.088 146.5C269.594 145.993 268.868 145.74 267.908 145.74C267.268 145.74 266.761 145.86 266.388 146.1C266.028 146.327 265.701 146.6 265.408 146.92L263.988 146.72L264.488 139.04H271.968V140.52ZM280 153.24C278.333 153.24 277.113 152.607 276.34 151.34C275.58 150.073 275.2 148.3 275.2 146.02C275.2 143.74 275.58 141.967 276.34 140.7C277.113 139.433 278.333 138.8 280 138.8C281.667 138.8 282.88 139.433 283.64 140.7C284.413 141.967 284.8 143.74 284.8 146.02C284.8 148.3 284.413 150.073 283.64 151.34C282.88 152.607 281.667 153.24 280 153.24ZM280 151.78C280.547 151.78 281.013 151.667 281.4 151.44C281.787 151.213 282.1 150.893 282.34 150.48C282.58 150.067 282.753 149.58 282.86 149.02C282.98 148.46 283.04 147.84 283.04 147.16V144.88C283.04 144.2 282.98 143.58 282.86 143.02C282.753 142.46 282.58 141.973 282.34 141.56C282.1 141.147 281.787 140.827 281.4 140.6C281.013 140.373 280.547 140.26 280 140.26C279.453 140.26 278.987 140.373 278.6 140.6C278.213 140.827 277.9 141.147 277.66 141.56C277.42 141.973 277.24 142.46 277.12 143.02C277.013 143.58 276.96 144.2 276.96 144.88V147.16C276.96 147.84 277.013 148.46 277.12 149.02C277.24 149.58 277.42 150.067 277.66 150.48C277.9 150.893 278.213 151.213 278.6 151.44C278.987 151.667 279.453 151.78 280 151.78ZM291.992 153.24C290.326 153.24 289.106 152.607 288.332 151.34C287.572 150.073 287.192 148.3 287.192 146.02C287.192 143.74 287.572 141.967 288.332 140.7C289.106 139.433 290.326 138.8 291.992 138.8C293.659 138.8 294.872 139.433 295.632 140.7C296.406 141.967 296.792 143.74 296.792 146.02C296.792 148.3 296.406 150.073 295.632 151.34C294.872 152.607 293.659 153.24 291.992 153.24ZM291.992 151.78C292.539 151.78 293.006 151.667 293.392 151.44C293.779 151.213 294.092 150.893 294.332 150.48C294.572 150.067 294.746 149.58 294.852 149.02C294.972 148.46 295.032 147.84 295.032 147.16V144.88C295.032 144.2 294.972 143.58 294.852 143.02C294.746 142.46 294.572 141.973 294.332 141.56C294.092 141.147 293.779 140.827 293.392 140.6C293.006 140.373 292.539 140.26 291.992 140.26C291.446 140.26 290.979 140.373 290.592 140.6C290.206 140.827 289.892 141.147 289.652 141.56C289.412 141.973 289.232 142.46 289.112 143.02C289.006 143.58 288.952 144.2 288.952 144.88V147.16C288.952 147.84 289.006 148.46 289.112 149.02C289.232 149.58 289.412 150.067 289.652 150.48C289.892 150.893 290.206 151.213 290.592 151.44C290.979 151.667 291.446 151.78 291.992 151.78Z" fill="black"/>
<path d="M351.776 153V151.52H355.676V140.28H355.536L352.016 143.56L351.036 142.5L354.736 139.04H357.356V151.52H360.956V153H351.776ZM371.968 140.52H365.848L365.448 145.84H365.588C365.921 145.373 366.294 145 366.708 144.72C367.134 144.44 367.714 144.3 368.448 144.3C369.048 144.3 369.601 144.4 370.108 144.6C370.614 144.8 371.054 145.087 371.428 145.46C371.801 145.82 372.088 146.267 372.288 146.8C372.501 147.333 372.608 147.94 372.608 148.62C372.608 149.3 372.501 149.927 372.288 150.5C372.074 151.06 371.761 151.547 371.348 151.96C370.948 152.36 370.454 152.673 369.868 152.9C369.294 153.127 368.641 153.24 367.908 153.24C367.321 153.24 366.801 153.173 366.348 153.04C365.908 152.907 365.514 152.727 365.168 152.5C364.821 152.273 364.514 152.02 364.248 151.74C363.994 151.46 363.761 151.167 363.548 150.86L364.808 149.9C364.981 150.18 365.161 150.433 365.348 150.66C365.548 150.887 365.761 151.08 365.988 151.24C366.228 151.4 366.501 151.527 366.808 151.62C367.114 151.7 367.481 151.74 367.908 151.74C368.868 151.74 369.594 151.487 370.088 150.98C370.581 150.473 370.828 149.76 370.828 148.84V148.64C370.828 147.72 370.581 147.007 370.088 146.5C369.594 145.993 368.868 145.74 367.908 145.74C367.268 145.74 366.761 145.86 366.388 146.1C366.028 146.327 365.701 146.6 365.408 146.92L363.988 146.72L364.488 139.04H371.968V140.52ZM375.76 153V151.52H379.66V140.28H379.52L376 143.56L375.02 142.5L378.72 139.04H381.34V151.52H384.94V153H375.76ZM391.992 153.24C390.326 153.24 389.106 152.607 388.332 151.34C387.572 150.073 387.192 148.3 387.192 146.02C387.192 143.74 387.572 141.967 388.332 140.7C389.106 139.433 390.326 138.8 391.992 138.8C393.659 138.8 394.872 139.433 395.632 140.7C396.406 141.967 396.792 143.74 396.792 146.02C396.792 148.3 396.406 150.073 395.632 151.34C394.872 152.607 393.659 153.24 391.992 153.24ZM391.992 151.78C392.539 151.78 393.006 151.667 393.392 151.44C393.779 151.213 394.092 150.893 394.332 150.48C394.572 150.067 394.746 149.58 394.852 149.02C394.972 148.46 395.032 147.84 395.032 147.16V144.88C395.032 144.2 394.972 143.58 394.852 143.02C394.746 142.46 394.572 141.973 394.332 141.56C394.092 141.147 393.779 140.827 393.392 140.6C393.006 140.373 392.539 140.26 391.992 140.26C391.446 140.26 390.979 140.373 390.592 140.6C390.206 140.827 389.892 141.147 389.652 141.56C389.412 141.973 389.232 142.46 389.112 143.02C389.006 143.58 388.952 144.2 388.952 144.88V147.16C388.952 147.84 389.006 148.46 389.112 149.02C389.232 149.58 389.412 150.067 389.652 150.48C389.892 150.893 390.206 151.213 390.592 151.44C390.979 151.667 391.446 151.78 391.992 151.78Z" fill="black"/>
<path d="M451.776 153V151.52H455.676V140.28H455.536L452.016 143.56L451.036 142.5L454.736 139.04H457.356V151.52H460.956V153H451.776ZM471.968 140.52H465.848L465.448 145.84H465.588C465.921 145.373 466.294 145 466.708 144.72C467.134 144.44 467.714 144.3 468.448 144.3C469.048 144.3 469.601 144.4 470.108 144.6C470.614 144.8 471.054 145.087 471.428 145.46C471.801 145.82 472.088 146.267 472.288 146.8C472.501 147.333 472.608 147.94 472.608 148.62C472.608 149.3 472.501 149.927 472.288 150.5C472.074 151.06 471.761 151.547 471.348 151.96C470.948 152.36 470.454 152.673 469.868 152.9C469.294 153.127 468.641 153.24 467.908 153.24C467.321 153.24 466.801 153.173 466.348 153.04C465.908 152.907 465.514 152.727 465.168 152.5C464.821 152.273 464.514 152.02 464.248 151.74C463.994 151.46 463.761 151.167 463.548 150.86L464.808 149.9C464.981 150.18 465.161 150.433 465.348 150.66C465.548 150.887 465.761 151.08 465.988 151.24C466.228 151.4 466.501 151.527 466.808 151.62C467.114 151.7 467.481 151.74 467.908 151.74C468.868 151.74 469.594 151.487 470.088 150.98C470.581 150.473 470.828 149.76 470.828 148.84V148.64C470.828 147.72 470.581 147.007 470.088 146.5C469.594 145.993 468.868 145.74 467.908 145.74C467.268 145.74 466.761 145.86 466.388 146.1C466.028 146.327 465.701 146.6 465.408 146.92L463.988 146.72L464.488 139.04H471.968V140.52ZM484.66 153H475.5V151.28L480.06 147.08C480.713 146.48 481.26 145.847 481.7 145.18C482.14 144.5 482.36 143.82 482.36 143.14V142.9C482.36 142.127 482.147 141.5 481.72 141.02C481.293 140.54 480.647 140.3 479.78 140.3C479.353 140.3 478.98 140.36 478.66 140.48C478.34 140.6 478.06 140.767 477.82 140.98C477.593 141.193 477.4 141.447 477.24 141.74C477.093 142.02 476.973 142.327 476.88 142.66L475.38 142.08C475.513 141.667 475.693 141.267 475.92 140.88C476.16 140.48 476.453 140.127 476.8 139.82C477.16 139.513 477.587 139.267 478.08 139.08C478.587 138.893 479.18 138.8 479.86 138.8C480.54 138.8 481.147 138.9 481.68 139.1C482.213 139.3 482.66 139.58 483.02 139.94C483.38 140.3 483.653 140.727 483.84 141.22C484.04 141.713 484.14 142.26 484.14 142.86C484.14 143.407 484.06 143.913 483.9 144.38C483.753 144.847 483.547 145.293 483.28 145.72C483.013 146.133 482.687 146.54 482.3 146.94C481.927 147.34 481.52 147.74 481.08 148.14L477.32 151.52H484.66V153ZM491.992 153.24C490.326 153.24 489.106 152.607 488.332 151.34C487.572 150.073 487.192 148.3 487.192 146.02C487.192 143.74 487.572 141.967 488.332 140.7C489.106 139.433 490.326 138.8 491.992 138.8C493.659 138.8 494.872 139.433 495.632 140.7C496.406 141.967 496.792 143.74 496.792 146.02C496.792 148.3 496.406 150.073 495.632 151.34C494.872 152.607 493.659 153.24 491.992 153.24ZM491.992 151.78C492.539 151.78 493.006 151.667 493.392 151.44C493.779 151.213 494.092 150.893 494.332 150.48C494.572 150.067 494.746 149.58 494.852 149.02C494.972 148.46 495.032 147.84 495.032 147.16V144.88C495.032 144.2 494.972 143.58 494.852 143.02C494.746 142.46 494.572 141.973 494.332 141.56C494.092 141.147 493.779 140.827 493.392 140.6C493.006 140.373 492.539 140.26 491.992 140.26C491.446 140.26 490.979 140.373 490.592 140.6C490.206 140.827 489.892 141.147 489.652 141.56C489.412 141.973 489.232 142.46 489.112 143.02C489.006 143.58 488.952 144.2 488.952 144.88V147.16C488.952 147.84 489.006 148.46 489.112 149.02C489.232 149.58 489.412 150.067 489.652 150.48C489.892 150.893 490.206 151.213 490.592 151.44C490.979 151.667 491.446 151.78 491.992 151.78Z" fill="black"/>
<rect x="374" y="170" width="100" height="30" fill="black" fill-opacity="0.6"/>
<rect x="274" y="170" width="100" height="30" fill="black" fill-opacity="0.6"/>
<rect x="228" y="170" width="46" height="30" fill="black" fill-opacity="0.6"/>
<path d="M474 159L474 199" stroke="black" stroke-width="2" stroke-linecap="round" stroke-linejoin="round"/>
<path d="M374 159L374 199" stroke="black" stroke-width="2" stroke-linecap="round" stroke-linejoin="round"/>
<path d="M274 159L274 199" stroke="black" stroke-width="2" stroke-linecap="round" stroke-linejoin="round"/>
<rect x="291" y="210" width="25" height="8" fill="#FFCC00"/>
<path d="M498.36 210V209.038H500.895V201.732H500.804L498.516 203.864L497.879 203.175L500.284 200.926H501.987V209.038H504.327V210H498.36ZM508.911 210.156C507.828 210.156 507.035 209.744 506.532 208.921C506.038 208.098 505.791 206.945 505.791 205.463C505.791 203.981 506.038 202.828 506.532 202.005C507.035 201.182 507.828 200.77 508.911 200.77C509.995 200.77 510.783 201.182 511.277 202.005C511.78 202.828 512.031 203.981 512.031 205.463C512.031 206.945 511.78 208.098 511.277 208.921C510.783 209.744 509.995 210.156 508.911 210.156ZM508.911 209.207C509.267 209.207 509.57 209.133 509.821 208.986C510.073 208.839 510.276 208.631 510.432 208.362C510.588 208.093 510.701 207.777 510.77 207.413C510.848 207.049 510.887 206.646 510.887 206.204V204.722C510.887 204.28 510.848 203.877 510.77 203.513C510.701 203.149 510.588 202.833 510.432 202.564C510.276 202.295 510.073 202.087 509.821 201.94C509.57 201.793 509.267 201.719 508.911 201.719C508.556 201.719 508.253 201.793 508.001 201.94C507.75 202.087 507.546 202.295 507.39 202.564C507.234 202.833 507.117 203.149 507.039 203.513C506.97 203.877 506.935 204.28 506.935 204.722V206.204C506.935 206.646 506.97 207.049 507.039 207.413C507.117 207.777 507.234 208.093 507.39 208.362C507.546 208.631 507.75 208.839 508.001 208.986C508.253 209.133 508.556 209.207 508.911 209.207ZM513.911 203.292H514.951V204.384H515.003C515.176 203.959 515.428 203.647 515.757 203.448C516.095 203.24 516.498 203.136 516.966 203.136C517.382 203.136 517.759 203.218 518.097 203.383C518.435 203.548 518.721 203.782 518.955 204.085C519.198 204.388 519.38 204.757 519.501 205.19C519.631 205.623 519.696 206.109 519.696 206.646C519.696 207.183 519.631 207.669 519.501 208.102C519.38 208.535 519.198 208.904 518.955 209.207C518.721 209.51 518.435 209.744 518.097 209.909C517.759 210.074 517.382 210.156 516.966 210.156C516.056 210.156 515.402 209.74 515.003 208.908H514.951V212.6H513.911V203.292ZM516.68 209.22C517.269 209.22 517.733 209.038 518.071 208.674C518.409 208.301 518.578 207.816 518.578 207.218V206.074C518.578 205.476 518.409 204.995 518.071 204.631C517.733 204.258 517.269 204.072 516.68 204.072C516.446 204.072 516.221 204.107 516.004 204.176C515.796 204.237 515.614 204.323 515.458 204.436C515.302 204.549 515.176 204.687 515.081 204.852C514.994 205.008 514.951 205.177 514.951 205.359V207.855C514.951 208.072 514.994 208.267 515.081 208.44C515.176 208.605 515.302 208.748 515.458 208.869C515.614 208.982 515.796 209.068 516.004 209.129C516.221 209.19 516.446 209.22 516.68 209.22ZM520.468 210L522.951 206.62L520.572 203.292H521.794L523.497 205.788H523.536L525.304 203.292H526.461L524.095 206.542L526.513 210H525.291L523.549 207.374H523.51L521.625 210H520.468Z" fill="black"/>
<line x1="485" y1="210.5" x2="495" y2="210.5" stroke="black"/>
<line x1="494.5" y1="200" x2="494.5" y2="211" stroke="black"/>
<line x1="485" y1="199.5" x2="495" y2="199.5" stroke="black"/>
<path d="M254.36 290V289.038H256.895V281.732H256.804L254.516 283.864L253.879 283.175L256.284 280.926H257.987V289.038H260.327V290H254.36ZM264.911 290.156C263.828 290.156 263.035 289.744 262.532 288.921C262.038 288.098 261.791 286.945 261.791 285.463C261.791 283.981 262.038 282.828 262.532 282.005C263.035 281.182 263.828 280.77 264.911 280.77C265.995 280.77 266.783 281.182 267.277 282.005C267.78 282.828 268.031 283.981 268.031 285.463C268.031 286.945 267.78 288.098 267.277 288.921C266.783 289.744 265.995 290.156 264.911 290.156ZM264.911 289.207C265.267 289.207 265.57 289.133 265.821 288.986C266.073 288.839 266.276 288.631 266.432 288.362C266.588 288.093 266.701 287.777 266.77 287.413C266.848 287.049 266.887 286.646 266.887 286.204V284.722C266.887 284.28 266.848 283.877 266.77 283.513C266.701 283.149 266.588 282.833 266.432 282.564C266.276 282.295 266.073 282.087 265.821 281.94C265.57 281.793 265.267 281.719 264.911 281.719C264.556 281.719 264.253 281.793 264.001 281.94C263.75 282.087 263.546 282.295 263.39 282.564C263.234 282.833 263.117 283.149 263.039 283.513C262.97 283.877 262.935 284.28 262.935 284.722V286.204C262.935 286.646 262.97 287.049 263.039 287.413C263.117 287.777 263.234 288.093 263.39 288.362C263.546 288.631 263.75 288.839 264.001 288.986C264.253 289.133 264.556 289.207 264.911 289.207ZM269.911 283.292H270.951V284.384H271.003C271.176 283.959 271.428 283.647 271.757 283.448C272.095 283.24 272.498 283.136 272.966 283.136C273.382 283.136 273.759 283.218 274.097 283.383C274.435 283.548 274.721 283.782 274.955 284.085C275.198 284.388 275.38 284.757 275.501 285.19C275.631 285.623 275.696 286.109 275.696 286.646C275.696 287.183 275.631 287.669 275.501 288.102C275.38 288.535 275.198 288.904 274.955 289.207C274.721 289.51 274.435 289.744 274.097 289.909C273.759 290.074 273.382 290.156 272.966 290.156C272.056 290.156 271.402 289.74 271.003 288.908H270.951V292.6H269.911V283.292ZM272.68 289.22C273.269 289.22 273.733 289.038 274.071 288.674C274.409 288.301 274.578 287.816 274.578 287.218V286.074C274.578 285.476 274.409 284.995 274.071 284.631C273.733 284.258 273.269 284.072 272.68 284.072C272.446 284.072 272.221 284.107 272.004 284.176C271.796 284.237 271.614 284.323 271.458 284.436C271.302 284.549 271.176 284.687 271.081 284.852C270.994 285.008 270.951 285.177 270.951 285.359V287.855C270.951 288.072 270.994 288.267 271.081 288.44C271.176 288.605 271.302 288.748 271.458 288.869C271.614 288.982 271.796 289.068 272.004 289.129C272.221 289.19 272.446 289.22 272.68 289.22ZM276.468 290L278.951 286.62L276.572 283.292H277.794L279.497 285.788H279.536L281.304 283.292H282.461L280.095 286.542L282.513 290H281.291L279.549 287.374H279.51L277.625 290H276.468Z" fill="black"/>
<line x1="256" y1="268.5" x2="256" y2="278.5" stroke="black"/>
<line x1="266.5" y1="278" x2="255.5" y2="278" stroke="black"/>
<line x1="267" y1="268.5" x2="267" y2="278.5" stroke="black"/>
<line x1="269" y1="268.5" x2="269" y2="278.5" stroke="black"/>
<line x1="279.5" y1="278" x2="268.5" y2="278" stroke="black"/>
<line x1="280" y1="268.5" x2="280" y2="278.5" stroke="black"/>
<path d="M277.488 260.5V249.332H284.304V250.516H278.832V254.26H283.984V255.444H278.832V259.316H284.304V260.5H277.488ZM286.688 260.5V252.244H287.968V253.588H288.032C288.235 253.119 288.517 252.745 288.88 252.468C289.253 252.191 289.749 252.052 290.368 252.052C291.221 252.052 291.893 252.329 292.384 252.884C292.885 253.428 293.136 254.201 293.136 255.204V260.5H291.856V255.428C291.856 253.945 291.232 253.204 289.984 253.204C289.728 253.204 289.477 253.236 289.232 253.3C288.997 253.364 288.784 253.46 288.592 253.588C288.4 253.716 288.245 253.881 288.128 254.084C288.021 254.276 287.968 254.505 287.968 254.772V260.5H286.688ZM302.742 261.412C302.742 262.265 302.406 262.889 301.734 263.284C301.073 263.689 300.075 263.892 298.742 263.892C297.451 263.892 296.523 263.716 295.958 263.364C295.393 263.012 295.11 262.511 295.11 261.86C295.11 261.412 295.227 261.06 295.462 260.804C295.697 260.559 296.017 260.377 296.422 260.26V260.084C295.931 259.849 295.686 259.465 295.686 258.932C295.686 258.516 295.819 258.201 296.086 257.988C296.353 257.764 296.694 257.599 297.11 257.492V257.428C296.619 257.193 296.235 256.857 295.958 256.42C295.691 255.983 295.558 255.476 295.558 254.9C295.558 254.484 295.633 254.1 295.782 253.748C295.931 253.396 296.139 253.097 296.406 252.852C296.683 252.596 297.009 252.399 297.382 252.26C297.766 252.121 298.193 252.052 298.662 252.052C299.249 252.052 299.771 252.159 300.23 252.372V252.228C300.23 251.908 300.305 251.647 300.454 251.444C300.603 251.231 300.849 251.124 301.19 251.124H302.422V252.244H300.854V252.772C301.153 253.028 301.382 253.337 301.542 253.7C301.713 254.052 301.798 254.452 301.798 254.9C301.798 255.316 301.723 255.7 301.574 256.052C301.425 256.404 301.211 256.708 300.934 256.964C300.667 257.209 300.342 257.401 299.958 257.54C299.574 257.679 299.147 257.748 298.678 257.748C298.411 257.748 298.145 257.721 297.878 257.668C297.601 257.743 297.35 257.855 297.126 258.004C296.902 258.143 296.79 258.34 296.79 258.596C296.79 258.841 296.907 259.007 297.142 259.092C297.377 259.177 297.681 259.22 298.054 259.22H299.814C300.838 259.22 301.579 259.417 302.038 259.812C302.507 260.196 302.742 260.729 302.742 261.412ZM301.542 261.508C301.542 261.177 301.414 260.911 301.158 260.708C300.913 260.516 300.47 260.42 299.83 260.42H297.078C296.566 260.655 296.31 261.028 296.31 261.54C296.31 261.903 296.443 262.212 296.71 262.468C296.987 262.724 297.451 262.852 298.102 262.852H299.286C300.001 262.852 300.555 262.74 300.95 262.516C301.345 262.292 301.542 261.956 301.542 261.508ZM298.678 256.724C299.222 256.724 299.654 256.596 299.974 256.34C300.294 256.073 300.454 255.668 300.454 255.124V254.676C300.454 254.132 300.294 253.732 299.974 253.476C299.654 253.209 299.222 253.076 298.678 253.076C298.134 253.076 297.702 253.209 297.382 253.476C297.062 253.732 296.902 254.132 296.902 254.676V255.124C296.902 255.668 297.062 256.073 297.382 256.34C297.702 256.596 298.134 256.724 298.678 256.724ZM305.595 260.5C305.147 260.5 304.806 260.377 304.571 260.132C304.347 259.876 304.235 259.556 304.235 259.172V248.66H305.515V259.38H306.731V260.5H305.595ZM309.234 250.308C308.957 250.308 308.754 250.244 308.626 250.116C308.509 249.977 308.45 249.801 308.45 249.588V249.38C308.45 249.167 308.509 248.996 308.626 248.868C308.754 248.729 308.957 248.66 309.234 248.66C309.512 248.66 309.709 248.729 309.826 248.868C309.954 248.996 310.018 249.167 310.018 249.38V249.588C310.018 249.801 309.954 249.977 309.826 250.116C309.709 250.244 309.512 250.308 309.234 250.308ZM308.594 252.244H309.874V260.5H308.594V252.244ZM315.074 260.692C314.306 260.692 313.661 260.548 313.138 260.26C312.626 259.961 312.184 259.567 311.81 259.076L312.722 258.34C313.042 258.745 313.4 259.06 313.794 259.284C314.189 259.497 314.648 259.604 315.17 259.604C315.714 259.604 316.136 259.487 316.434 259.252C316.744 259.017 316.898 258.687 316.898 258.26C316.898 257.94 316.792 257.668 316.578 257.444C316.376 257.209 316.002 257.049 315.458 256.964L314.802 256.868C314.418 256.815 314.066 256.735 313.746 256.628C313.426 256.511 313.144 256.361 312.898 256.18C312.664 255.988 312.477 255.753 312.338 255.476C312.21 255.199 312.146 254.868 312.146 254.484C312.146 254.079 312.221 253.727 312.37 253.428C312.52 253.119 312.722 252.863 312.978 252.66C313.245 252.457 313.56 252.308 313.922 252.212C314.285 252.105 314.674 252.052 315.09 252.052C315.762 252.052 316.322 252.169 316.77 252.404C317.229 252.639 317.629 252.964 317.97 253.38L317.122 254.148C316.941 253.892 316.674 253.663 316.322 253.46C315.97 253.247 315.528 253.14 314.994 253.14C314.461 253.14 314.056 253.257 313.778 253.492C313.512 253.716 313.378 254.025 313.378 254.42C313.378 254.825 313.512 255.119 313.778 255.3C314.056 255.481 314.45 255.615 314.962 255.7L315.602 255.796C316.52 255.935 317.17 256.201 317.554 256.596C317.938 256.98 318.13 257.487 318.13 258.116C318.13 258.916 317.858 259.545 317.314 260.004C316.77 260.463 316.024 260.692 315.074 260.692ZM320.391 248.66H321.671V253.588H321.735C321.938 253.119 322.221 252.745 322.583 252.468C322.957 252.191 323.453 252.052 324.071 252.052C324.925 252.052 325.597 252.329 326.087 252.884C326.589 253.428 326.839 254.201 326.839 255.204V260.5H325.559V255.428C325.559 253.945 324.935 253.204 323.687 253.204C323.431 253.204 323.181 253.236 322.935 253.3C322.701 253.364 322.487 253.46 322.295 253.588C322.103 253.716 321.949 253.881 321.831 254.084C321.725 254.276 321.671 254.505 321.671 254.772V260.5H320.391V248.66Z" fill="black"/>
<path d="M200.488 249.332H204.232C204.925 249.332 205.555 249.449 206.12 249.684C206.685 249.919 207.165 250.271 207.56 250.74C207.965 251.199 208.275 251.78 208.488 252.484C208.701 253.177 208.808 253.988 208.808 254.916C208.808 255.844 208.701 256.66 208.488 257.364C208.275 258.057 207.965 258.639 207.56 259.108C207.165 259.567 206.685 259.913 206.12 260.148C205.555 260.383 204.925 260.5 204.232 260.5H200.488V249.332ZM204.232 259.316C204.691 259.316 205.112 259.241 205.496 259.092C205.88 258.932 206.211 258.703 206.488 258.404C206.765 258.105 206.979 257.743 207.128 257.316C207.288 256.879 207.368 256.383 207.368 255.828V254.004C207.368 253.449 207.288 252.959 207.128 252.532C206.979 252.095 206.765 251.727 206.488 251.428C206.211 251.129 205.88 250.905 205.496 250.756C205.112 250.596 204.691 250.516 204.232 250.516H201.832V259.316H204.232ZM214.198 260.692C213.633 260.692 213.121 260.591 212.662 260.388C212.214 260.185 211.825 259.897 211.494 259.524C211.174 259.14 210.924 258.687 210.742 258.164C210.572 257.631 210.486 257.033 210.486 256.372C210.486 255.721 210.572 255.129 210.742 254.596C210.924 254.063 211.174 253.609 211.494 253.236C211.825 252.852 212.214 252.559 212.662 252.356C213.121 252.153 213.633 252.052 214.198 252.052C214.753 252.052 215.249 252.153 215.686 252.356C216.124 252.559 216.497 252.841 216.806 253.204C217.116 253.556 217.35 253.977 217.51 254.468C217.681 254.959 217.766 255.497 217.766 256.084V256.692H211.83V257.076C211.83 257.428 211.884 257.759 211.99 258.068C212.108 258.367 212.268 258.628 212.47 258.852C212.684 259.076 212.94 259.252 213.238 259.38C213.548 259.508 213.894 259.572 214.278 259.572C214.801 259.572 215.254 259.449 215.638 259.204C216.033 258.959 216.337 258.607 216.55 258.148L217.462 258.804C217.196 259.369 216.78 259.828 216.214 260.18C215.649 260.521 214.977 260.692 214.198 260.692ZM214.198 253.124C213.846 253.124 213.526 253.188 213.238 253.316C212.95 253.433 212.7 253.604 212.486 253.828C212.284 254.052 212.124 254.319 212.006 254.628C211.889 254.927 211.83 255.257 211.83 255.62V255.732H216.39V255.556C216.39 254.82 216.188 254.233 215.782 253.796C215.388 253.348 214.86 253.124 214.198 253.124ZM224.964 259.156H224.9C224.814 259.348 224.708 259.54 224.58 259.732C224.462 259.913 224.313 260.079 224.132 260.228C223.95 260.367 223.732 260.479 223.476 260.564C223.22 260.649 222.921 260.692 222.58 260.692C221.726 260.692 221.049 260.42 220.548 259.876C220.046 259.321 219.796 258.543 219.796 257.54V252.244H221.076V257.316C221.076 258.799 221.705 259.54 222.964 259.54C223.22 259.54 223.465 259.508 223.7 259.444C223.945 259.38 224.158 259.284 224.34 259.156C224.532 259.028 224.681 258.868 224.788 258.676C224.905 258.473 224.964 258.233 224.964 257.956V252.244H226.244V260.5H224.964V259.156ZM230.793 260.5C230.345 260.5 230.004 260.377 229.769 260.132C229.545 259.876 229.433 259.545 229.433 259.14V253.364H228.073V252.244H228.841C229.119 252.244 229.305 252.191 229.401 252.084C229.508 251.967 229.561 251.769 229.561 251.492V249.956H230.713V252.244H232.521V253.364H230.713V259.38H232.393V260.5H230.793ZM237.059 260.692C236.291 260.692 235.645 260.548 235.123 260.26C234.611 259.961 234.168 259.567 233.795 259.076L234.707 258.34C235.027 258.745 235.384 259.06 235.779 259.284C236.173 259.497 236.632 259.604 237.155 259.604C237.699 259.604 238.12 259.487 238.419 259.252C238.728 259.017 238.883 258.687 238.883 258.26C238.883 257.94 238.776 257.668 238.563 257.444C238.36 257.209 237.987 257.049 237.443 256.964L236.787 256.868C236.403 256.815 236.051 256.735 235.731 256.628C235.411 256.511 235.128 256.361 234.883 256.18C234.648 255.988 234.461 255.753 234.323 255.476C234.195 255.199 234.131 254.868 234.131 254.484C234.131 254.079 234.205 253.727 234.355 253.428C234.504 253.119 234.707 252.863 234.963 252.66C235.229 252.457 235.544 252.308 235.907 252.212C236.269 252.105 236.659 252.052 237.075 252.052C237.747 252.052 238.307 252.169 238.755 252.404C239.213 252.639 239.613 252.964 239.955 253.38L239.107 254.148C238.925 253.892 238.659 253.663 238.307 253.46C237.955 253.247 237.512 253.14 236.979 253.14C236.445 253.14 236.04 253.257 235.763 253.492C235.496 253.716 235.363 254.025 235.363 254.42C235.363 254.825 235.496 255.119 235.763 255.3C236.04 255.481 236.435 255.615 236.947 255.7L237.587 255.796C238.504 255.935 239.155 256.201 239.539 256.596C239.923 256.98 240.115 257.487 240.115 258.116C240.115 258.916 239.843 259.545 239.299 260.004C238.755 260.463 238.008 260.692 237.059 260.692ZM245.448 260.692C244.872 260.692 244.354 260.591 243.896 260.388C243.437 260.185 243.048 259.897 242.728 259.524C242.418 259.151 242.178 258.697 242.008 258.164C241.848 257.631 241.768 257.033 241.768 256.372C241.768 255.711 241.848 255.113 242.008 254.58C242.178 254.047 242.418 253.593 242.728 253.22C243.048 252.847 243.437 252.559 243.896 252.356C244.354 252.153 244.872 252.052 245.448 252.052C246.269 252.052 246.925 252.233 247.416 252.596C247.917 252.948 248.29 253.412 248.536 253.988L247.464 254.532C247.314 254.105 247.069 253.775 246.728 253.54C246.386 253.305 245.96 253.188 245.448 253.188C245.064 253.188 244.728 253.252 244.44 253.38C244.152 253.497 243.912 253.668 243.72 253.892C243.528 254.105 243.384 254.367 243.288 254.676C243.192 254.975 243.144 255.305 243.144 255.668V257.076C243.144 257.801 243.336 258.399 243.72 258.868C244.114 259.327 244.69 259.556 245.448 259.556C246.482 259.556 247.229 259.076 247.688 258.116L248.616 258.74C248.349 259.337 247.949 259.812 247.416 260.164C246.893 260.516 246.237 260.692 245.448 260.692ZM250.423 248.66H251.703V253.588H251.767C251.969 253.119 252.252 252.745 252.615 252.468C252.988 252.191 253.484 252.052 254.103 252.052C254.956 252.052 255.628 252.329 256.119 252.884C256.62 253.428 256.871 254.201 256.871 255.204V260.5H255.591V255.428C255.591 253.945 254.967 253.204 253.719 253.204C253.463 253.204 253.212 253.236 252.967 253.3C252.732 253.364 252.519 253.46 252.327 253.588C252.135 253.716 251.98 253.881 251.863 254.084C251.756 254.276 251.703 254.505 251.703 254.772V260.5H250.423V248.66Z" fill="black"/>
<path d="M267 244V266" stroke="black" stroke-width="0.3"/>
</svg>
