<svg width="595" height="842" viewBox="0 0 595 842" fill="none" xmlns="http://www.w3.org/2000/svg">
<rect width="595" height="842" fill="white"/>
<path d="M35.5776 80H33.2339V62.2266H35.5776V80ZM42.2183 73.042V80H39.8745V62.2266H46.4297C48.3747 62.2266 49.8965 62.723 50.9951 63.7158C52.1019 64.7087 52.6553 66.0229 52.6553 67.6587C52.6553 69.384 52.1141 70.7145 51.0317 71.6504C49.9575 72.5781 48.4154 73.042 46.4053 73.042H42.2183ZM42.2183 71.1255H46.4297C47.6829 71.1255 48.6432 70.8325 49.3105 70.2466C49.9779 69.6525 50.3115 68.798 50.3115 67.6831C50.3115 66.6252 49.9779 65.7788 49.3105 65.144C48.6432 64.5093 47.7277 64.1797 46.564 64.1553H42.2183V71.1255ZM57.5503 68.3911C58.5513 67.1623 59.8534 66.5479 61.4565 66.5479C64.2479 66.5479 65.6558 68.1226 65.6802 71.272V80H63.4219V71.2598C63.4137 70.3076 63.194 69.6037 62.7627 69.1479C62.3395 68.6922 61.6763 68.4644 60.7729 68.4644C60.0405 68.4644 59.3976 68.6597 58.8442 69.0503C58.2909 69.4409 57.8595 69.9536 57.5503 70.5884V80H55.292V61.25H57.5503V68.3911ZM68.4634 73.2739C68.4634 71.98 68.7157 70.8162 69.2202 69.7827C69.7329 68.7492 70.4409 67.9517 71.3442 67.3901C72.2557 66.8286 73.2933 66.5479 74.457 66.5479C76.2555 66.5479 77.7082 67.1704 78.8149 68.4155C79.9299 69.6606 80.4873 71.3167 80.4873 73.3838V73.5425C80.4873 74.8283 80.2391 75.9839 79.7427 77.0093C79.2544 78.0265 78.5505 78.82 77.6309 79.3896C76.7194 79.9593 75.6696 80.2441 74.4814 80.2441C72.6911 80.2441 71.2384 79.6216 70.1235 78.3765C69.0168 77.1313 68.4634 75.4834 68.4634 73.4326V73.2739ZM70.7339 73.5425C70.7339 75.0073 71.0716 76.1833 71.7471 77.0703C72.4307 77.9574 73.3421 78.4009 74.4814 78.4009C75.6289 78.4009 76.5404 77.9533 77.2158 77.0581C77.8913 76.1548 78.229 74.8934 78.229 73.2739C78.229 71.8254 77.8831 70.6535 77.1914 69.7583C76.5078 68.855 75.5964 68.4033 74.457 68.4033C73.3421 68.4033 72.4429 68.8468 71.7593 69.7339C71.0757 70.6209 70.7339 71.8905 70.7339 73.5425ZM85.4556 66.792L85.5288 68.4521C86.5379 67.1826 87.8563 66.5479 89.4839 66.5479C92.2752 66.5479 93.6831 68.1226 93.7075 71.272V80H91.4492V71.2598C91.4411 70.3076 91.2214 69.6037 90.79 69.1479C90.3669 68.6922 89.7036 68.4644 88.8003 68.4644C88.0679 68.4644 87.425 68.6597 86.8716 69.0503C86.3182 69.4409 85.8869 69.9536 85.5776 70.5884V80H83.3193V66.792H85.4556ZM102.594 80.2441C100.804 80.2441 99.3472 79.6582 98.2241 78.4863C97.1011 77.3063 96.5396 75.7316 96.5396 73.7622V73.3472C96.5396 72.0369 96.7878 70.8691 97.2842 69.8438C97.7887 68.8102 98.4886 68.0046 99.3838 67.4268C100.287 66.8408 101.264 66.5479 102.313 66.5479C104.031 66.5479 105.365 67.1134 106.317 68.2446C107.27 69.3758 107.746 70.9953 107.746 73.103V74.043H98.7979C98.8304 75.3451 99.2088 76.3989 99.9331 77.2046C100.666 78.0021 101.593 78.4009 102.716 78.4009C103.514 78.4009 104.189 78.2381 104.743 77.9126C105.296 77.5871 105.78 77.1558 106.195 76.6187L107.575 77.6929C106.468 79.3937 104.808 80.2441 102.594 80.2441ZM102.313 68.4033C101.402 68.4033 100.637 68.737 100.019 69.4043C99.4001 70.0635 99.0176 70.9912 98.8711 72.1875H105.487V72.0166C105.422 70.8691 105.113 69.9821 104.56 69.3555C104.006 68.7207 103.257 68.4033 102.313 68.4033ZM116.486 72.7856C116.486 70.9465 116.73 69.1805 117.218 67.4878C117.715 65.7951 118.451 64.257 119.428 62.8735C120.404 61.4901 121.417 60.5135 122.467 59.9438L122.931 61.4331C121.743 62.3446 120.766 63.7362 120.001 65.6079C119.245 67.4797 118.83 69.5752 118.756 71.8945L118.744 72.9321C118.744 76.0734 119.318 78.7996 120.465 81.1108C121.157 82.4943 121.979 83.5767 122.931 84.3579L122.467 85.7373C121.385 85.1351 120.351 84.126 119.367 82.71C117.446 79.943 116.486 76.6349 116.486 72.7856ZM139.13 80H136.774V71.7847H127.814V80H125.47V62.2266H127.814V69.8682H136.774V62.2266H139.13V80ZM148.419 80.2441C146.629 80.2441 145.172 79.6582 144.049 78.4863C142.926 77.3063 142.365 75.7316 142.365 73.7622V73.3472C142.365 72.0369 142.613 70.8691 143.109 69.8438C143.614 68.8102 144.314 68.0046 145.209 67.4268C146.112 66.8408 147.089 66.5479 148.139 66.5479C149.856 66.5479 151.19 67.1134 152.143 68.2446C153.095 69.3758 153.571 70.9953 153.571 73.103V74.043H144.623C144.656 75.3451 145.034 76.3989 145.758 77.2046C146.491 78.0021 147.418 78.4009 148.542 78.4009C149.339 78.4009 150.014 78.2381 150.568 77.9126C151.121 77.5871 151.605 77.1558 152.021 76.6187L153.4 77.6929C152.293 79.3937 150.633 80.2441 148.419 80.2441ZM148.139 68.4033C147.227 68.4033 146.462 68.737 145.844 69.4043C145.225 70.0635 144.843 70.9912 144.696 72.1875H151.312V72.0166C151.247 70.8691 150.938 69.9821 150.385 69.3555C149.831 68.7207 149.083 68.4033 148.139 68.4033ZM158.649 80H156.391V61.25H158.649V80ZM164.728 80H162.47V61.25H164.728V80ZM173.566 72.9077C173.566 74.7225 173.326 76.464 172.846 78.1323C172.374 79.7925 171.645 81.3265 170.661 82.7344C169.684 84.1423 168.659 85.1432 167.584 85.7373L167.108 84.3579C168.362 83.3976 169.367 81.9084 170.124 79.8901C170.889 77.8638 171.279 75.6177 171.295 73.1519V72.7612C171.295 71.0522 171.116 69.4653 170.758 68.0005C170.4 66.5275 169.9 65.2091 169.257 64.0454C168.622 62.8817 167.906 61.9743 167.108 61.3232L167.584 59.9438C168.659 60.5379 169.68 61.5308 170.648 62.9224C171.625 64.314 172.353 65.848 172.833 67.5244C173.322 69.2008 173.566 70.9953 173.566 72.9077Z" fill="black"/>
<path d="M42.0962 35.4224C42.0962 34.6411 41.8195 34.0389 41.2661 33.6157C40.7209 33.1925 39.7321 32.7653 38.2998 32.334C36.8675 31.9027 35.7282 31.4225 34.8818 30.8936C33.2624 29.8763 32.4526 28.5498 32.4526 26.9141C32.4526 25.4818 33.0345 24.3018 34.1982 23.374C35.3701 22.4463 36.8879 21.9824 38.7515 21.9824C39.9884 21.9824 41.0911 22.2103 42.0596 22.666C43.028 23.1217 43.7889 23.7728 44.3423 24.6191C44.8957 25.4574 45.1724 26.3892 45.1724 27.4146H42.0962C42.0962 26.4868 41.8032 25.7625 41.2173 25.2417C40.6395 24.7127 39.8094 24.4482 38.7271 24.4482C37.7179 24.4482 36.9326 24.6639 36.3711 25.0952C35.8177 25.5265 35.541 26.1287 35.541 26.9019C35.541 27.5529 35.8421 28.0981 36.4443 28.5376C37.0465 28.9689 38.0394 29.3921 39.4229 29.8071C40.8063 30.214 41.9172 30.682 42.7554 31.2109C43.5936 31.7318 44.208 32.334 44.5986 33.0176C44.9893 33.693 45.1846 34.4865 45.1846 35.3979C45.1846 36.8791 44.6149 38.0591 43.4756 38.938C42.3444 39.8088 40.8063 40.2441 38.8613 40.2441C37.5755 40.2441 36.3914 40.0081 35.3091 39.5361C34.2349 39.056 33.3966 38.3968 32.7944 37.5586C32.2004 36.7204 31.9033 35.7438 31.9033 34.6289H34.9917C34.9917 35.638 35.3254 36.4193 35.9927 36.9727C36.66 37.526 37.6162 37.8027 38.8613 37.8027C39.9355 37.8027 40.7412 37.5871 41.2783 37.1558C41.8236 36.7163 42.0962 36.1385 42.0962 35.4224ZM51.3247 23.5815V26.792H53.6562V28.9893H51.3247V36.3623C51.3247 36.8669 51.4224 37.2331 51.6177 37.4609C51.8211 37.6807 52.1792 37.7905 52.6919 37.7905C53.0337 37.7905 53.3796 37.7498 53.7295 37.6685V39.9634C53.054 40.1506 52.403 40.2441 51.7764 40.2441C49.4977 40.2441 48.3584 38.9868 48.3584 36.4722V28.9893H46.1855V26.792H48.3584V23.5815H51.3247ZM60.5532 35.752L63.2388 26.792H66.4004L61.1514 42.002C60.3457 44.2236 58.9785 45.3345 57.0498 45.3345C56.6185 45.3345 56.1424 45.2612 55.6216 45.1147V42.8198L56.1831 42.8564C56.9318 42.8564 57.4933 42.7181 57.8677 42.4414C58.2502 42.1729 58.5513 41.7171 58.771 41.0742L59.1982 39.939L54.5596 26.792H57.7578L60.5532 35.752ZM71.271 40H68.3047V21.25H71.271V40ZM80.3286 40.2441C78.4487 40.2441 76.9229 39.6541 75.751 38.4741C74.5872 37.286 74.0054 35.7072 74.0054 33.7378V33.3716C74.0054 32.0532 74.2576 30.8773 74.7622 29.8438C75.2749 28.8021 75.991 27.9924 76.9106 27.4146C77.8302 26.8368 78.8556 26.5479 79.9868 26.5479C81.7853 26.5479 83.1729 27.1216 84.1494 28.269C85.1341 29.4165 85.6265 31.04 85.6265 33.1396V34.3359H76.9961C77.0856 35.4264 77.4478 36.2891 78.0825 36.9238C78.7254 37.5586 79.5311 37.876 80.4995 37.876C81.8586 37.876 82.9653 37.3267 83.8198 36.228L85.4189 37.7539C84.89 38.5433 84.182 39.1577 83.2949 39.5972C82.416 40.0285 81.4272 40.2441 80.3286 40.2441ZM79.9746 28.9282C79.1608 28.9282 78.5016 29.2131 77.9971 29.7827C77.5007 30.3524 77.1833 31.1458 77.0449 32.1631H82.6968V31.9434C82.6317 30.9505 82.3672 30.2018 81.9033 29.6973C81.4395 29.1846 80.7965 28.9282 79.9746 28.9282ZM87.4209 33.2983C87.4209 31.2476 87.901 29.6118 88.8613 28.3911C89.8298 27.1623 91.1115 26.5479 92.7065 26.5479C94.2121 26.5479 95.3962 27.0728 96.2588 28.1226L96.3931 26.792H99.0664V39.5972C99.0664 41.3306 98.5252 42.6978 97.4429 43.6987C96.3687 44.6997 94.916 45.2002 93.085 45.2002C92.1165 45.2002 91.1685 44.9967 90.2407 44.5898C89.3211 44.1911 88.6213 43.6662 88.1411 43.0151L89.5449 41.2329C90.4564 42.3153 91.5794 42.8564 92.9141 42.8564C93.8988 42.8564 94.6759 42.5879 95.2456 42.0508C95.8153 41.5218 96.1001 40.7406 96.1001 39.707V38.8159C95.2456 39.7681 94.1063 40.2441 92.6821 40.2441C91.1359 40.2441 89.8704 39.6297 88.8857 38.4009C87.9092 37.172 87.4209 35.4712 87.4209 33.2983ZM90.375 33.5547C90.375 34.8812 90.6436 35.9269 91.1807 36.6919C91.7259 37.4487 92.4787 37.8271 93.439 37.8271C94.6353 37.8271 95.5223 37.3145 96.1001 36.2891V30.4785C95.5386 29.4775 94.6597 28.9771 93.4634 28.9771C92.4868 28.9771 91.7259 29.3636 91.1807 30.1367C90.6436 30.9098 90.375 32.0492 90.375 33.5547ZM110.126 38.7061C109.255 39.7314 108.018 40.2441 106.415 40.2441C104.983 40.2441 103.896 39.825 103.156 38.9868C102.423 38.1486 102.057 36.936 102.057 35.3491V26.792H105.023V35.3125C105.023 36.9889 105.719 37.8271 107.111 37.8271C108.551 37.8271 109.524 37.3104 110.028 36.2769V26.792H112.995V40H110.199L110.126 38.7061ZM119.171 40H116.205V26.792H119.171V40ZM116.022 23.3618C116.022 22.9061 116.164 22.5277 116.449 22.2266C116.742 21.9255 117.157 21.7749 117.694 21.7749C118.231 21.7749 118.646 21.9255 118.939 22.2266C119.232 22.5277 119.379 22.9061 119.379 23.3618C119.379 23.8094 119.232 24.1838 118.939 24.4849C118.646 24.7778 118.231 24.9243 117.694 24.9243C117.157 24.9243 116.742 24.7778 116.449 24.4849C116.164 24.1838 116.022 23.8094 116.022 23.3618ZM121.857 33.2983C121.857 31.2638 122.329 29.6322 123.273 28.4033C124.217 27.1663 125.482 26.5479 127.069 26.5479C128.469 26.5479 129.6 27.0361 130.463 28.0127V21.25H133.429V40H130.744L130.597 38.6328C129.71 39.707 128.526 40.2441 127.045 40.2441C125.499 40.2441 124.245 39.6216 123.285 38.3765C122.333 37.1313 121.857 35.4386 121.857 33.2983ZM124.823 33.5547C124.823 34.8975 125.08 35.9473 125.592 36.7041C126.113 37.4528 126.85 37.8271 127.802 37.8271C129.014 37.8271 129.901 37.286 130.463 36.2036V30.564C129.918 29.506 129.039 28.9771 127.826 28.9771C126.866 28.9771 126.125 29.3595 125.604 30.1245C125.084 30.8813 124.823 32.0247 124.823 33.5547ZM142.34 40.2441C140.46 40.2441 138.935 39.6541 137.763 38.4741C136.599 37.286 136.017 35.7072 136.017 33.7378V33.3716C136.017 32.0532 136.269 30.8773 136.774 29.8438C137.287 28.8021 138.003 27.9924 138.922 27.4146C139.842 26.8368 140.867 26.5479 141.999 26.5479C143.797 26.5479 145.185 27.1216 146.161 28.269C147.146 29.4165 147.638 31.04 147.638 33.1396V34.3359H139.008C139.097 35.4264 139.459 36.2891 140.094 36.9238C140.737 37.5586 141.543 37.876 142.511 37.876C143.87 37.876 144.977 37.3267 145.832 36.228L147.431 37.7539C146.902 38.5433 146.194 39.1577 145.307 39.5972C144.428 40.0285 143.439 40.2441 142.34 40.2441ZM141.986 28.9282C141.173 28.9282 140.513 29.2131 140.009 29.7827C139.512 30.3524 139.195 31.1458 139.057 32.1631H144.708V31.9434C144.643 30.9505 144.379 30.2018 143.915 29.6973C143.451 29.1846 142.808 28.9282 141.986 28.9282Z" fill="black"/>
<path d="M41.2871 109.721H35.5059L34.4121 116H32.5762L35.0469 101.781H43.6016L43.3281 103.324H36.6094L35.7695 108.188H41.5605L41.2871 109.721ZM49.2559 116C49.2103 115.811 49.1875 115.626 49.1875 115.443L49.2168 114.887C48.2467 115.785 47.2181 116.221 46.1309 116.195C45.1999 116.182 44.4414 115.889 43.8555 115.316C43.276 114.737 43.0124 114.014 43.0645 113.148C43.1296 112.029 43.6178 111.156 44.5293 110.531C45.4473 109.9 46.6517 109.584 48.1426 109.584L49.9883 109.594L50.1055 108.754C50.1706 108.122 50.0469 107.624 49.7344 107.26C49.4284 106.889 48.9661 106.697 48.3477 106.684C47.7422 106.671 47.2051 106.82 46.7363 107.133C46.2741 107.439 45.9909 107.846 45.8867 108.354L44.1094 108.363C44.168 107.745 44.4089 107.198 44.832 106.723C45.2552 106.241 45.7988 105.87 46.4629 105.609C47.127 105.342 47.8138 105.215 48.5234 105.229C49.6237 105.255 50.4798 105.59 51.0918 106.234C51.7038 106.872 51.9609 107.722 51.8633 108.783L51.0039 114.018L50.9551 114.77C50.9421 115.128 50.9811 115.482 51.0723 115.834L51.0527 116H49.2559ZM46.4824 114.633C47.0488 114.646 47.5827 114.512 48.084 114.232C48.5918 113.946 49.028 113.552 49.3926 113.051L49.7734 110.873L48.4355 110.863C47.3223 110.863 46.4694 111.039 45.877 111.391C45.2845 111.742 44.9492 112.24 44.8711 112.885C44.8125 113.38 44.9264 113.793 45.2129 114.125C45.5059 114.451 45.929 114.62 46.4824 114.633ZM60.0273 107.045L59.1973 106.957C58.0645 106.957 57.1725 107.468 56.5215 108.49L55.2227 116H53.4551L55.291 105.434L57 105.424L56.7363 106.654C57.485 105.671 58.3672 105.193 59.3828 105.219C59.5977 105.219 59.8776 105.268 60.2227 105.365L60.0273 107.045ZM69.7051 110.766C69.5749 111.846 69.2786 112.82 68.8164 113.686C68.3542 114.551 67.7943 115.193 67.1367 115.609C66.4792 116.026 65.75 116.225 64.9492 116.205C63.6732 116.179 62.7259 115.701 62.1074 114.77L61.7461 116H60.1152L62.7227 101H64.4902L63.4258 106.605C64.2721 105.668 65.3008 105.212 66.5117 105.238C67.5273 105.264 68.3184 105.639 68.8848 106.361C69.4512 107.084 69.7507 108.08 69.7832 109.35C69.7897 109.766 69.7702 110.17 69.7246 110.561L69.7051 110.766ZM68.0254 109.74C68.0449 108.79 67.8854 108.064 67.5469 107.562C67.2083 107.055 66.6908 106.788 65.9941 106.762C64.8939 106.736 63.9629 107.289 63.2012 108.422L62.4102 113.021C62.8008 114.096 63.5332 114.646 64.6074 114.672C65.2975 114.698 65.8997 114.493 66.4141 114.057C66.9349 113.62 67.3288 113.012 67.5957 112.23C67.8626 111.443 68.0059 110.613 68.0254 109.74ZM75.6816 116.195C74.3665 116.169 73.3379 115.684 72.5957 114.74C71.8535 113.796 71.541 112.589 71.6582 111.117L71.707 110.697C71.8177 109.649 72.127 108.692 72.6348 107.826C73.1491 106.96 73.7741 106.309 74.5098 105.873C75.2454 105.43 76.0397 105.219 76.8926 105.238C77.9798 105.264 78.8327 105.626 79.4512 106.322C80.0697 107.019 80.4082 107.963 80.4668 109.154C80.4863 109.577 80.4733 110.001 80.4277 110.424L80.3203 111.234H73.416C73.2988 112.191 73.4551 113.005 73.8848 113.676C74.321 114.346 74.9688 114.695 75.8281 114.721C76.8698 114.747 77.8333 114.278 78.7188 113.314L79.7344 114.174C79.2917 114.812 78.7188 115.313 78.0156 115.678C77.319 116.036 76.541 116.208 75.6816 116.195ZM76.8047 106.713C76.0755 106.693 75.4375 106.941 74.8906 107.455C74.3503 107.969 73.9206 108.734 73.6016 109.75L78.7383 109.76L78.7773 109.604C78.8815 108.783 78.748 108.103 78.377 107.562C78.0124 107.016 77.4883 106.732 76.8047 106.713ZM82.6836 113.949C83.0026 113.943 83.2663 114.04 83.4746 114.242C83.6829 114.444 83.7839 114.704 83.7773 115.023C83.7708 115.342 83.6634 115.603 83.4551 115.805C83.2467 116 82.9863 116.104 82.6738 116.117C82.3613 116.13 82.1042 116.042 81.9023 115.854C81.7005 115.658 81.5996 115.401 81.5996 115.082C81.5996 114.763 81.7005 114.499 81.9023 114.291C82.1042 114.076 82.3646 113.962 82.6836 113.949ZM84.1777 105.326C84.4967 105.32 84.7604 105.417 84.9688 105.619C85.1771 105.821 85.278 106.081 85.2715 106.4C85.265 106.719 85.1576 106.98 84.9492 107.182C84.7409 107.377 84.4805 107.481 84.168 107.494C83.8555 107.507 83.5983 107.419 83.3965 107.23C83.1947 107.035 83.0938 106.778 83.0938 106.459C83.0938 106.14 83.1947 105.876 83.3965 105.668C83.5983 105.453 83.8587 105.339 84.1777 105.326Z" fill="black"/>
<path d="M35.2578 138.625L38.9766 147.906L42.6953 138.625H44.6406V150H43.1406V145.57L43.2812 140.789L39.5469 150H38.3984L34.6719 140.812L34.8203 145.57V150H33.3203V138.625H35.2578ZM50.5703 150.156C49.4245 150.156 48.4922 149.781 47.7734 149.031C47.0547 148.276 46.6953 147.268 46.6953 146.008V145.742C46.6953 144.904 46.8542 144.156 47.1719 143.5C47.4948 142.839 47.9427 142.323 48.5156 141.953C49.0938 141.578 49.7188 141.391 50.3906 141.391C51.4896 141.391 52.3438 141.753 52.9531 142.477C53.5625 143.201 53.8672 144.237 53.8672 145.586V146.188H48.1406C48.1615 147.021 48.4036 147.695 48.8672 148.211C49.3359 148.721 49.9297 148.977 50.6484 148.977C51.1589 148.977 51.5911 148.872 51.9453 148.664C52.2995 148.456 52.6094 148.18 52.875 147.836L53.7578 148.523C53.0495 149.612 51.987 150.156 50.5703 150.156ZM50.3906 142.578C49.8073 142.578 49.3177 142.792 48.9219 143.219C48.526 143.641 48.2812 144.234 48.1875 145H52.4219V144.891C52.3802 144.156 52.1823 143.589 51.8281 143.188C51.474 142.781 50.9948 142.578 50.3906 142.578ZM56.9141 141.547L56.9609 142.609C57.6068 141.797 58.4505 141.391 59.4922 141.391C61.2786 141.391 62.1797 142.398 62.1953 144.414V150H60.75V144.406C60.7448 143.797 60.6042 143.346 60.3281 143.055C60.0573 142.763 59.6328 142.617 59.0547 142.617C58.5859 142.617 58.1745 142.742 57.8203 142.992C57.4661 143.242 57.1901 143.57 56.9922 143.977V150H55.5469V141.547H56.9141ZM69.5938 149.164C69.0312 149.826 68.2057 150.156 67.1172 150.156C66.2161 150.156 65.5286 149.896 65.0547 149.375C64.5859 148.849 64.349 148.073 64.3438 147.047V141.547H65.7891V147.008C65.7891 148.289 66.3099 148.93 67.3516 148.93C68.4557 148.93 69.1901 148.518 69.5547 147.695V141.547H71V150H69.625L69.5938 149.164ZM65.1953 139.289C65.1953 139.055 65.2656 138.859 65.4062 138.703C65.5521 138.542 65.7656 138.461 66.0469 138.461C66.3281 138.461 66.5417 138.542 66.6875 138.703C66.8333 138.859 66.9062 139.055 66.9062 139.289C66.9062 139.523 66.8333 139.719 66.6875 139.875C66.5417 140.031 66.3281 140.109 66.0469 140.109C65.7656 140.109 65.5521 140.031 65.4062 139.875C65.2656 139.719 65.1953 139.523 65.1953 139.289ZM68.5547 139.305C68.5547 139.07 68.625 138.872 68.7656 138.711C68.9115 138.549 69.125 138.469 69.4062 138.469C69.6875 138.469 69.901 138.549 70.0469 138.711C70.1927 138.872 70.2656 139.07 70.2656 139.305C70.2656 139.539 70.1927 139.734 70.0469 139.891C69.901 140.047 69.6875 140.125 69.4062 140.125C69.125 140.125 68.9115 140.047 68.7656 139.891C68.625 139.734 68.5547 139.539 68.5547 139.305ZM78.25 137.852L79.0781 138.414C78.5938 139.076 78.3438 139.789 78.3281 140.555V141.617H76.8906V140.711C76.8906 140.18 77.0156 139.654 77.2656 139.133C77.5208 138.612 77.849 138.185 78.25 137.852ZM80.7109 137.852L81.5391 138.414C81.0547 139.076 80.8047 139.789 80.7891 140.555V141.617H79.3516V140.711C79.3516 140.18 79.4766 139.654 79.7266 139.133C79.9818 138.612 80.3099 138.185 80.7109 137.852ZM91.7969 150H90.2891V144.742H84.5547V150H83.0547V138.625H84.5547V143.516H90.2891V138.625H91.7969V150ZM93.8516 145.695C93.8516 144.867 94.013 144.122 94.3359 143.461C94.6641 142.799 95.1172 142.289 95.6953 141.93C96.2786 141.57 96.9427 141.391 97.6875 141.391C98.8385 141.391 99.7682 141.789 100.477 142.586C101.19 143.383 101.547 144.443 101.547 145.766V145.867C101.547 146.69 101.388 147.43 101.07 148.086C100.758 148.737 100.307 149.245 99.7188 149.609C99.1354 149.974 98.4635 150.156 97.7031 150.156C96.5573 150.156 95.6276 149.758 94.9141 148.961C94.2057 148.164 93.8516 147.109 93.8516 145.797V145.695ZM95.3047 145.867C95.3047 146.805 95.5208 147.557 95.9531 148.125C96.3906 148.693 96.974 148.977 97.7031 148.977C98.4375 148.977 99.0208 148.69 99.4531 148.117C99.8854 147.539 100.102 146.732 100.102 145.695C100.102 144.768 99.8802 144.018 99.4375 143.445C99 142.867 98.4167 142.578 97.6875 142.578C96.974 142.578 96.3984 142.862 95.9609 143.43C95.5234 143.997 95.3047 144.81 95.3047 145.867ZM104.719 141.547L104.758 142.484C105.378 141.755 106.214 141.391 107.266 141.391C108.448 141.391 109.253 141.844 109.68 142.75C109.961 142.344 110.326 142.016 110.773 141.766C111.227 141.516 111.76 141.391 112.375 141.391C114.229 141.391 115.172 142.372 115.203 144.336V150H113.758V144.422C113.758 143.818 113.62 143.367 113.344 143.07C113.068 142.768 112.604 142.617 111.953 142.617C111.417 142.617 110.971 142.779 110.617 143.102C110.263 143.419 110.057 143.849 110 144.391V150H108.547V144.461C108.547 143.232 107.945 142.617 106.742 142.617C105.794 142.617 105.146 143.021 104.797 143.828V150H103.352V141.547H104.719ZM120.898 150.156C119.753 150.156 118.82 149.781 118.102 149.031C117.383 148.276 117.023 147.268 117.023 146.008V145.742C117.023 144.904 117.182 144.156 117.5 143.5C117.823 142.839 118.271 142.323 118.844 141.953C119.422 141.578 120.047 141.391 120.719 141.391C121.818 141.391 122.672 141.753 123.281 142.477C123.891 143.201 124.195 144.237 124.195 145.586V146.188H118.469C118.49 147.021 118.732 147.695 119.195 148.211C119.664 148.721 120.258 148.977 120.977 148.977C121.487 148.977 121.919 148.872 122.273 148.664C122.628 148.456 122.938 148.18 123.203 147.836L124.086 148.523C123.378 149.612 122.315 150.156 120.898 150.156ZM120.719 142.578C120.135 142.578 119.646 142.792 119.25 143.219C118.854 143.641 118.609 144.234 118.516 145H122.75V144.891C122.708 144.156 122.51 143.589 122.156 143.188C121.802 142.781 121.323 142.578 120.719 142.578ZM125.961 141.828L125.141 141.266C125.625 140.589 125.875 139.875 125.891 139.125V138H127.32V139.016C127.315 139.536 127.185 140.057 126.93 140.578C126.68 141.094 126.357 141.51 125.961 141.828ZM128.359 141.828L127.539 141.266C128.023 140.589 128.273 139.875 128.289 139.125V138H129.719V139.016C129.714 139.536 129.583 140.057 129.328 140.578C129.078 141.094 128.755 141.51 128.359 141.828ZM131.438 149.242C131.438 148.992 131.51 148.784 131.656 148.617C131.807 148.451 132.031 148.367 132.328 148.367C132.625 148.367 132.849 148.451 133 148.617C133.156 148.784 133.234 148.992 133.234 149.242C133.234 149.482 133.156 149.682 133 149.844C132.849 150.005 132.625 150.086 132.328 150.086C132.031 150.086 131.807 150.005 131.656 149.844C131.51 149.682 131.438 149.482 131.438 149.242ZM131.445 142.344C131.445 142.094 131.518 141.885 131.664 141.719C131.815 141.552 132.039 141.469 132.336 141.469C132.633 141.469 132.857 141.552 133.008 141.719C133.164 141.885 133.242 142.094 133.242 142.344C133.242 142.583 133.164 142.784 133.008 142.945C132.857 143.107 132.633 143.188 132.336 143.188C132.039 143.188 131.815 143.107 131.664 142.945C131.518 142.784 131.445 142.583 131.445 142.344Z" fill="black"/>
<rect x="253" y="141" width="53" height="52" fill="#FFCC00"/>
<path d="M253 141V140H252V141H253ZM306 141H307V140H306V141ZM306 193V194H307V193H306ZM253 193H252V194H253V193ZM253 142H306V140H253V142ZM305 141V193H307V141H305ZM306 192H253V194H306V192ZM254 193V141H252V193H254Z" fill="black"/>
<path d="M262.849 167.95H261.309L260.949 170H260.309L260.669 167.95H259.389V167.35H260.769L261.049 165.67H259.779V165.07H261.159L261.509 163.02H262.149L261.799 165.07H263.339L263.689 163.02H264.329L263.979 165.07H265.259V165.67H263.869L263.589 167.35H264.869V167.95H263.489L263.129 170H262.489L262.849 167.95ZM262.949 167.35L263.229 165.67H261.689L261.409 167.35H262.949ZM266.848 170V163.02H271.008V163.76H267.688V166.1H270.718V166.84H267.688V170H266.848ZM272.434 170V163.02H276.594V163.76H273.274V166.1H276.304V166.84H273.274V170H272.434ZM280.314 170.12C279.427 170.12 278.737 169.82 278.244 169.22C277.75 168.613 277.504 167.723 277.504 166.55C277.504 165.377 277.75 164.477 278.244 163.85C278.737 163.217 279.427 162.9 280.314 162.9C280.9 162.9 281.39 163.033 281.784 163.3C282.184 163.567 282.494 163.943 282.714 164.43L282.034 164.84C281.894 164.48 281.68 164.193 281.394 163.98C281.107 163.76 280.747 163.65 280.314 163.65C280.014 163.65 279.744 163.707 279.504 163.82C279.27 163.933 279.07 164.097 278.904 164.31C278.744 164.517 278.62 164.767 278.534 165.06C278.447 165.347 278.404 165.67 278.404 166.03V167.07C278.404 167.79 278.57 168.353 278.904 168.76C279.237 169.167 279.707 169.37 280.314 169.37C280.76 169.37 281.134 169.257 281.434 169.03C281.734 168.797 281.954 168.49 282.094 168.11L282.764 168.53C282.544 169.023 282.227 169.413 281.814 169.7C281.4 169.98 280.9 170.12 280.314 170.12ZM286.398 170.12C285.511 170.12 284.821 169.82 284.328 169.22C283.834 168.613 283.588 167.723 283.588 166.55C283.588 165.377 283.834 164.477 284.328 163.85C284.821 163.217 285.511 162.9 286.398 162.9C286.984 162.9 287.474 163.033 287.868 163.3C288.268 163.567 288.578 163.943 288.798 164.43L288.118 164.84C287.978 164.48 287.764 164.193 287.478 163.98C287.191 163.76 286.831 163.65 286.398 163.65C286.098 163.65 285.828 163.707 285.588 163.82C285.354 163.933 285.154 164.097 284.988 164.31C284.828 164.517 284.704 164.767 284.618 165.06C284.531 165.347 284.488 165.67 284.488 166.03V167.07C284.488 167.79 284.654 168.353 284.988 168.76C285.321 169.167 285.791 169.37 286.398 169.37C286.844 169.37 287.218 169.257 287.518 169.03C287.818 168.797 288.038 168.49 288.178 168.11L288.848 168.53C288.628 169.023 288.311 169.413 287.898 169.7C287.484 169.98 286.984 170.12 286.398 170.12ZM292.219 170.12C291.385 170.12 290.775 169.803 290.389 169.17C290.009 168.537 289.819 167.65 289.819 166.51C289.819 165.37 290.009 164.483 290.389 163.85C290.775 163.217 291.385 162.9 292.219 162.9C293.052 162.9 293.659 163.217 294.039 163.85C294.425 164.483 294.619 165.37 294.619 166.51C294.619 167.65 294.425 168.537 294.039 169.17C293.659 169.803 293.052 170.12 292.219 170.12ZM292.219 169.39C292.492 169.39 292.725 169.333 292.919 169.22C293.112 169.107 293.269 168.947 293.389 168.74C293.509 168.533 293.595 168.29 293.649 168.01C293.709 167.73 293.739 167.42 293.739 167.08V165.94C293.739 165.6 293.709 165.29 293.649 165.01C293.595 164.73 293.509 164.487 293.389 164.28C293.269 164.073 293.112 163.913 292.919 163.8C292.725 163.687 292.492 163.63 292.219 163.63C291.945 163.63 291.712 163.687 291.519 163.8C291.325 163.913 291.169 164.073 291.049 164.28C290.929 164.487 290.839 164.73 290.779 165.01C290.725 165.29 290.699 165.6 290.699 165.94V167.08C290.699 167.42 290.725 167.73 290.779 168.01C290.839 168.29 290.929 168.533 291.049 168.74C291.169 168.947 291.325 169.107 291.519 169.22C291.712 169.333 291.945 169.39 292.219 169.39ZM298.215 170.12C297.382 170.12 296.772 169.803 296.385 169.17C296.005 168.537 295.815 167.65 295.815 166.51C295.815 165.37 296.005 164.483 296.385 163.85C296.772 163.217 297.382 162.9 298.215 162.9C299.048 162.9 299.655 163.217 300.035 163.85C300.422 164.483 300.615 165.37 300.615 166.51C300.615 167.65 300.422 168.537 300.035 169.17C299.655 169.803 299.048 170.12 298.215 170.12ZM298.215 169.39C298.488 169.39 298.722 169.333 298.915 169.22C299.108 169.107 299.265 168.947 299.385 168.74C299.505 168.533 299.592 168.29 299.645 168.01C299.705 167.73 299.735 167.42 299.735 167.08V165.94C299.735 165.6 299.705 165.29 299.645 165.01C299.592 164.73 299.505 164.487 299.385 164.28C299.265 164.073 299.108 163.913 298.915 163.8C298.722 163.687 298.488 163.63 298.215 163.63C297.942 163.63 297.708 163.687 297.515 163.8C297.322 163.913 297.165 164.073 297.045 164.28C296.925 164.487 296.835 164.73 296.775 165.01C296.722 165.29 296.695 165.6 296.695 165.94V167.08C296.695 167.42 296.722 167.73 296.775 168.01C296.835 168.29 296.925 168.533 297.045 168.74C297.165 168.947 297.322 169.107 297.515 169.22C297.708 169.333 297.942 169.39 298.215 169.39Z" fill="black"/>
<path d="M35.2578 228.625L38.9766 237.906L42.6953 228.625H44.6406V240H43.1406V235.57L43.2812 230.789L39.5469 240H38.3984L34.6719 230.812L34.8203 235.57V240H33.3203V228.625H35.2578ZM50.5703 240.156C49.4245 240.156 48.4922 239.781 47.7734 239.031C47.0547 238.276 46.6953 237.268 46.6953 236.008V235.742C46.6953 234.904 46.8542 234.156 47.1719 233.5C47.4948 232.839 47.9427 232.323 48.5156 231.953C49.0938 231.578 49.7188 231.391 50.3906 231.391C51.4896 231.391 52.3438 231.753 52.9531 232.477C53.5625 233.201 53.8672 234.237 53.8672 235.586V236.188H48.1406C48.1615 237.021 48.4036 237.695 48.8672 238.211C49.3359 238.721 49.9297 238.977 50.6484 238.977C51.1589 238.977 51.5911 238.872 51.9453 238.664C52.2995 238.456 52.6094 238.18 52.875 237.836L53.7578 238.523C53.0495 239.612 51.987 240.156 50.5703 240.156ZM50.3906 232.578C49.8073 232.578 49.3177 232.792 48.9219 233.219C48.526 233.641 48.2812 234.234 48.1875 235H52.4219V234.891C52.3802 234.156 52.1823 233.589 51.8281 233.188C51.474 232.781 50.9948 232.578 50.3906 232.578ZM56.9141 231.547L56.9609 232.609C57.6068 231.797 58.4505 231.391 59.4922 231.391C61.2786 231.391 62.1797 232.398 62.1953 234.414V240H60.75V234.406C60.7448 233.797 60.6042 233.346 60.3281 233.055C60.0573 232.763 59.6328 232.617 59.0547 232.617C58.5859 232.617 58.1745 232.742 57.8203 232.992C57.4661 233.242 57.1901 233.57 56.9922 233.977V240H55.5469V231.547H56.9141ZM69.5938 239.164C69.0312 239.826 68.2057 240.156 67.1172 240.156C66.2161 240.156 65.5286 239.896 65.0547 239.375C64.5859 238.849 64.349 238.073 64.3438 237.047V231.547H65.7891V237.008C65.7891 238.289 66.3099 238.93 67.3516 238.93C68.4557 238.93 69.1901 238.518 69.5547 237.695V231.547H71V240H69.625L69.5938 239.164ZM65.1953 229.289C65.1953 229.055 65.2656 228.859 65.4062 228.703C65.5521 228.542 65.7656 228.461 66.0469 228.461C66.3281 228.461 66.5417 228.542 66.6875 228.703C66.8333 228.859 66.9062 229.055 66.9062 229.289C66.9062 229.523 66.8333 229.719 66.6875 229.875C66.5417 230.031 66.3281 230.109 66.0469 230.109C65.7656 230.109 65.5521 230.031 65.4062 229.875C65.2656 229.719 65.1953 229.523 65.1953 229.289ZM68.5547 229.305C68.5547 229.07 68.625 228.872 68.7656 228.711C68.9115 228.549 69.125 228.469 69.4062 228.469C69.6875 228.469 69.901 228.549 70.0469 228.711C70.1927 228.872 70.2656 229.07 70.2656 229.305C70.2656 229.539 70.1927 229.734 70.0469 229.891C69.901 230.047 69.6875 230.125 69.4062 230.125C69.125 230.125 68.9115 230.047 68.7656 229.891C68.625 229.734 68.5547 229.539 68.5547 229.305ZM73.1562 239.242C73.1562 238.992 73.2292 238.784 73.375 238.617C73.526 238.451 73.75 238.367 74.0469 238.367C74.3438 238.367 74.5677 238.451 74.7188 238.617C74.875 238.784 74.9531 238.992 74.9531 239.242C74.9531 239.482 74.875 239.682 74.7188 239.844C74.5677 240.005 74.3438 240.086 74.0469 240.086C73.75 240.086 73.526 240.005 73.375 239.844C73.2292 239.682 73.1562 239.482 73.1562 239.242ZM73.1641 232.344C73.1641 232.094 73.237 231.885 73.3828 231.719C73.5339 231.552 73.7578 231.469 74.0547 231.469C74.3516 231.469 74.5755 231.552 74.7266 231.719C74.8828 231.885 74.9609 232.094 74.9609 232.344C74.9609 232.583 74.8828 232.784 74.7266 232.945C74.5755 233.107 74.3516 233.188 74.0547 233.188C73.7578 233.188 73.5339 233.107 73.3828 232.945C73.237 232.784 73.1641 232.583 73.1641 232.344Z" fill="black"/>
<rect x="253" y="231" width="53" height="52" fill="#444444"/>
<path d="M253 231V230H252V231H253ZM306 231H307V230H306V231ZM306 283V284H307V283H306ZM253 283H252V284H253V283ZM253 232H306V230H253V232ZM305 231V283H307V231H305ZM306 282H253V284H306V282ZM254 283V231H252V283H254Z" fill="black"/>
<path d="M262.507 257.95H260.967L260.607 260H259.967L260.327 257.95H259.047V257.35H260.427L260.707 255.67H259.437V255.07H260.817L261.167 253.02H261.807L261.457 255.07H262.997L263.347 253.02H263.987L263.637 255.07H264.917V255.67H263.527L263.247 257.35H264.527V257.95H263.147L262.787 260H262.147L262.507 257.95ZM262.607 257.35L262.887 255.67H261.347L261.067 257.35H262.607ZM269.326 260V258.63H265.956V257.89L268.876 253.02H270.126V257.93H271.136V258.63H270.126V260H269.326ZM266.746 257.93H269.326V253.67H269.276L266.746 257.93ZM275.322 260V258.63H271.952V257.89L274.872 253.02H276.122V257.93H277.132V258.63H276.122V260H275.322ZM272.742 257.93H275.322V253.67H275.272L272.742 257.93ZM281.318 260V258.63H277.948V257.89L280.868 253.02H282.118V257.93H283.128V258.63H282.118V260H281.318ZM278.738 257.93H281.318V253.67H281.268L278.738 257.93ZM287.314 260V258.63H283.944V257.89L286.864 253.02H288.114V257.93H289.124V258.63H288.114V260H287.314ZM284.734 257.93H287.314V253.67H287.264L284.734 257.93ZM293.311 260V258.63H289.941V257.89L292.861 253.02H294.111V257.93H295.121V258.63H294.111V260H293.311ZM290.731 257.93H293.311V253.67H293.261L290.731 257.93ZM299.307 260V258.63H295.937V257.89L298.857 253.02H300.107V257.93H301.117V258.63H300.107V260H299.307ZM296.727 257.93H299.307V253.67H299.257L296.727 257.93Z" fill="white"/>
<path d="M35.2578 318.625L38.9766 327.906L42.6953 318.625H44.6406V330H43.1406V325.57L43.2812 320.789L39.5469 330H38.3984L34.6719 320.812L34.8203 325.57V330H33.3203V318.625H35.2578ZM50.5703 330.156C49.4245 330.156 48.4922 329.781 47.7734 329.031C47.0547 328.276 46.6953 327.268 46.6953 326.008V325.742C46.6953 324.904 46.8542 324.156 47.1719 323.5C47.4948 322.839 47.9427 322.323 48.5156 321.953C49.0938 321.578 49.7188 321.391 50.3906 321.391C51.4896 321.391 52.3438 321.753 52.9531 322.477C53.5625 323.201 53.8672 324.237 53.8672 325.586V326.188H48.1406C48.1615 327.021 48.4036 327.695 48.8672 328.211C49.3359 328.721 49.9297 328.977 50.6484 328.977C51.1589 328.977 51.5911 328.872 51.9453 328.664C52.2995 328.456 52.6094 328.18 52.875 327.836L53.7578 328.523C53.0495 329.612 51.987 330.156 50.5703 330.156ZM50.3906 322.578C49.8073 322.578 49.3177 322.792 48.9219 323.219C48.526 323.641 48.2812 324.234 48.1875 325H52.4219V324.891C52.3802 324.156 52.1823 323.589 51.8281 323.188C51.474 322.781 50.9948 322.578 50.3906 322.578ZM56.9141 321.547L56.9609 322.609C57.6068 321.797 58.4505 321.391 59.4922 321.391C61.2786 321.391 62.1797 322.398 62.1953 324.414V330H60.75V324.406C60.7448 323.797 60.6042 323.346 60.3281 323.055C60.0573 322.763 59.6328 322.617 59.0547 322.617C58.5859 322.617 58.1745 322.742 57.8203 322.992C57.4661 323.242 57.1901 323.57 56.9922 323.977V330H55.5469V321.547H56.9141ZM69.5938 329.164C69.0312 329.826 68.2057 330.156 67.1172 330.156C66.2161 330.156 65.5286 329.896 65.0547 329.375C64.5859 328.849 64.349 328.073 64.3438 327.047V321.547H65.7891V327.008C65.7891 328.289 66.3099 328.93 67.3516 328.93C68.4557 328.93 69.1901 328.518 69.5547 327.695V321.547H71V330H69.625L69.5938 329.164ZM65.1953 319.289C65.1953 319.055 65.2656 318.859 65.4062 318.703C65.5521 318.542 65.7656 318.461 66.0469 318.461C66.3281 318.461 66.5417 318.542 66.6875 318.703C66.8333 318.859 66.9062 319.055 66.9062 319.289C66.9062 319.523 66.8333 319.719 66.6875 319.875C66.5417 320.031 66.3281 320.109 66.0469 320.109C65.7656 320.109 65.5521 320.031 65.4062 319.875C65.2656 319.719 65.1953 319.523 65.1953 319.289ZM68.5547 319.305C68.5547 319.07 68.625 318.872 68.7656 318.711C68.9115 318.549 69.125 318.469 69.4062 318.469C69.6875 318.469 69.901 318.549 70.0469 318.711C70.1927 318.872 70.2656 319.07 70.2656 319.305C70.2656 319.539 70.1927 319.734 70.0469 319.891C69.901 320.047 69.6875 320.125 69.4062 320.125C69.125 320.125 68.9115 320.047 68.7656 319.891C68.625 319.734 68.5547 319.539 68.5547 319.305ZM73.1562 329.242C73.1562 328.992 73.2292 328.784 73.375 328.617C73.526 328.451 73.75 328.367 74.0469 328.367C74.3438 328.367 74.5677 328.451 74.7188 328.617C74.875 328.784 74.9531 328.992 74.9531 329.242C74.9531 329.482 74.875 329.682 74.7188 329.844C74.5677 330.005 74.3438 330.086 74.0469 330.086C73.75 330.086 73.526 330.005 73.375 329.844C73.2292 329.682 73.1562 329.482 73.1562 329.242ZM73.1641 322.344C73.1641 322.094 73.237 321.885 73.3828 321.719C73.5339 321.552 73.7578 321.469 74.0547 321.469C74.3516 321.469 74.5755 321.552 74.7266 321.719C74.8828 321.885 74.9609 322.094 74.9609 322.344C74.9609 322.583 74.8828 322.784 74.7266 322.945C74.5755 323.107 74.3516 323.188 74.0547 323.188C73.7578 323.188 73.5339 323.107 73.3828 322.945C73.237 322.784 73.1641 322.583 73.1641 322.344Z" fill="black"/>
<rect x="253" y="321" width="53" height="52" fill="#FFCC00"/>
<path d="M253 321V320H252V321H253ZM306 321H307V320H306V321ZM306 373V374H307V373H306ZM253 373H252V374H253V373ZM253 322H306V320H253V322ZM305 321V373H307V321H305ZM306 372H253V374H306V372ZM254 373V321H252V373H254Z" fill="black"/>
<path d="M262.849 347.95H261.309L260.949 350H260.309L260.669 347.95H259.389V347.35H260.769L261.049 345.67H259.779V345.07H261.159L261.509 343.02H262.149L261.799 345.07H263.339L263.689 343.02H264.329L263.979 345.07H265.259V345.67H263.869L263.589 347.35H264.869V347.95H263.489L263.129 350H262.489L262.849 347.95ZM262.949 347.35L263.229 345.67H261.689L261.409 347.35H262.949ZM266.848 350V343.02H271.008V343.76H267.688V346.1H270.718V346.84H267.688V350H266.848ZM272.434 350V343.02H276.594V343.76H273.274V346.1H276.304V346.84H273.274V350H272.434ZM280.314 350.12C279.427 350.12 278.737 349.82 278.244 349.22C277.75 348.613 277.504 347.723 277.504 346.55C277.504 345.377 277.75 344.477 278.244 343.85C278.737 343.217 279.427 342.9 280.314 342.9C280.9 342.9 281.39 343.033 281.784 343.3C282.184 343.567 282.494 343.943 282.714 344.43L282.034 344.84C281.894 344.48 281.68 344.193 281.394 343.98C281.107 343.76 280.747 343.65 280.314 343.65C280.014 343.65 279.744 343.707 279.504 343.82C279.27 343.933 279.07 344.097 278.904 344.31C278.744 344.517 278.62 344.767 278.534 345.06C278.447 345.347 278.404 345.67 278.404 346.03V347.07C278.404 347.79 278.57 348.353 278.904 348.76C279.237 349.167 279.707 349.37 280.314 349.37C280.76 349.37 281.134 349.257 281.434 349.03C281.734 348.797 281.954 348.49 282.094 348.11L282.764 348.53C282.544 349.023 282.227 349.413 281.814 349.7C281.4 349.98 280.9 350.12 280.314 350.12ZM286.398 350.12C285.511 350.12 284.821 349.82 284.328 349.22C283.834 348.613 283.588 347.723 283.588 346.55C283.588 345.377 283.834 344.477 284.328 343.85C284.821 343.217 285.511 342.9 286.398 342.9C286.984 342.9 287.474 343.033 287.868 343.3C288.268 343.567 288.578 343.943 288.798 344.43L288.118 344.84C287.978 344.48 287.764 344.193 287.478 343.98C287.191 343.76 286.831 343.65 286.398 343.65C286.098 343.65 285.828 343.707 285.588 343.82C285.354 343.933 285.154 344.097 284.988 344.31C284.828 344.517 284.704 344.767 284.618 345.06C284.531 345.347 284.488 345.67 284.488 346.03V347.07C284.488 347.79 284.654 348.353 284.988 348.76C285.321 349.167 285.791 349.37 286.398 349.37C286.844 349.37 287.218 349.257 287.518 349.03C287.818 348.797 288.038 348.49 288.178 348.11L288.848 348.53C288.628 349.023 288.311 349.413 287.898 349.7C287.484 349.98 286.984 350.12 286.398 350.12ZM292.219 350.12C291.385 350.12 290.775 349.803 290.389 349.17C290.009 348.537 289.819 347.65 289.819 346.51C289.819 345.37 290.009 344.483 290.389 343.85C290.775 343.217 291.385 342.9 292.219 342.9C293.052 342.9 293.659 343.217 294.039 343.85C294.425 344.483 294.619 345.37 294.619 346.51C294.619 347.65 294.425 348.537 294.039 349.17C293.659 349.803 293.052 350.12 292.219 350.12ZM292.219 349.39C292.492 349.39 292.725 349.333 292.919 349.22C293.112 349.107 293.269 348.947 293.389 348.74C293.509 348.533 293.595 348.29 293.649 348.01C293.709 347.73 293.739 347.42 293.739 347.08V345.94C293.739 345.6 293.709 345.29 293.649 345.01C293.595 344.73 293.509 344.487 293.389 344.28C293.269 344.073 293.112 343.913 292.919 343.8C292.725 343.687 292.492 343.63 292.219 343.63C291.945 343.63 291.712 343.687 291.519 343.8C291.325 343.913 291.169 344.073 291.049 344.28C290.929 344.487 290.839 344.73 290.779 345.01C290.725 345.29 290.699 345.6 290.699 345.94V347.08C290.699 347.42 290.725 347.73 290.779 348.01C290.839 348.29 290.929 348.533 291.049 348.74C291.169 348.947 291.325 349.107 291.519 349.22C291.712 349.333 291.945 349.39 292.219 349.39ZM298.215 350.12C297.382 350.12 296.772 349.803 296.385 349.17C296.005 348.537 295.815 347.65 295.815 346.51C295.815 345.37 296.005 344.483 296.385 343.85C296.772 343.217 297.382 342.9 298.215 342.9C299.048 342.9 299.655 343.217 300.035 343.85C300.422 344.483 300.615 345.37 300.615 346.51C300.615 347.65 300.422 348.537 300.035 349.17C299.655 349.803 299.048 350.12 298.215 350.12ZM298.215 349.39C298.488 349.39 298.722 349.333 298.915 349.22C299.108 349.107 299.265 348.947 299.385 348.74C299.505 348.533 299.592 348.29 299.645 348.01C299.705 347.73 299.735 347.42 299.735 347.08V345.94C299.735 345.6 299.705 345.29 299.645 345.01C299.592 344.73 299.505 344.487 299.385 344.28C299.265 344.073 299.108 343.913 298.915 343.8C298.722 343.687 298.488 343.63 298.215 343.63C297.942 343.63 297.708 343.687 297.515 343.8C297.322 343.913 297.165 344.073 297.045 344.28C296.925 344.487 296.835 344.73 296.775 345.01C296.722 345.29 296.695 345.6 296.695 345.94V347.08C296.695 347.42 296.722 347.73 296.775 348.01C296.835 348.29 296.925 348.533 297.045 348.74C297.165 348.947 297.322 349.107 297.515 349.22C297.708 349.333 297.942 349.39 298.215 349.39Z" fill="black"/>
<path d="M30.8442 346.249C30.8442 345.292 30.9712 344.374 31.2251 343.494C31.4832 342.613 31.8662 341.814 32.374 341.094C32.8818 340.375 33.4087 339.867 33.9546 339.571L34.1958 340.345C33.578 340.819 33.0701 341.543 32.6724 342.516C32.2788 343.489 32.063 344.579 32.0249 345.785L32.0186 346.325C32.0186 347.958 32.3169 349.376 32.9136 350.578C33.2733 351.297 33.7007 351.86 34.1958 352.266L33.9546 352.983C33.3918 352.67 32.8543 352.146 32.3423 351.409C31.3436 349.97 30.8442 348.25 30.8442 346.249ZM37.5981 348.407L39.2993 343.132H40.499L38.0361 350H37.1411L34.6528 343.132H35.8525L37.5981 348.407ZM41.2163 346.502C41.2163 345.83 41.3475 345.224 41.6099 344.687C41.8765 344.15 42.2446 343.735 42.7144 343.443C43.1883 343.151 43.7279 343.005 44.333 343.005C45.2682 343.005 46.0236 343.329 46.5991 343.976C47.1789 344.624 47.4688 345.485 47.4688 346.56V346.642C47.4688 347.311 47.3397 347.912 47.0815 348.445C46.8276 348.974 46.4616 349.386 45.9834 349.683C45.5094 349.979 44.9635 350.127 44.3457 350.127C43.4147 350.127 42.6593 349.803 42.0796 349.156C41.5041 348.508 41.2163 347.651 41.2163 346.585V346.502ZM42.397 346.642C42.397 347.404 42.5726 348.015 42.9238 348.477C43.2793 348.938 43.7533 349.168 44.3457 349.168C44.9424 349.168 45.4163 348.936 45.7676 348.47C46.1188 348 46.2944 347.345 46.2944 346.502C46.2944 345.749 46.1146 345.14 45.7549 344.674C45.3994 344.205 44.9255 343.97 44.333 343.97C43.7533 343.97 43.2856 344.2 42.9302 344.662C42.5747 345.123 42.397 345.783 42.397 346.642ZM50.0522 343.132L50.0903 343.995C50.6151 343.335 51.3006 343.005 52.147 343.005C53.5985 343.005 54.3306 343.824 54.3433 345.461V350H53.1689V345.455C53.1647 344.96 53.0505 344.594 52.8262 344.357C52.6061 344.12 52.2612 344.001 51.7915 344.001C51.4106 344.001 51.0763 344.103 50.7886 344.306C50.5008 344.509 50.2765 344.776 50.1157 345.106V350H48.9414V343.132H50.0522ZM60.2148 340.129L60.8877 340.586C60.4941 341.124 60.291 341.704 60.2783 342.326V343.189H59.1104V342.453C59.1104 342.021 59.2119 341.594 59.415 341.17C59.6224 340.747 59.889 340.4 60.2148 340.129ZM62.2144 340.129L62.8872 340.586C62.4937 341.124 62.2905 341.704 62.2778 342.326V343.189H61.1099V342.453C61.1099 342.021 61.2114 341.594 61.4146 341.17C61.6219 340.747 61.8885 340.4 62.2144 340.129ZM71.2217 350H69.9966V345.728H65.3374V350H64.1187V340.758H65.3374V344.731H69.9966V340.758H71.2217V350ZM72.8911 346.502C72.8911 345.83 73.0223 345.224 73.2847 344.687C73.5513 344.15 73.9194 343.735 74.3892 343.443C74.8631 343.151 75.4027 343.005 76.0078 343.005C76.943 343.005 77.6984 343.329 78.2739 343.976C78.8537 344.624 79.1436 345.485 79.1436 346.56V346.642C79.1436 347.311 79.0145 347.912 78.7563 348.445C78.5024 348.974 78.1364 349.386 77.6582 349.683C77.1842 349.979 76.6383 350.127 76.0205 350.127C75.0895 350.127 74.3341 349.803 73.7544 349.156C73.1789 348.508 72.8911 347.651 72.8911 346.585V346.502ZM74.0718 346.642C74.0718 347.404 74.2474 348.015 74.5986 348.477C74.9541 348.938 75.4281 349.168 76.0205 349.168C76.6172 349.168 77.0911 348.936 77.4424 348.47C77.7936 348 77.9692 347.345 77.9692 346.502C77.9692 345.749 77.7894 345.14 77.4297 344.674C77.0742 344.205 76.6003 343.97 76.0078 343.97C75.4281 343.97 74.9604 344.2 74.605 344.662C74.2495 345.123 74.0718 345.783 74.0718 346.642ZM81.7207 343.132L81.7524 343.894C82.256 343.301 82.9352 343.005 83.79 343.005C84.7507 343.005 85.4045 343.373 85.7515 344.109C85.98 343.779 86.2762 343.513 86.6401 343.31C87.0083 343.106 87.4421 343.005 87.9414 343.005C89.4479 343.005 90.2139 343.803 90.2393 345.398V350H89.0649V345.468C89.0649 344.977 88.9528 344.611 88.7285 344.37C88.5042 344.124 88.1276 344.001 87.5986 344.001C87.1628 344.001 86.8009 344.133 86.5132 344.395C86.2254 344.653 86.0583 345.002 86.0117 345.442V350H84.8311V345.5C84.8311 344.501 84.3423 344.001 83.3647 344.001C82.5946 344.001 82.0677 344.329 81.7842 344.985V350H80.6099V343.132H81.7207ZM94.8667 350.127C93.9357 350.127 93.1782 349.822 92.5942 349.213C92.0103 348.599 91.7183 347.78 91.7183 346.756V346.541C91.7183 345.859 91.8473 345.252 92.1055 344.719C92.3678 344.181 92.7318 343.762 93.1973 343.462C93.667 343.157 94.1748 343.005 94.7207 343.005C95.6136 343.005 96.3076 343.299 96.8027 343.887C97.2979 344.475 97.5454 345.318 97.5454 346.414V346.902H92.8926C92.9095 347.579 93.1063 348.127 93.4829 348.546C93.8638 348.961 94.3462 349.168 94.9302 349.168C95.3449 349.168 95.6961 349.084 95.9839 348.915C96.2716 348.745 96.5234 348.521 96.7393 348.242L97.4565 348.8C96.881 349.685 96.0177 350.127 94.8667 350.127ZM94.7207 343.97C94.2467 343.97 93.849 344.143 93.5273 344.49C93.2057 344.833 93.0068 345.315 92.9307 345.938H96.3711V345.849C96.3372 345.252 96.1764 344.791 95.8887 344.465C95.6009 344.135 95.2116 343.97 94.7207 343.97ZM98.98 343.36L98.3135 342.903C98.707 342.353 98.9102 341.773 98.9229 341.164V340.25H100.084V341.075C100.08 341.498 99.9744 341.922 99.7671 342.345C99.564 342.764 99.3016 343.102 98.98 343.36ZM100.929 343.36L100.262 342.903C100.656 342.353 100.859 341.773 100.872 341.164V340.25H102.033V341.075C102.029 341.498 101.923 341.922 101.716 342.345C101.513 342.764 101.25 343.102 100.929 343.36ZM107.968 350H106.794V343.132H107.968V350ZM106.699 341.31C106.699 341.12 106.756 340.959 106.87 340.828C106.989 340.696 107.162 340.631 107.391 340.631C107.619 340.631 107.793 340.696 107.911 340.828C108.03 340.959 108.089 341.12 108.089 341.31C108.089 341.5 108.03 341.659 107.911 341.786C107.793 341.913 107.619 341.977 107.391 341.977C107.162 341.977 106.989 341.913 106.87 341.786C106.756 341.659 106.699 341.5 106.699 341.31ZM110.964 343.132L111.002 343.995C111.527 343.335 112.213 343.005 113.059 343.005C114.511 343.005 115.243 343.824 115.255 345.461V350H114.081V345.455C114.077 344.96 113.963 344.594 113.738 344.357C113.518 344.12 113.173 344.001 112.704 344.001C112.323 344.001 111.988 344.103 111.701 344.306C111.413 344.509 111.189 344.776 111.028 345.106V350H109.854V343.132H110.964ZM121.025 348.178C121.025 347.861 120.905 347.615 120.664 347.442C120.427 347.264 120.01 347.112 119.413 346.985C118.821 346.858 118.349 346.706 117.998 346.528C117.651 346.35 117.392 346.139 117.223 345.893C117.058 345.648 116.976 345.356 116.976 345.017C116.976 344.454 117.213 343.978 117.687 343.589C118.165 343.2 118.774 343.005 119.515 343.005C120.293 343.005 120.924 343.206 121.406 343.608C121.893 344.01 122.136 344.524 122.136 345.15H120.956C120.956 344.829 120.818 344.552 120.543 344.319C120.272 344.086 119.929 343.97 119.515 343.97C119.087 343.97 118.753 344.063 118.512 344.249C118.271 344.435 118.15 344.679 118.15 344.979C118.15 345.263 118.262 345.476 118.486 345.62C118.711 345.764 119.115 345.902 119.699 346.033C120.287 346.164 120.763 346.32 121.127 346.502C121.491 346.684 121.76 346.904 121.933 347.163C122.111 347.417 122.2 347.728 122.2 348.096C122.2 348.709 121.954 349.202 121.463 349.575C120.972 349.943 120.336 350.127 119.553 350.127C119.003 350.127 118.516 350.03 118.093 349.835C117.67 349.64 117.337 349.369 117.096 349.022C116.859 348.671 116.741 348.292 116.741 347.886H117.915C117.936 348.28 118.093 348.593 118.385 348.826C118.681 349.054 119.07 349.168 119.553 349.168C119.997 349.168 120.353 349.08 120.619 348.902C120.89 348.72 121.025 348.479 121.025 348.178ZM127.138 350V340.758H130.16C131.163 340.758 131.916 340.965 132.419 341.38C132.927 341.795 133.181 342.408 133.181 343.221C133.181 343.652 133.058 344.035 132.813 344.37C132.568 344.7 132.233 344.956 131.81 345.138C132.309 345.277 132.703 345.544 132.991 345.938C133.283 346.327 133.429 346.792 133.429 347.334C133.429 348.163 133.16 348.815 132.623 349.289C132.085 349.763 131.326 350 130.344 350H127.138ZM128.357 345.677V349.003H130.369C130.936 349.003 131.383 348.857 131.708 348.565C132.039 348.269 132.204 347.863 132.204 347.347C132.204 346.234 131.598 345.677 130.388 345.677H128.357ZM128.357 344.7H130.198C130.731 344.7 131.156 344.566 131.474 344.3C131.795 344.033 131.956 343.671 131.956 343.214C131.956 342.707 131.808 342.338 131.512 342.11C131.215 341.877 130.765 341.761 130.16 341.761H128.357V344.7ZM136.33 350H135.155V343.132H136.33V350ZM135.06 341.31C135.06 341.12 135.117 340.959 135.231 340.828C135.35 340.696 135.523 340.631 135.752 340.631C135.98 340.631 136.154 340.696 136.272 340.828C136.391 340.959 136.45 341.12 136.45 341.31C136.45 341.5 136.391 341.659 136.272 341.786C136.154 341.913 135.98 341.977 135.752 341.977C135.523 341.977 135.35 341.913 135.231 341.786C135.117 341.659 135.06 341.5 135.06 341.31ZM139.491 350H138.316V340.25H139.491V350ZM141.09 346.509C141.09 345.455 141.34 344.609 141.839 343.97C142.339 343.326 142.993 343.005 143.801 343.005C144.605 343.005 145.242 343.28 145.711 343.83V340.25H146.886V350H145.807L145.75 349.264C145.28 349.839 144.626 350.127 143.788 350.127C142.993 350.127 142.343 349.801 141.839 349.149C141.34 348.498 141.09 347.647 141.09 346.598V346.509ZM142.265 346.642C142.265 347.421 142.425 348.03 142.747 348.47C143.069 348.91 143.513 349.13 144.08 349.13C144.825 349.13 145.369 348.796 145.711 348.127V344.973C145.36 344.325 144.821 344.001 144.093 344.001C143.517 344.001 143.069 344.224 142.747 344.668C142.425 345.112 142.265 345.77 142.265 346.642ZM151.424 346.312C151.424 347.256 151.299 348.161 151.05 349.029C150.804 349.892 150.426 350.69 149.914 351.422C149.406 352.154 148.873 352.674 148.314 352.983L148.066 352.266C148.718 351.767 149.241 350.992 149.634 349.943C150.032 348.889 150.235 347.721 150.244 346.439V346.236C150.244 345.347 150.151 344.522 149.964 343.76C149.778 342.994 149.518 342.309 149.184 341.704C148.854 341.098 148.481 340.627 148.066 340.288L148.314 339.571C148.873 339.88 149.404 340.396 149.907 341.12C150.415 341.843 150.794 342.641 151.043 343.513C151.297 344.384 151.424 345.318 151.424 346.312Z" fill="black"/>
<path d="M320.844 346.249C320.844 345.292 320.971 344.374 321.225 343.494C321.483 342.613 321.866 341.814 322.374 341.094C322.882 340.375 323.409 339.867 323.955 339.571L324.196 340.345C323.578 340.819 323.07 341.543 322.672 342.516C322.279 343.489 322.063 344.579 322.025 345.785L322.019 346.325C322.019 347.958 322.317 349.376 322.914 350.578C323.273 351.297 323.701 351.86 324.196 352.266L323.955 352.983C323.392 352.67 322.854 352.146 322.342 351.409C321.344 349.97 320.844 348.25 320.844 346.249ZM328.703 348.381L331.343 340.758H332.676L329.249 350H328.169L324.748 340.758H326.075L328.703 348.381ZM336.307 350.127C335.376 350.127 334.619 349.822 334.035 349.213C333.451 348.599 333.159 347.78 333.159 346.756V346.541C333.159 345.859 333.288 345.252 333.546 344.719C333.808 344.181 334.172 343.762 334.638 343.462C335.107 343.157 335.615 343.005 336.161 343.005C337.054 343.005 337.748 343.299 338.243 343.887C338.738 344.475 338.986 345.318 338.986 346.414V346.902H334.333C334.35 347.579 334.547 348.127 334.923 348.546C335.304 348.961 335.787 349.168 336.371 349.168C336.785 349.168 337.137 349.084 337.424 348.915C337.712 348.745 337.964 348.521 338.18 348.242L338.897 348.8C338.321 349.685 337.458 350.127 336.307 350.127ZM336.161 343.97C335.687 343.97 335.289 344.143 334.968 344.49C334.646 344.833 334.447 345.315 334.371 345.938H337.812V345.849C337.778 345.252 337.617 344.791 337.329 344.465C337.041 344.135 336.652 343.97 336.161 343.97ZM343.67 344.186C343.493 344.156 343.3 344.141 343.093 344.141C342.323 344.141 341.8 344.469 341.525 345.125V350H340.351V343.132H341.493L341.512 343.925C341.897 343.312 342.443 343.005 343.15 343.005C343.378 343.005 343.552 343.035 343.67 343.094V344.186ZM346.032 350H344.857V340.25H346.032V350ZM352.157 350C352.09 349.865 352.035 349.623 351.992 349.276C351.446 349.843 350.795 350.127 350.037 350.127C349.36 350.127 348.804 349.937 348.368 349.556C347.936 349.171 347.72 348.684 347.72 348.096C347.72 347.381 347.991 346.826 348.533 346.433C349.079 346.035 349.845 345.836 350.831 345.836H351.973V345.296C351.973 344.886 351.85 344.56 351.605 344.319C351.36 344.073 350.998 343.951 350.52 343.951C350.101 343.951 349.749 344.056 349.466 344.268C349.182 344.48 349.041 344.736 349.041 345.036H347.86C347.86 344.693 347.98 344.363 348.222 344.046C348.467 343.724 348.797 343.47 349.212 343.284C349.631 343.098 350.09 343.005 350.589 343.005C351.381 343.005 352.001 343.204 352.449 343.602C352.898 343.995 353.131 344.539 353.147 345.233V348.394C353.147 349.025 353.228 349.526 353.389 349.898V350H352.157ZM350.208 349.105C350.577 349.105 350.926 349.01 351.256 348.819C351.586 348.629 351.825 348.381 351.973 348.077V346.667H351.053C349.614 346.667 348.895 347.089 348.895 347.931C348.895 348.299 349.017 348.587 349.263 348.794C349.508 349.001 349.823 349.105 350.208 349.105ZM359.229 349.321C358.771 349.858 358.101 350.127 357.216 350.127C356.484 350.127 355.926 349.915 355.541 349.492C355.16 349.065 354.967 348.434 354.963 347.601V343.132H356.137V347.569C356.137 348.61 356.56 349.13 357.407 349.13C358.304 349.13 358.901 348.796 359.197 348.127V343.132H360.371V350H359.254L359.229 349.321ZM362.739 350V344.04H361.653V343.132H362.739V342.427C362.739 341.691 362.936 341.122 363.329 340.72C363.723 340.318 364.279 340.117 364.999 340.117C365.269 340.117 365.538 340.153 365.805 340.225L365.741 341.177C365.542 341.139 365.331 341.12 365.106 341.12C364.726 341.12 364.431 341.232 364.224 341.456C364.017 341.676 363.913 341.993 363.913 342.408V343.132H365.379V344.04H363.913V350H362.739ZM372.171 348.407L373.873 343.132H375.072L372.609 350H371.714L369.226 343.132H370.426L372.171 348.407ZM375.79 346.502C375.79 345.83 375.921 345.224 376.183 344.687C376.45 344.15 376.818 343.735 377.288 343.443C377.762 343.151 378.301 343.005 378.906 343.005C379.841 343.005 380.597 343.329 381.172 343.976C381.752 344.624 382.042 345.485 382.042 346.56V346.642C382.042 347.311 381.913 347.912 381.655 348.445C381.401 348.974 381.035 349.386 380.557 349.683C380.083 349.979 379.537 350.127 378.919 350.127C377.988 350.127 377.233 349.803 376.653 349.156C376.077 348.508 375.79 347.651 375.79 346.585V346.502ZM376.97 346.642C376.97 347.404 377.146 348.015 377.497 348.477C377.853 348.938 378.326 349.168 378.919 349.168C379.516 349.168 379.99 348.936 380.341 348.47C380.692 348 380.868 347.345 380.868 346.502C380.868 345.749 380.688 345.14 380.328 344.674C379.973 344.205 379.499 343.97 378.906 343.97C378.326 343.97 377.859 344.2 377.503 344.662C377.148 345.123 376.97 345.783 376.97 346.642ZM384.625 343.132L384.664 343.995C385.188 343.335 385.874 343.005 386.72 343.005C388.172 343.005 388.904 343.824 388.917 345.461V350H387.742V345.455C387.738 344.96 387.624 344.594 387.399 344.357C387.179 344.12 386.834 344.001 386.365 344.001C385.984 344.001 385.65 344.103 385.362 344.306C385.074 344.509 384.85 344.776 384.689 345.106V350H383.515V343.132H384.625ZM397.651 350H396.47V342.173L394.103 343.043V341.977L397.467 340.713H397.651V350ZM406.887 346.058C406.887 347.433 406.652 348.455 406.182 349.124C405.712 349.793 404.978 350.127 403.979 350.127C402.993 350.127 402.264 349.801 401.79 349.149C401.316 348.493 401.07 347.516 401.053 346.217V344.649C401.053 343.291 401.288 342.281 401.758 341.621C402.228 340.961 402.964 340.631 403.967 340.631C404.961 340.631 405.693 340.95 406.163 341.589C406.633 342.224 406.874 343.206 406.887 344.535V346.058ZM405.712 344.452C405.712 343.458 405.573 342.734 405.293 342.281C405.014 341.824 404.572 341.596 403.967 341.596C403.366 341.596 402.928 341.822 402.653 342.275C402.378 342.728 402.236 343.424 402.228 344.363V346.242C402.228 347.241 402.371 347.979 402.659 348.458C402.951 348.931 403.391 349.168 403.979 349.168C404.559 349.168 404.989 348.944 405.268 348.496C405.552 348.047 405.7 347.34 405.712 346.375V344.452ZM414.187 346.058C414.187 347.433 413.952 348.455 413.482 349.124C413.012 349.793 412.278 350.127 411.279 350.127C410.293 350.127 409.563 349.801 409.089 349.149C408.615 348.493 408.37 347.516 408.353 346.217V344.649C408.353 343.291 408.588 342.281 409.058 341.621C409.527 340.961 410.264 340.631 411.267 340.631C412.261 340.631 412.993 340.95 413.463 341.589C413.933 342.224 414.174 343.206 414.187 344.535V346.058ZM413.012 344.452C413.012 343.458 412.873 342.734 412.593 342.281C412.314 341.824 411.872 341.596 411.267 341.596C410.666 341.596 410.228 341.822 409.953 342.275C409.678 342.728 409.536 343.424 409.527 344.363V346.242C409.527 347.241 409.671 347.979 409.959 348.458C410.251 348.931 410.691 349.168 411.279 349.168C411.859 349.168 412.289 348.944 412.568 348.496C412.851 348.047 413 347.34 413.012 346.375V344.452ZM415.589 342.535C415.589 341.981 415.765 341.524 416.116 341.164C416.472 340.804 416.927 340.625 417.481 340.625C418.044 340.625 418.499 340.806 418.846 341.17C419.197 341.53 419.373 341.998 419.373 342.573V343.024C419.373 343.583 419.195 344.04 418.839 344.395C418.488 344.746 418.04 344.922 417.494 344.922C416.944 344.922 416.489 344.746 416.129 344.395C415.769 344.04 415.589 343.568 415.589 342.979V342.535ZM416.465 343.024C416.465 343.354 416.558 343.627 416.745 343.843C416.931 344.054 417.181 344.16 417.494 344.16C417.794 344.16 418.035 344.056 418.217 343.849C418.403 343.642 418.497 343.358 418.497 342.999V342.535C418.497 342.205 418.406 341.932 418.224 341.716C418.042 341.5 417.794 341.393 417.481 341.393C417.168 341.393 416.92 341.5 416.738 341.716C416.556 341.932 416.465 342.214 416.465 342.561V343.024ZM420.09 347.734C420.09 347.18 420.265 346.725 420.617 346.369C420.972 346.009 421.427 345.83 421.981 345.83C422.536 345.83 422.991 346.007 423.346 346.363C423.702 346.718 423.879 347.19 423.879 347.778V348.229C423.879 348.783 423.702 349.24 423.346 349.6C422.995 349.956 422.544 350.133 421.994 350.133C421.444 350.133 420.989 349.958 420.629 349.606C420.27 349.251 420.09 348.779 420.09 348.191V347.734ZM420.966 348.229C420.966 348.563 421.059 348.838 421.245 349.054C421.431 349.266 421.681 349.372 421.994 349.372C422.299 349.372 422.542 349.268 422.724 349.061C422.906 348.849 422.997 348.563 422.997 348.204V347.734C422.997 347.4 422.904 347.127 422.718 346.915C422.536 346.703 422.29 346.598 421.981 346.598C421.681 346.598 421.436 346.703 421.245 346.915C421.059 347.122 420.966 347.404 420.966 347.759V348.229ZM417.76 349.302L417.094 348.883L421.607 341.659L422.273 342.078L417.76 349.302ZM429.662 349.042H433.68V350H428.228V349.137L432.017 344.103H428.285V343.132H433.49V343.963L429.662 349.042ZM439.247 349.321C438.79 349.858 438.119 350.127 437.235 350.127C436.503 350.127 435.944 349.915 435.559 349.492C435.178 349.065 434.986 348.434 434.981 347.601V343.132H436.156V347.569C436.156 348.61 436.579 349.13 437.425 349.13C438.322 349.13 438.919 348.796 439.215 348.127V343.132H440.39V350H439.272L439.247 349.321ZM451.079 346.058C451.079 347.433 450.844 348.455 450.375 349.124C449.905 349.793 449.171 350.127 448.172 350.127C447.186 350.127 446.456 349.801 445.982 349.149C445.508 348.493 445.263 347.516 445.246 346.217V344.649C445.246 343.291 445.48 342.281 445.95 341.621C446.42 340.961 447.156 340.631 448.159 340.631C449.154 340.631 449.886 340.95 450.355 341.589C450.825 342.224 451.066 343.206 451.079 344.535V346.058ZM449.905 344.452C449.905 343.458 449.765 342.734 449.486 342.281C449.207 341.824 448.764 341.596 448.159 341.596C447.558 341.596 447.12 341.822 446.845 342.275C446.57 342.728 446.428 343.424 446.42 344.363V346.242C446.42 347.241 446.564 347.979 446.852 348.458C447.144 348.931 447.584 349.168 448.172 349.168C448.752 349.168 449.181 348.944 449.46 348.496C449.744 348.047 449.892 347.34 449.905 346.375V344.452ZM452.482 342.535C452.482 341.981 452.658 341.524 453.009 341.164C453.364 340.804 453.819 340.625 454.374 340.625C454.936 340.625 455.391 340.806 455.738 341.17C456.09 341.53 456.265 341.998 456.265 342.573V343.024C456.265 343.583 456.087 344.04 455.732 344.395C455.381 344.746 454.932 344.922 454.386 344.922C453.836 344.922 453.381 344.746 453.021 344.395C452.662 344.04 452.482 343.568 452.482 342.979V342.535ZM453.358 343.024C453.358 343.354 453.451 343.627 453.637 343.843C453.823 344.054 454.073 344.16 454.386 344.16C454.687 344.16 454.928 344.056 455.11 343.849C455.296 343.642 455.389 343.358 455.389 342.999V342.535C455.389 342.205 455.298 341.932 455.116 341.716C454.934 341.5 454.687 341.393 454.374 341.393C454.06 341.393 453.813 341.5 453.631 341.716C453.449 341.932 453.358 342.214 453.358 342.561V343.024ZM456.982 347.734C456.982 347.18 457.158 346.725 457.509 346.369C457.865 346.009 458.32 345.83 458.874 345.83C459.428 345.83 459.883 346.007 460.239 346.363C460.594 346.718 460.772 347.19 460.772 347.778V348.229C460.772 348.783 460.594 349.24 460.239 349.6C459.888 349.956 459.437 350.133 458.887 350.133C458.337 350.133 457.882 349.958 457.522 349.606C457.162 349.251 456.982 348.779 456.982 348.191V347.734ZM457.858 348.229C457.858 348.563 457.951 348.838 458.138 349.054C458.324 349.266 458.574 349.372 458.887 349.372C459.191 349.372 459.435 349.268 459.617 349.061C459.799 348.849 459.89 348.563 459.89 348.204V347.734C459.89 347.4 459.797 347.127 459.61 346.915C459.428 346.703 459.183 346.598 458.874 346.598C458.574 346.598 458.328 346.703 458.138 346.915C457.951 347.122 457.858 347.404 457.858 347.759V348.229ZM454.653 349.302L453.986 348.883L458.5 341.659L459.166 342.078L454.653 349.302ZM464.936 346.312C464.936 347.256 464.811 348.161 464.562 349.029C464.316 349.892 463.937 350.69 463.425 351.422C462.917 352.154 462.384 352.674 461.826 352.983L461.578 352.266C462.23 351.767 462.752 350.992 463.146 349.943C463.544 348.889 463.747 347.721 463.755 346.439V346.236C463.755 345.347 463.662 344.522 463.476 343.76C463.29 342.994 463.03 342.309 462.695 341.704C462.365 341.098 461.993 340.627 461.578 340.288L461.826 339.571C462.384 339.88 462.915 340.396 463.419 341.12C463.927 341.843 464.306 342.641 464.555 343.513C464.809 344.384 464.936 345.318 464.936 346.312Z" fill="black"/>
<path d="M41.0625 421H39.5547V415.742H33.8203V421H32.3203V409.625H33.8203V414.516H39.5547V409.625H41.0625V421ZM43.1172 416.695C43.1172 415.867 43.2786 415.122 43.6016 414.461C43.9297 413.799 44.3828 413.289 44.9609 412.93C45.5443 412.57 46.2083 412.391 46.9531 412.391C48.1042 412.391 49.0339 412.789 49.7422 413.586C50.4557 414.383 50.8125 415.443 50.8125 416.766V416.867C50.8125 417.69 50.6536 418.43 50.3359 419.086C50.0234 419.737 49.5729 420.245 48.9844 420.609C48.401 420.974 47.7292 421.156 46.9688 421.156C45.8229 421.156 44.8932 420.758 44.1797 419.961C43.4714 419.164 43.1172 418.109 43.1172 416.797V416.695ZM44.5703 416.867C44.5703 417.805 44.7865 418.557 45.2188 419.125C45.6562 419.693 46.2396 419.977 46.9688 419.977C47.7031 419.977 48.2865 419.69 48.7188 419.117C49.151 418.539 49.3672 417.732 49.3672 416.695C49.3672 415.768 49.1458 415.018 48.7031 414.445C48.2656 413.867 47.6823 413.578 46.9531 413.578C46.2396 413.578 45.6641 413.862 45.2266 414.43C44.7891 414.997 44.5703 415.81 44.5703 416.867ZM53.9844 412.547L54.0234 413.484C54.6432 412.755 55.4792 412.391 56.5312 412.391C57.7135 412.391 58.5182 412.844 58.9453 413.75C59.2266 413.344 59.5911 413.016 60.0391 412.766C60.4922 412.516 61.026 412.391 61.6406 412.391C63.4948 412.391 64.4375 413.372 64.4688 415.336V421H63.0234V415.422C63.0234 414.818 62.8854 414.367 62.6094 414.07C62.3333 413.768 61.8698 413.617 61.2188 413.617C60.6823 413.617 60.237 413.779 59.8828 414.102C59.5286 414.419 59.3229 414.849 59.2656 415.391V421H57.8125V415.461C57.8125 414.232 57.2109 413.617 56.0078 413.617C55.0599 413.617 54.4115 414.021 54.0625 414.828V421H52.6172V412.547H53.9844ZM70.1641 421.156C69.0182 421.156 68.0859 420.781 67.3672 420.031C66.6484 419.276 66.2891 418.268 66.2891 417.008V416.742C66.2891 415.904 66.4479 415.156 66.7656 414.5C67.0885 413.839 67.5365 413.323 68.1094 412.953C68.6875 412.578 69.3125 412.391 69.9844 412.391C71.0833 412.391 71.9375 412.753 72.5469 413.477C73.1562 414.201 73.4609 415.237 73.4609 416.586V417.188H67.7344C67.7552 418.021 67.9974 418.695 68.4609 419.211C68.9297 419.721 69.5234 419.977 70.2422 419.977C70.7526 419.977 71.1849 419.872 71.5391 419.664C71.8932 419.456 72.2031 419.18 72.4688 418.836L73.3516 419.523C72.6432 420.612 71.5807 421.156 70.1641 421.156ZM69.9844 413.578C69.401 413.578 68.9115 413.792 68.5156 414.219C68.1198 414.641 67.875 415.234 67.7812 416H72.0156V415.891C71.974 415.156 71.776 414.589 71.4219 414.188C71.0677 413.781 70.5885 413.578 69.9844 413.578ZM82.1172 416.758H78.3047V415.578H82.1172V416.758ZM88.6484 415.922L83.4844 413.898V412.414L90.1562 415.367V416.508L83.4844 419.469V417.969L88.6484 415.922ZM97.8125 414.609H98.8984C99.5807 414.599 100.117 414.419 100.508 414.07C100.898 413.721 101.094 413.25 101.094 412.656C101.094 411.323 100.43 410.656 99.1016 410.656C98.4766 410.656 97.9766 410.836 97.6016 411.195C97.2318 411.549 97.0469 412.021 97.0469 412.609H95.6016C95.6016 411.708 95.9297 410.961 96.5859 410.367C97.2474 409.768 98.0859 409.469 99.1016 409.469C100.174 409.469 101.016 409.753 101.625 410.32C102.234 410.888 102.539 411.677 102.539 412.688C102.539 413.182 102.378 413.661 102.055 414.125C101.737 414.589 101.302 414.935 100.75 415.164C101.375 415.362 101.857 415.69 102.195 416.148C102.539 416.607 102.711 417.167 102.711 417.828C102.711 418.849 102.378 419.659 101.711 420.258C101.044 420.857 100.177 421.156 99.1094 421.156C98.0417 421.156 97.1719 420.867 96.5 420.289C95.8333 419.711 95.5 418.948 95.5 418H96.9531C96.9531 418.599 97.1484 419.078 97.5391 419.438C97.9297 419.797 98.4531 419.977 99.1094 419.977C99.8073 419.977 100.341 419.794 100.711 419.43C101.081 419.065 101.266 418.542 101.266 417.859C101.266 417.198 101.062 416.69 100.656 416.336C100.25 415.982 99.6641 415.799 98.8984 415.789H97.8125V414.609ZM109.039 421V409.625H112.758C113.992 409.625 114.919 409.88 115.539 410.391C116.164 410.901 116.477 411.656 116.477 412.656C116.477 413.188 116.326 413.659 116.023 414.07C115.721 414.477 115.31 414.792 114.789 415.016C115.404 415.188 115.888 415.516 116.242 416C116.602 416.479 116.781 417.052 116.781 417.719C116.781 418.74 116.451 419.542 115.789 420.125C115.128 420.708 114.193 421 112.984 421H109.039ZM110.539 415.68V419.773H113.016C113.714 419.773 114.263 419.594 114.664 419.234C115.07 418.87 115.273 418.37 115.273 417.734C115.273 416.365 114.529 415.68 113.039 415.68H110.539ZM110.539 414.477H112.805C113.461 414.477 113.984 414.312 114.375 413.984C114.771 413.656 114.969 413.211 114.969 412.648C114.969 412.023 114.786 411.57 114.422 411.289C114.057 411.003 113.503 410.859 112.758 410.859H110.539V414.477ZM124 420.164C123.438 420.826 122.612 421.156 121.523 421.156C120.622 421.156 119.935 420.896 119.461 420.375C118.992 419.849 118.755 419.073 118.75 418.047V412.547H120.195V418.008C120.195 419.289 120.716 419.93 121.758 419.93C122.862 419.93 123.596 419.518 123.961 418.695V412.547H125.406V421H124.031L124 420.164ZM129.57 410.5V412.547H131.148V413.664H129.57V418.906C129.57 419.245 129.641 419.5 129.781 419.672C129.922 419.839 130.161 419.922 130.5 419.922C130.667 419.922 130.896 419.891 131.188 419.828V421C130.807 421.104 130.438 421.156 130.078 421.156C129.432 421.156 128.945 420.961 128.617 420.57C128.289 420.18 128.125 419.625 128.125 418.906V413.664H126.586V412.547H128.125V410.5H129.57ZM134.805 410.5V412.547H136.383V413.664H134.805V418.906C134.805 419.245 134.875 419.5 135.016 419.672C135.156 419.839 135.396 419.922 135.734 419.922C135.901 419.922 136.13 419.891 136.422 419.828V421C136.042 421.104 135.672 421.156 135.312 421.156C134.667 421.156 134.18 420.961 133.852 420.57C133.523 420.18 133.359 419.625 133.359 418.906V413.664H131.82V412.547H133.359V410.5H134.805ZM137.539 416.695C137.539 415.867 137.701 415.122 138.023 414.461C138.352 413.799 138.805 413.289 139.383 412.93C139.966 412.57 140.63 412.391 141.375 412.391C142.526 412.391 143.456 412.789 144.164 413.586C144.878 414.383 145.234 415.443 145.234 416.766V416.867C145.234 417.69 145.076 418.43 144.758 419.086C144.445 419.737 143.995 420.245 143.406 420.609C142.823 420.974 142.151 421.156 141.391 421.156C140.245 421.156 139.315 420.758 138.602 419.961C137.893 419.164 137.539 418.109 137.539 416.797V416.695ZM138.992 416.867C138.992 417.805 139.208 418.557 139.641 419.125C140.078 419.693 140.661 419.977 141.391 419.977C142.125 419.977 142.708 419.69 143.141 419.117C143.573 418.539 143.789 417.732 143.789 416.695C143.789 415.768 143.568 415.018 143.125 414.445C142.688 413.867 142.104 413.578 141.375 413.578C140.661 413.578 140.086 413.862 139.648 414.43C139.211 414.997 138.992 415.81 138.992 416.867ZM148.414 412.547L148.461 413.609C149.107 412.797 149.951 412.391 150.992 412.391C152.779 412.391 153.68 413.398 153.695 415.414V421H152.25V415.406C152.245 414.797 152.104 414.346 151.828 414.055C151.557 413.763 151.133 413.617 150.555 413.617C150.086 413.617 149.674 413.742 149.32 413.992C148.966 414.242 148.69 414.57 148.492 414.977V421H147.047V412.547H148.414ZM160.797 418.758C160.797 418.367 160.648 418.065 160.352 417.852C160.06 417.633 159.547 417.445 158.812 417.289C158.083 417.133 157.503 416.945 157.07 416.727C156.643 416.508 156.326 416.247 156.117 415.945C155.914 415.643 155.812 415.284 155.812 414.867C155.812 414.174 156.104 413.589 156.688 413.109C157.276 412.63 158.026 412.391 158.938 412.391C159.896 412.391 160.672 412.638 161.266 413.133C161.865 413.628 162.164 414.26 162.164 415.031H160.711C160.711 414.635 160.542 414.294 160.203 414.008C159.87 413.721 159.448 413.578 158.938 413.578C158.411 413.578 158 413.693 157.703 413.922C157.406 414.151 157.258 414.451 157.258 414.82C157.258 415.169 157.396 415.432 157.672 415.609C157.948 415.786 158.445 415.956 159.164 416.117C159.888 416.279 160.474 416.471 160.922 416.695C161.37 416.919 161.701 417.19 161.914 417.508C162.133 417.82 162.242 418.203 162.242 418.656C162.242 419.411 161.94 420.018 161.336 420.477C160.732 420.93 159.948 421.156 158.984 421.156C158.307 421.156 157.708 421.036 157.188 420.797C156.667 420.557 156.258 420.224 155.961 419.797C155.669 419.365 155.523 418.898 155.523 418.398H156.969C156.995 418.883 157.188 419.268 157.547 419.555C157.911 419.836 158.391 419.977 158.984 419.977C159.531 419.977 159.969 419.867 160.297 419.648C160.63 419.424 160.797 419.128 160.797 418.758ZM164.078 420.242C164.078 419.992 164.151 419.784 164.297 419.617C164.448 419.451 164.672 419.367 164.969 419.367C165.266 419.367 165.49 419.451 165.641 419.617C165.797 419.784 165.875 419.992 165.875 420.242C165.875 420.482 165.797 420.682 165.641 420.844C165.49 421.005 165.266 421.086 164.969 421.086C164.672 421.086 164.448 421.005 164.297 420.844C164.151 420.682 164.078 420.482 164.078 420.242ZM164.086 413.344C164.086 413.094 164.159 412.885 164.305 412.719C164.456 412.552 164.68 412.469 164.977 412.469C165.273 412.469 165.497 412.552 165.648 412.719C165.805 412.885 165.883 413.094 165.883 413.344C165.883 413.583 165.805 413.784 165.648 413.945C165.497 414.107 165.273 414.188 164.977 414.188C164.68 414.188 164.456 414.107 164.305 413.945C164.159 413.784 164.086 413.583 164.086 413.344Z" fill="black"/>
<rect x="253" y="412" width="53" height="53" fill="#444444"/>
<path d="M253 412V411H252V412H253ZM306 412H307V411H306V412ZM306 465V466H307V465H306ZM253 465H252V466H253V465ZM253 413H306V411H253V413ZM305 412V465H307V412H305ZM306 464H253V466H306V464ZM254 465V412H252V465H254Z" fill="#000222"/>
<path d="M262.007 439.95H260.467L260.107 442H259.467L259.827 439.95H258.547V439.35H259.927L260.207 437.67H258.937V437.07H260.317L260.667 435.02H261.307L260.957 437.07H262.497L262.847 435.02H263.487L263.137 437.07H264.417V437.67H263.027L262.747 439.35H264.027V439.95H262.647L262.287 442H261.647L262.007 439.95ZM262.107 439.35L262.387 437.67H260.847L260.567 439.35H262.107ZM268.826 442V440.63H265.456V439.89L268.376 435.02H269.626V439.93H270.636V440.63H269.626V442H268.826ZM266.246 439.93H268.826V435.67H268.776L266.246 439.93ZM274.822 442V440.63H271.452V439.89L274.372 435.02H275.622V439.93H276.632V440.63H275.622V442H274.822ZM272.242 439.93H274.822V435.67H274.772L272.242 439.93ZM280.818 442V440.63H277.448V439.89L280.368 435.02H281.618V439.93H282.628V440.63H281.618V442H280.818ZM278.238 439.93H280.818V435.67H280.768L278.238 439.93ZM286.814 442V440.63H283.444V439.89L286.364 435.02H287.614V439.93H288.624V440.63H287.614V442H286.814ZM284.234 439.93H286.814V435.67H286.764L284.234 439.93ZM292.811 442V440.63H289.441V439.89L292.361 435.02H293.611V439.93H294.621V440.63H293.611V442H292.811ZM290.231 439.93H292.811V435.67H292.761L290.231 439.93ZM298.807 442V440.63H295.437V439.89L298.357 435.02H299.607V439.93H300.617V440.63H299.607V442H298.807ZM296.227 439.93H298.807V435.67H298.757L296.227 439.93Z" fill="white"/>
</svg>
