<svg width="595" height="842" viewBox="0 0 595 842" fill="none" xmlns="http://www.w3.org/2000/svg">
<rect width="595" height="842" fill="white"/>
<path d="M42.8774 75.3613H35.4312L33.7588 80H31.3418L38.1289 62.2266H40.1797L46.979 80H44.5742L42.8774 75.3613ZM36.1392 73.4326H42.1816L39.1543 65.1196L36.1392 73.4326ZM51.4712 80H49.2129V61.25H51.4712V80ZM57.5503 80H55.292V61.25H57.5503V80ZM66.6567 80.2441C64.8664 80.2441 63.4097 79.6582 62.2866 78.4863C61.1636 77.3063 60.6021 75.7316 60.6021 73.7622V73.3472C60.6021 72.0369 60.8503 70.8691 61.3467 69.8438C61.8512 68.8102 62.5511 68.0046 63.4463 67.4268C64.3496 66.8408 65.3262 66.5479 66.376 66.5479C68.0931 66.5479 69.4277 67.1134 70.3799 68.2446C71.332 69.3758 71.8081 70.9953 71.8081 73.103V74.043H62.8604C62.8929 75.3451 63.2713 76.3989 63.9956 77.2046C64.728 78.0021 65.6558 78.4009 66.7788 78.4009C67.5763 78.4009 68.2518 78.2381 68.8052 77.9126C69.3586 77.5871 69.8428 77.1558 70.2578 76.6187L71.6372 77.6929C70.5304 79.3937 68.8703 80.2441 66.6567 80.2441ZM66.376 68.4033C65.4645 68.4033 64.6995 68.737 64.0811 69.4043C63.4626 70.0635 63.0801 70.9912 62.9336 72.1875H69.5498V72.0166C69.4847 70.8691 69.1755 69.9821 68.6221 69.3555C68.0687 68.7207 67.32 68.4033 66.376 68.4033Z" fill="black"/>
<path d="M42.0962 35.4224C42.0962 34.6411 41.8195 34.0389 41.2661 33.6157C40.7209 33.1925 39.7321 32.7653 38.2998 32.334C36.8675 31.9027 35.7282 31.4225 34.8818 30.8936C33.2624 29.8763 32.4526 28.5498 32.4526 26.9141C32.4526 25.4818 33.0345 24.3018 34.1982 23.374C35.3701 22.4463 36.8879 21.9824 38.7515 21.9824C39.9884 21.9824 41.0911 22.2103 42.0596 22.666C43.028 23.1217 43.7889 23.7728 44.3423 24.6191C44.8957 25.4574 45.1724 26.3892 45.1724 27.4146H42.0962C42.0962 26.4868 41.8032 25.7625 41.2173 25.2417C40.6395 24.7127 39.8094 24.4482 38.7271 24.4482C37.7179 24.4482 36.9326 24.6639 36.3711 25.0952C35.8177 25.5265 35.541 26.1287 35.541 26.9019C35.541 27.5529 35.8421 28.0981 36.4443 28.5376C37.0465 28.9689 38.0394 29.3921 39.4229 29.8071C40.8063 30.214 41.9172 30.682 42.7554 31.2109C43.5936 31.7318 44.208 32.334 44.5986 33.0176C44.9893 33.693 45.1846 34.4865 45.1846 35.3979C45.1846 36.8791 44.6149 38.0591 43.4756 38.938C42.3444 39.8088 40.8063 40.2441 38.8613 40.2441C37.5755 40.2441 36.3914 40.0081 35.3091 39.5361C34.2349 39.056 33.3966 38.3968 32.7944 37.5586C32.2004 36.7204 31.9033 35.7438 31.9033 34.6289H34.9917C34.9917 35.638 35.3254 36.4193 35.9927 36.9727C36.66 37.526 37.6162 37.8027 38.8613 37.8027C39.9355 37.8027 40.7412 37.5871 41.2783 37.1558C41.8236 36.7163 42.0962 36.1385 42.0962 35.4224ZM51.3247 23.5815V26.792H53.6562V28.9893H51.3247V36.3623C51.3247 36.8669 51.4224 37.2331 51.6177 37.4609C51.8211 37.6807 52.1792 37.7905 52.6919 37.7905C53.0337 37.7905 53.3796 37.7498 53.7295 37.6685V39.9634C53.054 40.1506 52.403 40.2441 51.7764 40.2441C49.4977 40.2441 48.3584 38.9868 48.3584 36.4722V28.9893H46.1855V26.792H48.3584V23.5815H51.3247ZM60.5532 35.752L63.2388 26.792H66.4004L61.1514 42.002C60.3457 44.2236 58.9785 45.3345 57.0498 45.3345C56.6185 45.3345 56.1424 45.2612 55.6216 45.1147V42.8198L56.1831 42.8564C56.9318 42.8564 57.4933 42.7181 57.8677 42.4414C58.2502 42.1729 58.5513 41.7171 58.771 41.0742L59.1982 39.939L54.5596 26.792H57.7578L60.5532 35.752ZM71.271 40H68.3047V21.25H71.271V40ZM80.3286 40.2441C78.4487 40.2441 76.9229 39.6541 75.751 38.4741C74.5872 37.286 74.0054 35.7072 74.0054 33.7378V33.3716C74.0054 32.0532 74.2576 30.8773 74.7622 29.8438C75.2749 28.8021 75.991 27.9924 76.9106 27.4146C77.8302 26.8368 78.8556 26.5479 79.9868 26.5479C81.7853 26.5479 83.1729 27.1216 84.1494 28.269C85.1341 29.4165 85.6265 31.04 85.6265 33.1396V34.3359H76.9961C77.0856 35.4264 77.4478 36.2891 78.0825 36.9238C78.7254 37.5586 79.5311 37.876 80.4995 37.876C81.8586 37.876 82.9653 37.3267 83.8198 36.228L85.4189 37.7539C84.89 38.5433 84.182 39.1577 83.2949 39.5972C82.416 40.0285 81.4272 40.2441 80.3286 40.2441ZM79.9746 28.9282C79.1608 28.9282 78.5016 29.2131 77.9971 29.7827C77.5007 30.3524 77.1833 31.1458 77.0449 32.1631H82.6968V31.9434C82.6317 30.9505 82.3672 30.2018 81.9033 29.6973C81.4395 29.1846 80.7965 28.9282 79.9746 28.9282ZM87.4209 33.2983C87.4209 31.2476 87.901 29.6118 88.8613 28.3911C89.8298 27.1623 91.1115 26.5479 92.7065 26.5479C94.2121 26.5479 95.3962 27.0728 96.2588 28.1226L96.3931 26.792H99.0664V39.5972C99.0664 41.3306 98.5252 42.6978 97.4429 43.6987C96.3687 44.6997 94.916 45.2002 93.085 45.2002C92.1165 45.2002 91.1685 44.9967 90.2407 44.5898C89.3211 44.1911 88.6213 43.6662 88.1411 43.0151L89.5449 41.2329C90.4564 42.3153 91.5794 42.8564 92.9141 42.8564C93.8988 42.8564 94.6759 42.5879 95.2456 42.0508C95.8153 41.5218 96.1001 40.7406 96.1001 39.707V38.8159C95.2456 39.7681 94.1063 40.2441 92.6821 40.2441C91.1359 40.2441 89.8704 39.6297 88.8857 38.4009C87.9092 37.172 87.4209 35.4712 87.4209 33.2983ZM90.375 33.5547C90.375 34.8812 90.6436 35.9269 91.1807 36.6919C91.7259 37.4487 92.4787 37.8271 93.439 37.8271C94.6353 37.8271 95.5223 37.3145 96.1001 36.2891V30.4785C95.5386 29.4775 94.6597 28.9771 93.4634 28.9771C92.4868 28.9771 91.7259 29.3636 91.1807 30.1367C90.6436 30.9098 90.375 32.0492 90.375 33.5547ZM110.126 38.7061C109.255 39.7314 108.018 40.2441 106.415 40.2441C104.983 40.2441 103.896 39.825 103.156 38.9868C102.423 38.1486 102.057 36.936 102.057 35.3491V26.792H105.023V35.3125C105.023 36.9889 105.719 37.8271 107.111 37.8271C108.551 37.8271 109.524 37.3104 110.028 36.2769V26.792H112.995V40H110.199L110.126 38.7061ZM119.171 40H116.205V26.792H119.171V40ZM116.022 23.3618C116.022 22.9061 116.164 22.5277 116.449 22.2266C116.742 21.9255 117.157 21.7749 117.694 21.7749C118.231 21.7749 118.646 21.9255 118.939 22.2266C119.232 22.5277 119.379 22.9061 119.379 23.3618C119.379 23.8094 119.232 24.1838 118.939 24.4849C118.646 24.7778 118.231 24.9243 117.694 24.9243C117.157 24.9243 116.742 24.7778 116.449 24.4849C116.164 24.1838 116.022 23.8094 116.022 23.3618ZM121.857 33.2983C121.857 31.2638 122.329 29.6322 123.273 28.4033C124.217 27.1663 125.482 26.5479 127.069 26.5479C128.469 26.5479 129.6 27.0361 130.463 28.0127V21.25H133.429V40H130.744L130.597 38.6328C129.71 39.707 128.526 40.2441 127.045 40.2441C125.499 40.2441 124.245 39.6216 123.285 38.3765C122.333 37.1313 121.857 35.4386 121.857 33.2983ZM124.823 33.5547C124.823 34.8975 125.08 35.9473 125.592 36.7041C126.113 37.4528 126.85 37.8271 127.802 37.8271C129.014 37.8271 129.901 37.286 130.463 36.2036V30.564C129.918 29.506 129.039 28.9771 127.826 28.9771C126.866 28.9771 126.125 29.3595 125.604 30.1245C125.084 30.8813 124.823 32.0247 124.823 33.5547ZM142.34 40.2441C140.46 40.2441 138.935 39.6541 137.763 38.4741C136.599 37.286 136.017 35.7072 136.017 33.7378V33.3716C136.017 32.0532 136.269 30.8773 136.774 29.8438C137.287 28.8021 138.003 27.9924 138.922 27.4146C139.842 26.8368 140.867 26.5479 141.999 26.5479C143.797 26.5479 145.185 27.1216 146.161 28.269C147.146 29.4165 147.638 31.04 147.638 33.1396V34.3359H139.008C139.097 35.4264 139.459 36.2891 140.094 36.9238C140.737 37.5586 141.543 37.876 142.511 37.876C143.87 37.876 144.977 37.3267 145.832 36.228L147.431 37.7539C146.902 38.5433 146.194 39.1577 145.307 39.5972C144.428 40.0285 143.439 40.2441 142.34 40.2441ZM141.986 28.9282C141.173 28.9282 140.513 29.2131 140.009 29.7827C139.512 30.3524 139.195 31.1458 139.057 32.1631H144.708V31.9434C144.643 30.9505 144.379 30.2018 143.915 29.6973C143.451 29.1846 142.808 28.9282 141.986 28.9282Z" fill="black"/>
<path d="M41.2871 109.721H35.5059L34.4121 116H32.5762L35.0469 101.781H43.6016L43.3281 103.324H36.6094L35.7695 108.188H41.5605L41.2871 109.721ZM49.2559 116C49.2103 115.811 49.1875 115.626 49.1875 115.443L49.2168 114.887C48.2467 115.785 47.2181 116.221 46.1309 116.195C45.1999 116.182 44.4414 115.889 43.8555 115.316C43.276 114.737 43.0124 114.014 43.0645 113.148C43.1296 112.029 43.6178 111.156 44.5293 110.531C45.4473 109.9 46.6517 109.584 48.1426 109.584L49.9883 109.594L50.1055 108.754C50.1706 108.122 50.0469 107.624 49.7344 107.26C49.4284 106.889 48.9661 106.697 48.3477 106.684C47.7422 106.671 47.2051 106.82 46.7363 107.133C46.2741 107.439 45.9909 107.846 45.8867 108.354L44.1094 108.363C44.168 107.745 44.4089 107.198 44.832 106.723C45.2552 106.241 45.7988 105.87 46.4629 105.609C47.127 105.342 47.8138 105.215 48.5234 105.229C49.6237 105.255 50.4798 105.59 51.0918 106.234C51.7038 106.872 51.9609 107.722 51.8633 108.783L51.0039 114.018L50.9551 114.77C50.9421 115.128 50.9811 115.482 51.0723 115.834L51.0527 116H49.2559ZM46.4824 114.633C47.0488 114.646 47.5827 114.512 48.084 114.232C48.5918 113.946 49.028 113.552 49.3926 113.051L49.7734 110.873L48.4355 110.863C47.3223 110.863 46.4694 111.039 45.877 111.391C45.2845 111.742 44.9492 112.24 44.8711 112.885C44.8125 113.38 44.9264 113.793 45.2129 114.125C45.5059 114.451 45.929 114.62 46.4824 114.633ZM60.0273 107.045L59.1973 106.957C58.0645 106.957 57.1725 107.468 56.5215 108.49L55.2227 116H53.4551L55.291 105.434L57 105.424L56.7363 106.654C57.485 105.671 58.3672 105.193 59.3828 105.219C59.5977 105.219 59.8776 105.268 60.2227 105.365L60.0273 107.045ZM69.7051 110.766C69.5749 111.846 69.2786 112.82 68.8164 113.686C68.3542 114.551 67.7943 115.193 67.1367 115.609C66.4792 116.026 65.75 116.225 64.9492 116.205C63.6732 116.179 62.7259 115.701 62.1074 114.77L61.7461 116H60.1152L62.7227 101H64.4902L63.4258 106.605C64.2721 105.668 65.3008 105.212 66.5117 105.238C67.5273 105.264 68.3184 105.639 68.8848 106.361C69.4512 107.084 69.7507 108.08 69.7832 109.35C69.7897 109.766 69.7702 110.17 69.7246 110.561L69.7051 110.766ZM68.0254 109.74C68.0449 108.79 67.8854 108.064 67.5469 107.562C67.2083 107.055 66.6908 106.788 65.9941 106.762C64.8939 106.736 63.9629 107.289 63.2012 108.422L62.4102 113.021C62.8008 114.096 63.5332 114.646 64.6074 114.672C65.2975 114.698 65.8997 114.493 66.4141 114.057C66.9349 113.62 67.3288 113.012 67.5957 112.23C67.8626 111.443 68.0059 110.613 68.0254 109.74ZM75.6816 116.195C74.3665 116.169 73.3379 115.684 72.5957 114.74C71.8535 113.796 71.541 112.589 71.6582 111.117L71.707 110.697C71.8177 109.649 72.127 108.692 72.6348 107.826C73.1491 106.96 73.7741 106.309 74.5098 105.873C75.2454 105.43 76.0397 105.219 76.8926 105.238C77.9798 105.264 78.8327 105.626 79.4512 106.322C80.0697 107.019 80.4082 107.963 80.4668 109.154C80.4863 109.577 80.4733 110.001 80.4277 110.424L80.3203 111.234H73.416C73.2988 112.191 73.4551 113.005 73.8848 113.676C74.321 114.346 74.9688 114.695 75.8281 114.721C76.8698 114.747 77.8333 114.278 78.7188 113.314L79.7344 114.174C79.2917 114.812 78.7188 115.313 78.0156 115.678C77.319 116.036 76.541 116.208 75.6816 116.195ZM76.8047 106.713C76.0755 106.693 75.4375 106.941 74.8906 107.455C74.3503 107.969 73.9206 108.734 73.6016 109.75L78.7383 109.76L78.7773 109.604C78.8815 108.783 78.748 108.103 78.377 107.562C78.0124 107.016 77.4883 106.732 76.8047 106.713ZM82.6836 113.949C83.0026 113.943 83.2663 114.04 83.4746 114.242C83.6829 114.444 83.7839 114.704 83.7773 115.023C83.7708 115.342 83.6634 115.603 83.4551 115.805C83.2467 116 82.9863 116.104 82.6738 116.117C82.3613 116.13 82.1042 116.042 81.9023 115.854C81.7005 115.658 81.5996 115.401 81.5996 115.082C81.5996 114.763 81.7005 114.499 81.9023 114.291C82.1042 114.076 82.3646 113.962 82.6836 113.949ZM84.1777 105.326C84.4967 105.32 84.7604 105.417 84.9688 105.619C85.1771 105.821 85.278 106.081 85.2715 106.4C85.265 106.719 85.1576 106.98 84.9492 107.182C84.7409 107.377 84.4805 107.481 84.168 107.494C83.8555 107.507 83.5983 107.419 83.3965 107.23C83.1947 107.035 83.0938 106.778 83.0938 106.459C83.0938 106.14 83.1947 105.876 83.3965 105.668C83.5983 105.453 83.8587 105.339 84.1777 105.326Z" fill="black"/>
<path d="M31.8442 166.249C31.8442 165.292 31.9712 164.374 32.2251 163.494C32.4832 162.613 32.8662 161.814 33.374 161.094C33.8818 160.375 34.4087 159.867 34.9546 159.571L35.1958 160.345C34.578 160.819 34.0701 161.543 33.6724 162.516C33.2788 163.489 33.063 164.579 33.0249 165.785L33.0186 166.325C33.0186 167.958 33.3169 169.376 33.9136 170.578C34.2733 171.297 34.7007 171.86 35.1958 172.266L34.9546 172.983C34.3918 172.67 33.8543 172.146 33.3423 171.409C32.3436 169.97 31.8442 168.25 31.8442 166.249ZM42.4131 168.381L43.7334 163.132H44.9077L42.9082 170H41.9561L40.2866 164.795L38.6616 170H37.7095L35.7163 163.132H36.8843L38.2363 168.273L39.8359 163.132H40.7817L42.4131 168.381ZM48.9575 170.127C48.0265 170.127 47.269 169.822 46.6851 169.213C46.1011 168.599 45.8091 167.78 45.8091 166.756V166.541C45.8091 165.859 45.9382 165.252 46.1963 164.719C46.4587 164.181 46.8226 163.762 47.2881 163.462C47.7578 163.157 48.2656 163.005 48.8115 163.005C49.7044 163.005 50.3984 163.299 50.8936 163.887C51.3887 164.475 51.6362 165.318 51.6362 166.414V166.902H46.9834C47.0003 167.579 47.1971 168.127 47.5737 168.546C47.9546 168.961 48.437 169.168 49.021 169.168C49.4357 169.168 49.7869 169.084 50.0747 168.915C50.3625 168.745 50.6143 168.521 50.8301 168.242L51.5474 168.8C50.9718 169.685 50.1086 170.127 48.9575 170.127ZM48.8115 163.97C48.3376 163.97 47.9398 164.143 47.6182 164.49C47.2965 164.833 47.0977 165.315 47.0215 165.938H50.4619V165.849C50.4281 165.252 50.2673 164.791 49.9795 164.465C49.6917 164.135 49.3024 163.97 48.8115 163.97ZM54.1118 163.132L54.1499 163.995C54.6746 163.335 55.3602 163.005 56.2065 163.005C57.658 163.005 58.3901 163.824 58.4028 165.461V170H57.2285V165.455C57.2243 164.96 57.11 164.594 56.8857 164.357C56.6657 164.12 56.3208 164.001 55.8511 164.001C55.4702 164.001 55.1359 164.103 54.8481 164.306C54.5604 164.509 54.3361 164.776 54.1753 165.106V170H53.001V163.132H54.1118ZM61.2847 163.132L61.3228 163.995C61.8475 163.335 62.533 163.005 63.3794 163.005C64.8309 163.005 65.563 163.824 65.5757 165.461V170H64.4014V165.455C64.3971 164.96 64.2829 164.594 64.0586 164.357C63.8385 164.12 63.4937 164.001 63.0239 164.001C62.6431 164.001 62.3088 164.103 62.021 164.306C61.7332 164.509 61.509 164.776 61.3481 165.106V170H60.1738V163.132H61.2847ZM74.8115 170C74.7438 169.865 74.6888 169.623 74.6465 169.276C74.1006 169.843 73.4489 170.127 72.6914 170.127C72.0143 170.127 71.4578 169.937 71.022 169.556C70.5903 169.171 70.3745 168.684 70.3745 168.096C70.3745 167.381 70.6453 166.826 71.187 166.433C71.7329 166.035 72.4989 165.836 73.4849 165.836H74.6274V165.296C74.6274 164.886 74.5047 164.56 74.2593 164.319C74.0138 164.073 73.652 163.951 73.1738 163.951C72.7549 163.951 72.4036 164.056 72.1201 164.268C71.8366 164.48 71.6948 164.736 71.6948 165.036H70.5142C70.5142 164.693 70.6348 164.363 70.876 164.046C71.1214 163.724 71.4515 163.47 71.8662 163.284C72.2852 163.098 72.7443 163.005 73.2437 163.005C74.035 163.005 74.6549 163.204 75.1035 163.602C75.5521 163.995 75.7848 164.539 75.8018 165.233V168.394C75.8018 169.025 75.8822 169.526 76.043 169.898V170H74.8115ZM72.8628 169.105C73.231 169.105 73.5801 169.01 73.9102 168.819C74.2402 168.629 74.4793 168.381 74.6274 168.077V166.667H73.707C72.2682 166.667 71.5488 167.089 71.5488 167.931C71.5488 168.299 71.6715 168.587 71.917 168.794C72.1624 169.001 72.4777 169.105 72.8628 169.105ZM81.8828 169.321C81.4258 169.858 80.755 170.127 79.8706 170.127C79.1385 170.127 78.5799 169.915 78.1948 169.492C77.814 169.065 77.6214 168.434 77.6172 167.601V163.132H78.7915V167.569C78.7915 168.61 79.2147 169.13 80.061 169.13C80.9582 169.13 81.5549 168.796 81.8511 168.127V163.132H83.0254V170H81.9082L81.8828 169.321ZM88.8145 168.178C88.8145 167.861 88.6938 167.615 88.4526 167.442C88.2157 167.264 87.7988 167.112 87.2021 166.985C86.6097 166.858 86.1379 166.706 85.7866 166.528C85.4396 166.35 85.1815 166.139 85.0122 165.893C84.8472 165.648 84.7646 165.356 84.7646 165.017C84.7646 164.454 85.0016 163.978 85.4756 163.589C85.9538 163.2 86.5632 163.005 87.3037 163.005C88.0824 163.005 88.7129 163.206 89.1953 163.608C89.682 164.01 89.9253 164.524 89.9253 165.15H88.7446C88.7446 164.829 88.6071 164.552 88.332 164.319C88.0612 164.086 87.7184 163.97 87.3037 163.97C86.8763 163.97 86.542 164.063 86.3008 164.249C86.0596 164.435 85.939 164.679 85.939 164.979C85.939 165.263 86.0511 165.476 86.2754 165.62C86.4997 165.764 86.9038 165.902 87.4878 166.033C88.076 166.164 88.5521 166.32 88.916 166.502C89.2799 166.684 89.5487 166.904 89.7222 167.163C89.8999 167.417 89.9888 167.728 89.9888 168.096C89.9888 168.709 89.7433 169.202 89.2524 169.575C88.7616 169.943 88.1247 170.127 87.3418 170.127C86.7917 170.127 86.305 170.03 85.8818 169.835C85.4587 169.64 85.1265 169.369 84.8853 169.022C84.6483 168.671 84.5298 168.292 84.5298 167.886H85.7041C85.7253 168.28 85.8818 168.593 86.1738 168.826C86.4701 169.054 86.8594 169.168 87.3418 169.168C87.7861 169.168 88.1416 169.08 88.4082 168.902C88.679 168.72 88.8145 168.479 88.8145 168.178ZM91.2393 166.509C91.2393 165.438 91.4868 164.588 91.9819 163.957C92.4771 163.322 93.133 163.005 93.9497 163.005C94.7876 163.005 95.4414 163.301 95.9111 163.894L95.9683 163.132H97.041V169.835C97.041 170.724 96.7765 171.424 96.2476 171.936C95.7228 172.448 95.0161 172.704 94.1274 172.704C93.6323 172.704 93.1478 172.598 92.6738 172.387C92.1999 172.175 91.8381 171.885 91.5884 171.517L92.1978 170.812C92.7013 171.435 93.3171 171.746 94.0449 171.746C94.6162 171.746 95.0605 171.585 95.3779 171.263C95.6995 170.942 95.8604 170.489 95.8604 169.905V169.314C95.3906 169.856 94.7495 170.127 93.937 170.127C93.133 170.127 92.4813 169.803 91.9819 169.156C91.4868 168.508 91.2393 167.626 91.2393 166.509ZM92.4199 166.642C92.4199 167.417 92.5786 168.026 92.896 168.47C93.2134 168.91 93.6577 169.13 94.229 169.13C94.9696 169.13 95.5133 168.794 95.8604 168.121V164.985C95.5007 164.329 94.9611 164.001 94.2417 164.001C93.6704 164.001 93.224 164.224 92.9023 164.668C92.5807 165.112 92.4199 165.77 92.4199 166.642ZM101.668 170.127C100.737 170.127 99.98 169.822 99.396 169.213C98.812 168.599 98.52 167.78 98.52 166.756V166.541C98.52 165.859 98.6491 165.252 98.9072 164.719C99.1696 164.181 99.5335 163.762 99.999 163.462C100.469 163.157 100.977 163.005 101.522 163.005C102.415 163.005 103.109 163.299 103.604 163.887C104.1 164.475 104.347 165.318 104.347 166.414V166.902H99.6943C99.7113 167.579 99.908 168.127 100.285 168.546C100.666 168.961 101.148 169.168 101.732 169.168C102.147 169.168 102.498 169.084 102.786 168.915C103.073 168.745 103.325 168.521 103.541 168.242L104.258 168.8C103.683 169.685 102.819 170.127 101.668 170.127ZM101.522 163.97C101.049 163.97 100.651 164.143 100.329 164.49C100.007 164.833 99.8086 165.315 99.7324 165.938H103.173V165.849C103.139 165.252 102.978 164.791 102.69 164.465C102.403 164.135 102.013 163.97 101.522 163.97ZM111.793 168.381L113.113 163.132H114.288L112.288 170H111.336L109.667 164.795L108.042 170H107.089L105.096 163.132H106.264L107.616 168.273L109.216 163.132H110.162L111.793 168.381ZM119.728 170C119.66 169.865 119.605 169.623 119.562 169.276C119.017 169.843 118.365 170.127 117.607 170.127C116.93 170.127 116.374 169.937 115.938 169.556C115.506 169.171 115.291 168.684 115.291 168.096C115.291 167.381 115.561 166.826 116.103 166.433C116.649 166.035 117.415 165.836 118.401 165.836H119.543V165.296C119.543 164.886 119.421 164.56 119.175 164.319C118.93 164.073 118.568 163.951 118.09 163.951C117.671 163.951 117.32 164.056 117.036 164.268C116.753 164.48 116.611 164.736 116.611 165.036H115.43C115.43 164.693 115.551 164.363 115.792 164.046C116.037 163.724 116.368 163.47 116.782 163.284C117.201 163.098 117.66 163.005 118.16 163.005C118.951 163.005 119.571 163.204 120.02 163.602C120.468 163.995 120.701 164.539 120.718 165.233V168.394C120.718 169.025 120.798 169.526 120.959 169.898V170H119.728ZM117.779 169.105C118.147 169.105 118.496 169.01 118.826 168.819C119.156 168.629 119.395 168.381 119.543 168.077V166.667H118.623C117.184 166.667 116.465 167.089 116.465 167.931C116.465 168.299 116.588 168.587 116.833 168.794C117.078 169.001 117.394 169.105 117.779 169.105ZM116.243 161.297C116.243 161.107 116.3 160.948 116.414 160.821C116.533 160.69 116.706 160.625 116.935 160.625C117.163 160.625 117.337 160.69 117.455 160.821C117.574 160.948 117.633 161.107 117.633 161.297C117.633 161.488 117.574 161.646 117.455 161.773C117.337 161.9 117.163 161.964 116.935 161.964C116.706 161.964 116.533 161.9 116.414 161.773C116.3 161.646 116.243 161.488 116.243 161.297ZM118.972 161.31C118.972 161.12 119.029 160.959 119.144 160.828C119.262 160.696 119.436 160.631 119.664 160.631C119.893 160.631 120.066 160.696 120.185 160.828C120.303 160.959 120.362 161.12 120.362 161.31C120.362 161.5 120.303 161.659 120.185 161.786C120.066 161.913 119.893 161.977 119.664 161.977C119.436 161.977 119.262 161.913 119.144 161.786C119.029 161.659 118.972 161.5 118.972 161.31ZM123.733 163.963C124.253 163.324 124.931 163.005 125.764 163.005C127.216 163.005 127.948 163.824 127.96 165.461V170H126.786V165.455C126.782 164.96 126.668 164.594 126.443 164.357C126.223 164.12 125.878 164.001 125.409 164.001C125.028 164.001 124.694 164.103 124.406 164.306C124.118 164.509 123.894 164.776 123.733 165.106V170H122.559V160.25H123.733V163.963ZM130.995 170H129.82V160.25H130.995V170ZM134.473 161.469V163.132H135.755V164.04H134.473V168.299C134.473 168.574 134.53 168.781 134.645 168.921C134.759 169.056 134.953 169.124 135.229 169.124C135.364 169.124 135.55 169.099 135.787 169.048V170C135.478 170.085 135.178 170.127 134.886 170.127C134.361 170.127 133.965 169.968 133.699 169.651C133.432 169.333 133.299 168.883 133.299 168.299V164.04H132.048V163.132H133.299V161.469H134.473ZM139.843 166.312C139.843 167.256 139.718 168.161 139.469 169.029C139.223 169.892 138.845 170.69 138.333 171.422C137.825 172.154 137.292 172.674 136.733 172.983L136.485 172.266C137.137 171.767 137.66 170.992 138.053 169.943C138.451 168.889 138.654 167.721 138.663 166.439V166.236C138.663 165.347 138.569 164.522 138.383 163.76C138.197 162.994 137.937 162.309 137.603 161.704C137.272 161.098 136.9 160.627 136.485 160.288L136.733 159.571C137.292 159.88 137.823 160.396 138.326 161.12C138.834 161.843 139.213 162.641 139.462 163.513C139.716 164.384 139.843 165.318 139.843 166.312Z" fill="black"/>
<path d="M37.0859 138.625H38.5938V146.68C38.5938 147.768 38.2656 148.62 37.6094 149.234C36.9583 149.849 36.0885 150.156 35 150.156C33.8698 150.156 32.9896 149.867 32.3594 149.289C31.7292 148.711 31.4141 147.901 31.4141 146.859H32.9141C32.9141 147.51 33.0911 148.018 33.4453 148.383C33.8047 148.747 34.3229 148.93 35 148.93C35.6198 148.93 36.1198 148.734 36.5 148.344C36.8854 147.953 37.0807 147.406 37.0859 146.703V138.625ZM46.1406 150C46.0573 149.833 45.9896 149.536 45.9375 149.109C45.2656 149.807 44.4635 150.156 43.5312 150.156C42.6979 150.156 42.013 149.922 41.4766 149.453C40.9453 148.979 40.6797 148.38 40.6797 147.656C40.6797 146.776 41.013 146.094 41.6797 145.609C42.3516 145.12 43.2943 144.875 44.5078 144.875H45.9141V144.211C45.9141 143.706 45.763 143.305 45.4609 143.008C45.1589 142.706 44.7135 142.555 44.125 142.555C43.6094 142.555 43.1771 142.685 42.8281 142.945C42.4792 143.206 42.3047 143.521 42.3047 143.891H40.8516C40.8516 143.469 41 143.062 41.2969 142.672C41.599 142.276 42.0052 141.964 42.5156 141.734C43.0312 141.505 43.5964 141.391 44.2109 141.391C45.1849 141.391 45.9479 141.635 46.5 142.125C47.0521 142.609 47.3385 143.279 47.3594 144.133V148.023C47.3594 148.799 47.4583 149.417 47.6562 149.875V150H46.1406ZM43.7422 148.898C44.1953 148.898 44.625 148.781 45.0312 148.547C45.4375 148.312 45.7318 148.008 45.9141 147.633V145.898H44.7812C43.0104 145.898 42.125 146.417 42.125 147.453C42.125 147.906 42.276 148.26 42.5781 148.516C42.8802 148.771 43.2682 148.898 43.7422 148.898ZM51.0703 142.57C51.7109 141.784 52.5443 141.391 53.5703 141.391C55.3568 141.391 56.2578 142.398 56.2734 144.414V150H54.8281V144.406C54.8229 143.797 54.6823 143.346 54.4062 143.055C54.1354 142.763 53.7109 142.617 53.1328 142.617C52.6641 142.617 52.2526 142.742 51.8984 142.992C51.5443 143.242 51.2682 143.57 51.0703 143.977V150H49.625V138H51.0703V142.57ZM62.5234 142.844C62.3047 142.807 62.0677 142.789 61.8125 142.789C60.8646 142.789 60.2214 143.193 59.8828 144V150H58.4375V141.547H59.8438L59.8672 142.523C60.3411 141.768 61.013 141.391 61.8828 141.391C62.1641 141.391 62.3776 141.427 62.5234 141.5V142.844ZM67.5234 146.945C67.5234 146.398 67.6745 145.896 67.9766 145.438C68.2839 144.979 68.8672 144.445 69.7266 143.836C69.2214 143.221 68.8828 142.727 68.7109 142.352C68.5391 141.977 68.4531 141.604 68.4531 141.234C68.4531 140.37 68.7083 139.693 69.2188 139.203C69.7292 138.714 70.4219 138.469 71.2969 138.469C72.0781 138.469 72.724 138.698 73.2344 139.156C73.7448 139.609 74 140.182 74 140.875C74 141.333 73.8828 141.758 73.6484 142.148C73.4193 142.534 73.0156 142.94 72.4375 143.367L71.6016 143.984L74.1328 147.008C74.487 146.331 74.6641 145.578 74.6641 144.75H75.9688C75.9688 146.078 75.6484 147.18 75.0078 148.055L76.6328 150H74.8984L74.1406 149.102C73.7552 149.445 73.3021 149.708 72.7812 149.891C72.2656 150.068 71.7396 150.156 71.2031 150.156C70.0938 150.156 69.2031 149.862 68.5312 149.273C67.8594 148.685 67.5234 147.909 67.5234 146.945ZM71.2031 148.977C71.9688 148.977 72.6693 148.685 73.3047 148.102L70.5312 144.781L70.2734 144.969C69.4036 145.609 68.9688 146.268 68.9688 146.945C68.9688 147.56 69.1667 148.052 69.5625 148.422C69.9635 148.792 70.5104 148.977 71.2031 148.977ZM69.8984 141.188C69.8984 141.688 70.2057 142.312 70.8203 143.062L71.7422 142.414C72.0964 142.164 72.3385 141.927 72.4688 141.703C72.599 141.474 72.6641 141.198 72.6641 140.875C72.6641 140.526 72.5339 140.237 72.2734 140.008C72.013 139.773 71.6849 139.656 71.2891 139.656C70.862 139.656 70.5234 139.802 70.2734 140.094C70.0234 140.38 69.8984 140.745 69.8984 141.188ZM81.9766 150V138.625H85.6953C86.9297 138.625 87.8568 138.88 88.4766 139.391C89.1016 139.901 89.4141 140.656 89.4141 141.656C89.4141 142.188 89.263 142.659 88.9609 143.07C88.6589 143.477 88.2474 143.792 87.7266 144.016C88.3411 144.188 88.8255 144.516 89.1797 145C89.5391 145.479 89.7188 146.052 89.7188 146.719C89.7188 147.74 89.388 148.542 88.7266 149.125C88.0651 149.708 87.1302 150 85.9219 150H81.9766ZM83.4766 144.68V148.773H85.9531C86.651 148.773 87.2005 148.594 87.6016 148.234C88.0078 147.87 88.2109 147.37 88.2109 146.734C88.2109 145.365 87.4661 144.68 85.9766 144.68H83.4766ZM83.4766 143.477H85.7422C86.3984 143.477 86.9219 143.312 87.3125 142.984C87.7083 142.656 87.9062 142.211 87.9062 141.648C87.9062 141.023 87.724 140.57 87.3594 140.289C86.9948 140.003 86.4401 139.859 85.6953 139.859H83.4766V143.477ZM96.9375 150C96.8542 149.833 96.7865 149.536 96.7344 149.109C96.0625 149.807 95.2604 150.156 94.3281 150.156C93.4948 150.156 92.8099 149.922 92.2734 149.453C91.7422 148.979 91.4766 148.38 91.4766 147.656C91.4766 146.776 91.8099 146.094 92.4766 145.609C93.1484 145.12 94.0911 144.875 95.3047 144.875H96.7109V144.211C96.7109 143.706 96.5599 143.305 96.2578 143.008C95.9557 142.706 95.5104 142.555 94.9219 142.555C94.4062 142.555 93.974 142.685 93.625 142.945C93.276 143.206 93.1016 143.521 93.1016 143.891H91.6484C91.6484 143.469 91.7969 143.062 92.0938 142.672C92.3958 142.276 92.8021 141.964 93.3125 141.734C93.8281 141.505 94.3932 141.391 95.0078 141.391C95.9818 141.391 96.7448 141.635 97.2969 142.125C97.849 142.609 98.1354 143.279 98.1562 144.133V148.023C98.1562 148.799 98.2552 149.417 98.4531 149.875V150H96.9375ZM94.5391 148.898C94.9922 148.898 95.4219 148.781 95.8281 148.547C96.2344 148.312 96.5286 148.008 96.7109 147.633V145.898H95.5781C93.8073 145.898 92.9219 146.417 92.9219 147.453C92.9219 147.906 93.0729 148.26 93.375 148.516C93.6771 148.771 94.0651 148.898 94.5391 148.898ZM101.992 150H100.547V138H101.992V150ZM106.672 146.086L105.766 147.031V150H104.32V138H105.766V145.258L106.539 144.328L109.172 141.547H110.93L107.641 145.078L111.312 150H109.617L106.672 146.086ZM115.773 150.156C114.628 150.156 113.695 149.781 112.977 149.031C112.258 148.276 111.898 147.268 111.898 146.008V145.742C111.898 144.904 112.057 144.156 112.375 143.5C112.698 142.839 113.146 142.323 113.719 141.953C114.297 141.578 114.922 141.391 115.594 141.391C116.693 141.391 117.547 141.753 118.156 142.477C118.766 143.201 119.07 144.237 119.07 145.586V146.188H113.344C113.365 147.021 113.607 147.695 114.07 148.211C114.539 148.721 115.133 148.977 115.852 148.977C116.362 148.977 116.794 148.872 117.148 148.664C117.503 148.456 117.812 148.18 118.078 147.836L118.961 148.523C118.253 149.612 117.19 150.156 115.773 150.156ZM115.594 142.578C115.01 142.578 114.521 142.792 114.125 143.219C113.729 143.641 113.484 144.234 113.391 145H117.625V144.891C117.583 144.156 117.385 143.589 117.031 143.188C116.677 142.781 116.198 142.578 115.594 142.578ZM122.117 141.547L122.164 142.609C122.81 141.797 123.654 141.391 124.695 141.391C126.482 141.391 127.383 142.398 127.398 144.414V150H125.953V144.406C125.948 143.797 125.807 143.346 125.531 143.055C125.26 142.763 124.836 142.617 124.258 142.617C123.789 142.617 123.378 142.742 123.023 142.992C122.669 143.242 122.393 143.57 122.195 143.977V150H120.75V141.547H122.117ZM135.117 150H133.672V141.547H135.117V150ZM133.555 139.305C133.555 139.07 133.625 138.872 133.766 138.711C133.911 138.549 134.125 138.469 134.406 138.469C134.688 138.469 134.901 138.549 135.047 138.711C135.193 138.872 135.266 139.07 135.266 139.305C135.266 139.539 135.193 139.734 135.047 139.891C134.901 140.047 134.688 140.125 134.406 140.125C134.125 140.125 133.911 140.047 133.766 139.891C133.625 139.734 133.555 139.539 133.555 139.305ZM138.805 141.547L138.852 142.609C139.497 141.797 140.341 141.391 141.383 141.391C143.169 141.391 144.07 142.398 144.086 144.414V150H142.641V144.406C142.635 143.797 142.495 143.346 142.219 143.055C141.948 142.763 141.523 142.617 140.945 142.617C140.477 142.617 140.065 142.742 139.711 142.992C139.357 143.242 139.081 143.57 138.883 143.977V150H137.438V141.547H138.805ZM158.008 139.859H154.352V150H152.859V139.859H149.211V138.625H158.008V139.859ZM161.039 150H159.594V141.547H161.039V150ZM159.477 139.305C159.477 139.07 159.547 138.872 159.688 138.711C159.833 138.549 160.047 138.469 160.328 138.469C160.609 138.469 160.823 138.549 160.969 138.711C161.115 138.872 161.188 139.07 161.188 139.305C161.188 139.539 161.115 139.734 160.969 139.891C160.823 140.047 160.609 140.125 160.328 140.125C160.047 140.125 159.833 140.047 159.688 139.891C159.547 139.734 159.477 139.539 159.477 139.305ZM164.719 141.547L164.758 142.484C165.378 141.755 166.214 141.391 167.266 141.391C168.448 141.391 169.253 141.844 169.68 142.75C169.961 142.344 170.326 142.016 170.773 141.766C171.227 141.516 171.76 141.391 172.375 141.391C174.229 141.391 175.172 142.372 175.203 144.336V150H173.758V144.422C173.758 143.818 173.62 143.367 173.344 143.07C173.068 142.768 172.604 142.617 171.953 142.617C171.417 142.617 170.971 142.779 170.617 143.102C170.263 143.419 170.057 143.849 170 144.391V150H168.547V144.461C168.547 143.232 167.945 142.617 166.742 142.617C165.794 142.617 165.146 143.021 164.797 143.828V150H163.352V141.547H164.719ZM180.898 150.156C179.753 150.156 178.82 149.781 178.102 149.031C177.383 148.276 177.023 147.268 177.023 146.008V145.742C177.023 144.904 177.182 144.156 177.5 143.5C177.823 142.839 178.271 142.323 178.844 141.953C179.422 141.578 180.047 141.391 180.719 141.391C181.818 141.391 182.672 141.753 183.281 142.477C183.891 143.201 184.195 144.237 184.195 145.586V146.188H178.469C178.49 147.021 178.732 147.695 179.195 148.211C179.664 148.721 180.258 148.977 180.977 148.977C181.487 148.977 181.919 148.872 182.273 148.664C182.628 148.456 182.938 148.18 183.203 147.836L184.086 148.523C183.378 149.612 182.315 150.156 180.898 150.156ZM180.719 142.578C180.135 142.578 179.646 142.792 179.25 143.219C178.854 143.641 178.609 144.234 178.516 145H182.75V144.891C182.708 144.156 182.51 143.589 182.156 143.188C181.802 142.781 181.323 142.578 180.719 142.578ZM187.445 150H186V138H187.445V150ZM191.336 150H189.891V141.547H191.336V150ZM189.773 139.305C189.773 139.07 189.844 138.872 189.984 138.711C190.13 138.549 190.344 138.469 190.625 138.469C190.906 138.469 191.12 138.549 191.266 138.711C191.411 138.872 191.484 139.07 191.484 139.305C191.484 139.539 191.411 139.734 191.266 139.891C191.12 140.047 190.906 140.125 190.625 140.125C190.344 140.125 190.13 140.047 189.984 139.891C189.844 139.734 189.773 139.539 189.773 139.305ZM195.023 141.547L195.07 142.609C195.716 141.797 196.56 141.391 197.602 141.391C199.388 141.391 200.289 142.398 200.305 144.414V150H198.859V144.406C198.854 143.797 198.714 143.346 198.438 143.055C198.167 142.763 197.742 142.617 197.164 142.617C196.695 142.617 196.284 142.742 195.93 142.992C195.576 143.242 195.299 143.57 195.102 143.977V150H193.656V141.547H195.023ZM205.992 150.156C204.846 150.156 203.914 149.781 203.195 149.031C202.477 148.276 202.117 147.268 202.117 146.008V145.742C202.117 144.904 202.276 144.156 202.594 143.5C202.917 142.839 203.365 142.323 203.938 141.953C204.516 141.578 205.141 141.391 205.812 141.391C206.911 141.391 207.766 141.753 208.375 142.477C208.984 143.201 209.289 144.237 209.289 145.586V146.188H203.562C203.583 147.021 203.826 147.695 204.289 148.211C204.758 148.721 205.352 148.977 206.07 148.977C206.581 148.977 207.013 148.872 207.367 148.664C207.721 148.456 208.031 148.18 208.297 147.836L209.18 148.523C208.471 149.612 207.409 150.156 205.992 150.156ZM205.812 142.578C205.229 142.578 204.74 142.792 204.344 143.219C203.948 143.641 203.703 144.234 203.609 145H207.844V144.891C207.802 144.156 207.604 143.589 207.25 143.188C206.896 142.781 206.417 142.578 205.812 142.578Z" fill="black"/>
<rect x="252" y="141" width="53" height="52" fill="#FFCC00"/>
<path d="M252 141V140H251V141H252ZM305 141H306V140H305V141ZM305 193V194H306V193H305ZM252 193H251V194H252V193ZM252 142H305V140H252V142ZM304 141V193H306V141H304ZM305 192H252V194H305V192ZM253 193V141H251V193H253Z" fill="black"/>
<path d="M261.849 167.95H260.309L259.949 170H259.309L259.669 167.95H258.389V167.35H259.769L260.049 165.67H258.779V165.07H260.159L260.509 163.02H261.149L260.799 165.07H262.339L262.689 163.02H263.329L262.979 165.07H264.259V165.67H262.869L262.589 167.35H263.869V167.95H262.489L262.129 170H261.489L261.849 167.95ZM261.949 167.35L262.229 165.67H260.689L260.409 167.35H261.949ZM265.848 170V163.02H270.008V163.76H266.688V166.1H269.718V166.84H266.688V170H265.848ZM271.434 170V163.02H275.594V163.76H272.274V166.1H275.304V166.84H272.274V170H271.434ZM279.314 170.12C278.427 170.12 277.737 169.82 277.244 169.22C276.75 168.613 276.504 167.723 276.504 166.55C276.504 165.377 276.75 164.477 277.244 163.85C277.737 163.217 278.427 162.9 279.314 162.9C279.9 162.9 280.39 163.033 280.784 163.3C281.184 163.567 281.494 163.943 281.714 164.43L281.034 164.84C280.894 164.48 280.68 164.193 280.394 163.98C280.107 163.76 279.747 163.65 279.314 163.65C279.014 163.65 278.744 163.707 278.504 163.82C278.27 163.933 278.07 164.097 277.904 164.31C277.744 164.517 277.62 164.767 277.534 165.06C277.447 165.347 277.404 165.67 277.404 166.03V167.07C277.404 167.79 277.57 168.353 277.904 168.76C278.237 169.167 278.707 169.37 279.314 169.37C279.76 169.37 280.134 169.257 280.434 169.03C280.734 168.797 280.954 168.49 281.094 168.11L281.764 168.53C281.544 169.023 281.227 169.413 280.814 169.7C280.4 169.98 279.9 170.12 279.314 170.12ZM285.398 170.12C284.511 170.12 283.821 169.82 283.328 169.22C282.834 168.613 282.588 167.723 282.588 166.55C282.588 165.377 282.834 164.477 283.328 163.85C283.821 163.217 284.511 162.9 285.398 162.9C285.984 162.9 286.474 163.033 286.868 163.3C287.268 163.567 287.578 163.943 287.798 164.43L287.118 164.84C286.978 164.48 286.764 164.193 286.478 163.98C286.191 163.76 285.831 163.65 285.398 163.65C285.098 163.65 284.828 163.707 284.588 163.82C284.354 163.933 284.154 164.097 283.988 164.31C283.828 164.517 283.704 164.767 283.618 165.06C283.531 165.347 283.488 165.67 283.488 166.03V167.07C283.488 167.79 283.654 168.353 283.988 168.76C284.321 169.167 284.791 169.37 285.398 169.37C285.844 169.37 286.218 169.257 286.518 169.03C286.818 168.797 287.038 168.49 287.178 168.11L287.848 168.53C287.628 169.023 287.311 169.413 286.898 169.7C286.484 169.98 285.984 170.12 285.398 170.12ZM291.219 170.12C290.385 170.12 289.775 169.803 289.389 169.17C289.009 168.537 288.819 167.65 288.819 166.51C288.819 165.37 289.009 164.483 289.389 163.85C289.775 163.217 290.385 162.9 291.219 162.9C292.052 162.9 292.659 163.217 293.039 163.85C293.425 164.483 293.619 165.37 293.619 166.51C293.619 167.65 293.425 168.537 293.039 169.17C292.659 169.803 292.052 170.12 291.219 170.12ZM291.219 169.39C291.492 169.39 291.725 169.333 291.919 169.22C292.112 169.107 292.269 168.947 292.389 168.74C292.509 168.533 292.595 168.29 292.649 168.01C292.709 167.73 292.739 167.42 292.739 167.08V165.94C292.739 165.6 292.709 165.29 292.649 165.01C292.595 164.73 292.509 164.487 292.389 164.28C292.269 164.073 292.112 163.913 291.919 163.8C291.725 163.687 291.492 163.63 291.219 163.63C290.945 163.63 290.712 163.687 290.519 163.8C290.325 163.913 290.169 164.073 290.049 164.28C289.929 164.487 289.839 164.73 289.779 165.01C289.725 165.29 289.699 165.6 289.699 165.94V167.08C289.699 167.42 289.725 167.73 289.779 168.01C289.839 168.29 289.929 168.533 290.049 168.74C290.169 168.947 290.325 169.107 290.519 169.22C290.712 169.333 290.945 169.39 291.219 169.39ZM297.215 170.12C296.382 170.12 295.772 169.803 295.385 169.17C295.005 168.537 294.815 167.65 294.815 166.51C294.815 165.37 295.005 164.483 295.385 163.85C295.772 163.217 296.382 162.9 297.215 162.9C298.048 162.9 298.655 163.217 299.035 163.85C299.422 164.483 299.615 165.37 299.615 166.51C299.615 167.65 299.422 168.537 299.035 169.17C298.655 169.803 298.048 170.12 297.215 170.12ZM297.215 169.39C297.488 169.39 297.722 169.333 297.915 169.22C298.108 169.107 298.265 168.947 298.385 168.74C298.505 168.533 298.592 168.29 298.645 168.01C298.705 167.73 298.735 167.42 298.735 167.08V165.94C298.735 165.6 298.705 165.29 298.645 165.01C298.592 164.73 298.505 164.487 298.385 164.28C298.265 164.073 298.108 163.913 297.915 163.8C297.722 163.687 297.488 163.63 297.215 163.63C296.942 163.63 296.708 163.687 296.515 163.8C296.322 163.913 296.165 164.073 296.045 164.28C295.925 164.487 295.835 164.73 295.775 165.01C295.722 165.29 295.695 165.6 295.695 165.94V167.08C295.695 167.42 295.722 167.73 295.775 168.01C295.835 168.29 295.925 168.533 296.045 168.74C296.165 168.947 296.322 169.107 296.515 169.22C296.708 169.333 296.942 169.39 297.215 169.39Z" fill="black"/>
</svg>
